<?xml version="1.0" encoding="UTF-8"?><svg id="Layer_1" xmlns="http://www.w3.org/2000/svg" viewBox="0 0 500 500"><path d="M102.7,202.18c2.21,0,4-1.79,4-4v-10.15c0-2.21-1.79-4-4-4s-4,1.79-4,4v10.15c0,2.21,1.79,4,4,4Z"/><path d="M102.7,176.31c2.21,0,4-1.79,4-4v-20.28c0-5.98,12.56-12.66,29.37-12.66s29.32,6.68,29.32,12.66v102.37c0,2.21,1.79,4,4,4s4-1.79,4-4v-86.05c.2-.14,.39-.29,.56-.46,.28-.29,28.65-28.52,65.89-28.52,20.48,0,35.29,8.36,49.61,16.44,5.21,2.94,10.13,5.72,15.19,8.01,2.01,.91,4.38,.02,5.29-2,.91-2.01,.02-4.38-2-5.29-4.73-2.14-9.5-4.83-14.55-7.69-14.51-8.19-30.96-17.48-53.54-17.48-31.28,0-56.15,17.63-66.45,26.27v-5.61c0-11.78-16.04-20.66-37.32-20.66s-37.37,8.88-37.37,20.66v20.28c0,2.21,1.79,4,4,4Z"/><path d="M136.07,367.29c1.55,0,3.07-.05,4.56-.15,.31,.08,.63,.13,.97,.13,20.81,0,33.42-9.2,45.62-18.09,11.48-8.37,22.32-16.28,40.07-16.94,2.21-.08,3.93-1.94,3.85-4.15-.08-2.21-1.95-3.94-4.15-3.85-20.19,.75-32.54,9.76-44.49,18.47-3.14,2.29-6.23,4.54-9.43,6.61,.2-.9,.31-1.82,.31-2.75v-73.72c0-2.21-1.79-4-4-4s-4,1.79-4,4v60.67c-2.41-1.67-5.32-3.12-8.64-4.3-.04-.01-.08-.03-.12-.04-.34-.12-.69-.24-1.05-.35-.16-.05-.31-.1-.47-.15-.05-.01-.09-.03-.14-.04-2.58-.81-5.37-1.45-8.34-1.91-.02,0-.03,0-.05,0,0,0,0,0,0,0-1.5-.23-3.04-.42-4.63-.55-2.21-.19-4.14,1.45-4.32,3.65-.18,2.2,1.45,4.14,3.65,4.32,1.6,.13,3.11,.33,4.57,.57,.49,.08,.98,.17,1.45,.26,.31,.06,.61,.12,.92,.19,.47,.1,.93,.2,1.38,.31,.32,.08,.63,.16,.94,.24,.4,.11,.8,.21,1.19,.32,.35,.1,.69,.21,1.03,.32,.32,.1,.65,.21,.96,.31,.39,.14,.76,.28,1.14,.42,.25,.09,.5,.19,.74,.28,.42,.17,.82,.35,1.21,.53,.17,.08,.36,.16,.53,.24,.46,.22,.89,.45,1.31,.68,.33,.18,.64,.37,.95,.55,.23,.14,.46,.27,.68,.41,.32,.21,.6,.42,.89,.63,.11,.08,.22,.15,.32,.23,.29,.23,.56,.45,.83,.68,.07,.06,.15,.13,.22,.19,.26,.23,.49,.47,.71,.7,.06,.06,.12,.12,.18,.19,.21,.23,.4,.46,.58,.7,.05,.07,.11,.14,.16,.22,.16,.22,.3,.44,.43,.66,.06,.1,.1,.19,.15,.29,.1,.2,.2,.39,.28,.59,.06,.14,.1,.28,.14,.42,.05,.15,.1,.3,.13,.45,.06,.29,.1,.59,.1,.87,0,7.28-15.48,12.71-29.32,12.71s-29.37-5.44-29.37-12.71c0-4.91,8.62-10.87,23.05-12.34,2.2-.23,3.8-2.19,3.57-4.39-.23-2.2-2.19-3.79-4.39-3.57-1.13,.12-2.25,.26-3.34,.43-.03,0-.06,.01-.1,.02-1.06,.16-2.09,.35-3.1,.56-.06,.01-.11,.02-.17,.04-.98,.21-1.94,.44-2.88,.69-.07,.02-.14,.04-.21,.06-.91,.25-1.8,.51-2.67,.8-.08,.03-.16,.06-.24,.08-.85,.29-1.67,.59-2.46,.91-.09,.03-.17,.07-.26,.11-.78,.32-1.54,.66-2.26,1.01-.09,.04-.17,.08-.26,.13-.72,.35-1.41,.72-2.07,1.1-.08,.05-.17,.1-.25,.15-.65,.38-1.28,.78-1.87,1.19-.04,.03-.08,.05-.12,.07v-119.69c0-2.21-1.79-4-4-4s-4,1.79-4,4v132.66c0,11.81,16.07,20.71,37.37,20.71Z"/><path d="M398.68,345.43c1.69-1.69,2.63-3.96,2.63-6.39v-33.16c0-2.21-1.79-4-4-4s-4,1.79-4,4v33.16c0,.21-.05,.5-.27,.73-4.91,4.89-23.81,20.86-60.9,20.86-22.71,0-38.43-9.54-53.63-18.76-9.99-6.06-20.31-12.32-32.2-15.48-2.13-.57-4.33,.7-4.89,2.84-.57,2.13,.7,4.33,2.84,4.89,10.77,2.86,20.16,8.56,30.1,14.59,16.14,9.79,32.83,19.92,57.78,19.92,40.15,0,61.09-17.76,66.55-23.2Z"/><path d="M328.92,169.04c21.33-.56,43.01-7.75,62.72-20.79,.46-.3,.86-.2,1.12-.06,.25,.13,.55,.4,.55,.93v140.99c0,2.21,1.79,4,4,4s4-1.79,4-4V149.12c0-3.34-1.82-6.4-4.76-7.98-2.95-1.58-6.52-1.42-9.32,.44-18.46,12.21-38.69,18.94-58.52,19.46-2.21,.06-3.95,1.9-3.89,4.1,.06,2.21,1.9,3.95,4.1,3.89Z"/><path d="M211.62,305.64c.78,.78,1.8,1.17,2.83,1.17s2.05-.39,2.83-1.17l9.87-9.87,9.87,9.87c.78,.78,1.8,1.17,2.83,1.17s2.05-.39,2.83-1.17c1.56-1.56,1.56-4.09,0-5.66l-9.87-9.87,9.87-9.87c1.56-1.56,1.56-4.09,0-5.66-1.56-1.56-4.1-1.56-5.66,0l-9.87,9.87-9.87-9.87c-1.56-1.56-4.1-1.56-5.66,0-1.56,1.56-1.56,4.09,0,5.66l9.87,9.87-9.87,9.87c-1.56,1.56-1.56,4.09,0,5.66Z"/><path d="M337.38,230.62c9.21,0,16.7-7.49,16.7-16.7s-7.49-16.7-16.7-16.7-16.7,7.49-16.7,16.7,7.49,16.7,16.7,16.7Zm0-25.4c4.8,0,8.7,3.9,8.7,8.7s-3.9,8.7-8.7,8.7-8.7-3.9-8.7-8.7,3.9-8.7,8.7-8.7Z"/><path d="M217.25,246.76c-1.77-1.32-4.27-.97-5.6,.8-1.32,1.77-.96,4.27,.8,5.6,2.44,1.83,5.08,3.45,7.86,4.83,.57,.28,1.18,.42,1.77,.42,1.47,0,2.89-.82,3.59-2.22,.98-1.98,.17-4.38-1.81-5.36-2.34-1.16-4.56-2.52-6.61-4.06Z"/><path d="M282.87,275.11s-.04,0-.06,0c-2.18,0-3.97,1.75-4,3.94,0,.44,0,.88,0,1.33,0,5.93,.52,11.57,1.55,16.76,.38,1.91,2.05,3.23,3.92,3.23,.26,0,.52-.02,.78-.08,2.17-.43,3.58-2.53,3.15-4.7-.92-4.68-1.39-9.8-1.39-15.21,0-.41,0-.81,0-1.22,.03-2.21-1.74-4.02-3.94-4.05Z"/><path d="M286.36,209.34c-.79-2.06-3.1-3.1-5.17-2.3-2.06,.79-3.09,3.1-2.3,5.17,1.92,5.02,3.3,10.37,4.09,15.89,.29,2,2,3.43,3.96,3.43,.19,0,.38-.01,.57-.04,2.19-.31,3.71-2.34,3.39-4.53-.87-6.11-2.4-12.04-4.54-17.62Z"/><path d="M216.54,193.18c1.65-1.47,1.78-4,.31-5.65-1.47-1.65-4-1.79-5.65-.31-4.71,4.22-8.5,9.29-11.24,15.06-.95,2-.1,4.38,1.89,5.33,.55,.26,1.14,.39,1.71,.39,1.5,0,2.93-.84,3.62-2.28,2.29-4.81,5.43-9.03,9.36-12.54Z"/><path d="M287.83,240.84c-2.22-.17-4.12,1.48-4.29,3.69-.3,3.97-.93,7.87-1.86,11.61-.4,1.59-.76,3.28-1.09,5.01-.41,2.17,1.02,4.26,3.19,4.67,.25,.05,.5,.07,.74,.07,1.89,0,3.57-1.34,3.93-3.26,.3-1.58,.63-3.11,.99-4.55,1.04-4.17,1.74-8.52,2.08-12.94,.17-2.2-1.48-4.12-3.68-4.29Z"/><path d="M271.19,197.93c.78,1.06,1.99,1.62,3.22,1.62,.83,0,1.66-.25,2.37-.78,1.78-1.31,2.15-3.82,.84-5.59-3.97-5.37-8.55-9.7-13.63-12.86-1.88-1.17-4.34-.59-5.51,1.28-1.17,1.88-.59,4.34,1.28,5.51,4.21,2.62,8.05,6.26,11.42,10.82Z"/><path d="M318.69,333.07c.73,.03,1.48,.05,2.23,.05h.04c3.45,0,7.14-.32,10.97-.96,1.74-.29,3.45-.65,5.09-1.06,2.14-.54,3.44-2.71,2.9-4.86-.54-2.14-2.72-3.44-4.86-2.9-1.43,.36-2.92,.67-4.45,.93-3.4,.57-6.65,.85-9.66,.85-.64,0-1.3-.01-1.93-.04-2.19-.1-4.07,1.62-4.16,3.83-.09,2.21,1.62,4.07,3.83,4.16Z"/><path d="M300.32,328.18c.62,.35,1.29,.51,1.95,.51,1.4,0,2.76-.74,3.49-2.05,1.08-1.93,.39-4.36-1.54-5.44-4.3-2.41-7.87-5.99-10.62-10.64-1.12-1.9-3.57-2.53-5.48-1.41-1.9,1.12-2.53,3.58-1.41,5.48,3.47,5.89,8.05,10.45,13.6,13.56Z"/><path d="M348.47,322.42c.79,1.05,1.99,1.61,3.21,1.61,.83,0,1.67-.26,2.39-.79,5.22-3.89,9.29-8.85,12.1-14.75,.95-1.99,.11-4.38-1.89-5.33-1.99-.95-4.38-.11-5.33,1.89-2.25,4.71-5.5,8.67-9.67,11.78-1.77,1.32-2.14,3.83-.82,5.6Z"/><path d="M228.63,185.3c.48,0,.97-.09,1.44-.27,.33-.13,.65-.25,.98-.37,4.88-1.78,9.71-2.53,14.29-2.25,2.17,.14,4.1-1.54,4.24-3.74,.14-2.21-1.54-4.1-3.74-4.24-5.68-.35-11.6,.56-17.53,2.72-.38,.14-.75,.28-1.12,.42-2.06,.8-3.09,3.11-2.29,5.17,.61,1.59,2.13,2.56,3.73,2.56Z"/><path d="M366.38,294.01c.06,0,.11,0,.17,0,2.13,0,3.9-1.68,3.99-3.83,.03-.77,.05-1.55,.05-2.33,0-5.28-.74-10.68-2.18-16.04-.58-2.13-2.77-3.39-4.91-2.82-2.13,.58-3.39,2.77-2.82,4.91,1.27,4.68,1.91,9.38,1.91,13.95,0,.67-.01,1.33-.04,2-.09,2.21,1.62,4.07,3.83,4.17Z"/><path d="M199.48,216.69c-2.22-.16-4.11,1.51-4.27,3.71-.08,1.1-.12,2.22-.12,3.31s.04,2.15,.11,3.19c.18,2.5,1.49,7.04,4.65,12.32,.75,1.25,2.08,1.95,3.44,1.95,.7,0,1.41-.18,2.05-.57,1.9-1.13,2.51-3.59,1.38-5.49-2.71-4.53-3.47-7.88-3.53-8.79-.06-.86-.09-1.74-.09-2.62s.03-1.83,.1-2.75c.15-2.2-1.51-4.11-3.71-4.27Z"/><path d="M355.62,247.37c-1.45-1.66-3.98-1.83-5.64-.38-1.66,1.45-1.83,3.98-.38,5.64,1.67,1.9,3.23,4.03,4.64,6.31,.76,1.22,2.07,1.89,3.4,1.89,.72,0,1.45-.19,2.1-.6,1.88-1.16,2.46-3.63,1.29-5.51-1.64-2.65-3.47-5.13-5.42-7.37Z"/></svg>