<?xml version="1.0" encoding="UTF-8"?>
<svg xmlns="http://www.w3.org/2000/svg" width="400" height="167.6" xmlns:serif="http://www.serif.com/" version="1.1" viewBox="0 0 400 167.6">
  <defs>
    <style>
      .cls-1 {
        fill: #fff;
      }

      .cls-1, .cls-2, .cls-3, .cls-4, .cls-5, .cls-6, .cls-7, .cls-8, .cls-9, .cls-10, .cls-11, .cls-12, .cls-13, .cls-14, .cls-15, .cls-16, .cls-17 {
        fill-rule: evenodd;
      }

      .cls-2 {
        fill: #e53923;
      }

      .cls-3 {
        fill: #213e42;
      }

      .cls-18 {
        fill: #cb9771;
      }

      .cls-4 {
        fill: #2f5669;
      }

      .cls-5 {
        fill: #fbc649;
      }

      .cls-6 {
        fill: #643e1a;
      }

      .cls-7 {
        fill: #633b22;
      }

      .cls-8 {
        fill: #e09317;
      }

      .cls-9 {
        fill: #fab428;
      }

      .cls-10 {
        fill: #4d2e1b;
      }

      .cls-11 {
        fill: #5f7e7f;
      }

      .cls-12 {
        fill: #d78518;
      }

      .cls-13 {
        fill: #254960;
      }

      .cls-14 {
        fill: #ed9f29;
      }

      .cls-15 {
        fill: #ba7600;
      }

      .cls-16 {
        fill: #213e54;
      }

      .cls-17 {
        fill: #ffda75;
      }
    </style>
  </defs>
  <!-- Generator: Adobe Illustrator 28.7.1, SVG Export Plug-In . SVG Version: 1.2.0 Build 142)  -->
  <g>
    <g id="Layer_1">
      <path class="cls-13" d="M13.6,99c-5.6,0-14.3,1.2-13.6,9.1.8,8.8,27.2,6.1,27.2,6.1,0,0-10.6-.1-10.6,9.2,0,14.2,65.8,3.8,65.8,3.8,0,0-10.6,1.3-9.8,6.6,1.9,12.8,100.9,3.2,100.9,3.2,0,0-10.7,0-11.1,7.9-.4,7.8,30.6,4.6,30.6,4.6,0,0-11.7.2-11,8.1,1.1,11.7,90.5,7.2,90.5-2.4s-7.4-5.8-7.4-5.8c0,0,39.9.6,39.9-9.4s-13.6-6.2-13.6-6.2c0,0,82.7,3.5,82.7-8.9s-18.1-7.9-18.1-7.9c0,0,44,1.9,43.9-7.4-.1-9.4-22.1-10.2-31.6-10.5-62.7-1.8-292.3-.3-354.8,0h0Z"/>
      <path class="cls-4" d="M127.7,98.5c-39.2.2-66.7.4-90.5.5-16.7,2.3-16.9,7.5-3.9,9.6,8.4,1.4,6.4.6,8.5.2.3-.1.6-.2.8-.2,0,0,9.8,0,9.3.2-10.5,2-18.4,10.1-10.1,12.6,7.3,2.2,62.1,0,62.1,0-7.8,2.3-17.7,10.3-7.4,11.5,9.4,1.1,102.2-1.1,102.2-1.1-17.9,1.8-17.8,11.2-6.3,11.1,12.2-.1,28-.3,28-.3-4.2,0-18.1,9-7.7,12.1,9,2.6,33.8,1.5,37.4-2.1s-5.4-8.1-5.4-8.1c22.8,1.4,39.9-2.1,41.3-4.7,3.7-6.7-18.6-9.3-18.6-9.3,0,0,64.6-.2,74.4-6.3,9.8-6.2-10.4-9.6-10.4-9.6,24.8-.6,41-1.9,40.4-7.4-.7-7.2-32.9-7.8-32.9-7.8l-211.3-.7h0Z"/>
      <path class="cls-13" d="M108.5,98.5c-5.4,4-3.5,9,10,10.2,16.5,1.5,43,2.4,43,2.4-14.7-.5-33,6.1-21,6.5,7.3.3,108.8,1,116,0,19.5-2.8-5.3-6.5-5.3-6.5,0,0,28.8.3,59.9.2,10.6,0-6.1,4.9,3.9,4.7,10-.1,46.9-5.3,54.2-5.6,1.9-.9,2.9-2.1,2.8-3.5-.7-7.2-32.9-7.8-32.9-7.8l-211.3-.7c-6.7,0-13.1,0-19.2,0h0Z"/>
      <path class="cls-16" d="M10.9,99.1c-2.7,3.7-6.9,11.1,1.7,11.8,8.3.6,19.8,0,19.8,0,0,0-13.7,12.3-3,14.6,7.1,1.5,53.1-.1,58.7-.5,0,0-15.2,10.1-.5,10.8,8.8.4,79.7-.7,92.1-1.5,0,0-19,9.3-7,10.5,7.5.7,28.1,0,28.1,0,0,0-15.3,12.2-5.2,12.9s53.1,6.1,66.7-3.2c4.4-3-4.4-6.6-4.4-6.6,0,0,31.7-3.1,37.3-5.8,10.4-5.1-9.6-9.7-9.6-9.7,0,0,69.9-1.5,78.7-8.6,7.5-6-17.3-6.9-17.3-6.9,0,0,36.8-3.5,42-7.2,9.8-7-18.2-9.9-18.2-9.9l4.4-.3c10.5.6,24.9,2.7,25,10.2.1,7.6-29.4,7.7-40.1,7.5-2.2-.2-3.8-.1-3.8-.1,0,0,1.4,0,3.8.1,5.3.4,14.3,1.9,14.3,7.8,0,11.9-76.3,9.2-82.3,8.9-.2,0-.4,0-.4,0,0,0,.1,0,.4,0,2.2.1,13.3.9,13.3,6.1,0,10-39.9,9.4-39.9,9.4,0,0,7.4.6,7.4,5.8,0,9.7-89.3,14.2-90.5,2.4-.6-5.8,5.7-7.4,9-7.9,1.2-.1,2-.2,2-.2,0,0-.8,0-2,.2-6.8.6-29,1.8-28.6-4.8.3-5.6,5.8-7.2,8.9-7.7,1.4-.1,2.2-.2,2.2-.2,0,0-.9,0-2.2.2-14.5,1.3-96.9,8.2-98.7-3.4-.7-4.5,7-6.1,9.2-6.5.4,0,.6,0,.6,0,0,0-.2,0-.6,0-6.5,1-65.2,9.5-65.2-3.9s5.7-8.6,8.7-9c1.1,0,1.8-.2,1.8-.2,0,0-.7,0-1.8.2-6,.4-24.7,1.2-25.4-6.2-.6-6.7,5.6-8.6,10.9-9h0Z"/>
      <path class="cls-11" d="M313.1,126h14.9c3.2-2.2,3.4-8.6-3.2-6.1,0,0,1.4-7.3-4.4-7.2-1.9,0-6.7,4.1-3.9,7.2-2.2-1.5-9,.4-3.3,6.1h0Z"/>
      <path class="cls-3" d="M33.4,113.8c-4.7,2.3-2.2,9.2,10.3,7.5,12.5-1.7,13.2-.8,20.2.5,7.7,1.4,9.4-2.1,14.2-2.4,5.6-.4,12.7,3.7,19.7,0,7-3.7-15.3-8.5-15.3-8.5,0,0-36.2-3.3-49.1,3h0Z"/>
      <g>
        <g>
          <g>
            <path class="cls-14" d="M189.5,2.9l67.8,104.7H121.7L189.5,2.9h0Z"/>
            <path class="cls-12" d="M151.9,60.9c5.4,2.7,11.9,4.4,18.6,2.6,17.7-4.8,27.3,2.5,34,11.2,5.1,6.6,20.7,6.6,33.9,3.7l18.9,29.2H121.7l30.2-46.7h0Z"/>
            <path class="cls-6" d="M189.5,2.9l15.1,104.7h-40L189.5,2.9h0Z"/>
            <path class="cls-5" d="M189.5,2.9c-.6,37.9-8.3,52.3-24.9,104.7-11.8-2.2-17.8-11.8-22.4-20.7,27-31.1,38.7-51.9,47.2-84h0Z"/>
            <path class="cls-5" d="M189.5,2.9c.6,37.9,2.3,66.2,15.1,104.7,8.2-3.3,12.5-6.8,17-15.7-26.8-36.6-23.7-60.3-32.2-89h0Z"/>
            <path class="cls-5" d="M189.5,2.9h125.6l67.8,104.7h-125.6L189.5,2.9h0Z"/>
            <path class="cls-17" d="M318.8,8.6c-10.9,2.1-20.7,8.4-25.5,17.4-4,7.5-12.3,10.1-22.9,10.1s-45.1-13.5-45.1-13.5c0,0,23.2,14.5,18,13.5-11.8-2.2-21.1,1.6-28,6.9L189.5,2.9h125.6l3.7,5.7h0Z"/>
            <path class="cls-9" d="M382.9,107.6l-44.4-68.6c-3.5,6.9-11.6,15.7-40,21.9-4.1,9,4,7.7,11,16.9,3.9,5.1-36.3-11.2-38.3,0-2,11.2-10.9,17.7-19.2,21.5l5.4,8.3h125.6Z"/>
            <path class="cls-8" d="M382.9,107.6l-28.1-43.3c-5.5,3.4-11.4,9.6-8.1,20.6,4.1,13.7-18.6,11.4-29.3,8.6-20.2-5.4-30.8,3.6-31.2,14.1h96.7,0Z"/>
            <path class="cls-15" d="M251.9,32.1h45.8l15.5,19.7h-45.8l-15.5-19.7Z"/>
          </g>
          <path class="cls-10" d="M266.8,110s1.3-12.2,2.5-14.6c.7-1.5,4.8-1.6,4.9,0,.2,2.4-3.8,14.6-3.8,14.6h-3.6Z"/>
          <path class="cls-10" d="M119.6,110s-1.3-12.2-2.5-14.6c-.7-1.5-4.8-1.6-4.9,0-.2,2.4,3.8,14.6,3.8,14.6h3.6Z"/>
          <path class="cls-1" d="M273.2,100.2c-1.2,0-2.7,0-3.9-.4-.7-.2-1.2-.5-1.6-.9,0,0,0,0,0,0L190,2.5c-.1-.1-.3-.2-.5-.2-.2,0-.4,0-.5.2l-71.5,95.3s0,0,0,0c-.7,1.3-2.2,2.3-4.7,1.9-.3,0-.6.2-.7.5,0,.3.2.6.5.7,3.1.5,5-.8,5.9-2.4,0,0,64.9-86.5,71-94.6l77.3,95.8c.4.6,1.2,1,2.2,1.3,1.3.4,2.9.5,4.2.4.3,0,.6-.3.6-.6s-.3-.6-.6-.6h0Z"/>
        </g>
        <g>
          <path class="cls-2" d="M81.6,105.9c-8.6,8.9-26.4,8.9-33.4,0-5.1-6.5-2.3-21.9-2.3-21.9,0,0,2.2,3.8,5.6,4.6,0,0,2.2-1.1,1-6.2-1.2-5.2-.5-11.6,2.5-15.4,0,0,0,3.6,2.9,4.8,0,0,2.3-4.7,1.6-8.2-1.1-5.7,3.1-10.1,5.2-12.4,0,0,.9,8.6,3.1,10.8,2.2,2.2,5.1,6.8,4,12.2,0,0,3.9-4.7,4.1-6.4,0,0,2.2,2.7,1.7,6.4-.5,3.7.3,6.2,2.4,8.2,2.1,2.1,1,7.4.7,9,0,0,2.1-3.6,5.9-5.8-2,4.6,1.1,13.9-5.1,20.4Z"/>
          <path class="cls-5" d="M64.1,112.2c-13.4-.3-11.6-5.8-15.6-17.1,0,0,3.3.3,6.5,4.2,0,0,1.1-6.3,0-9.6-1.1-3.4.4-6.7.7-8.4,1.2,2.3,2.7,5,4,4.8-1.1-6.7,3.2-7.2,3.5-15.4,1.8.2,5,6.2,4.5,12.1,0,0,4.1-3.9,4.4-5.5,0,0,2.4,7.2,2.2,11.7s-.2,7.6.8,10.3c0,0,2.4-1,4-4.2.3,5.1.7,18.1-14.9,17.1h0Z"/>
          <path class="cls-7" d="M66.1,110.6c-8.6-2.9-17.3-4.1-25.9-4.7v11l25.9-1.9v-4.4h0Z"/>
          <path class="cls-7" d="M66.1,110.6c8.6-2.9,17.3-4.1,25.9-4.7v11l-25.9-1.9v-4.4h0Z"/>
          <ellipse class="cls-18" cx="40.2" cy="111.4" rx="4.4" ry="5.5"/>
          <ellipse class="cls-18" cx="66.1" cy="112.6" rx="6.1" ry="6"/>
          <ellipse class="cls-18" cx="92" cy="111.4" rx="4.4" ry="5.5"/>
        </g>
      </g>
      <path class="cls-11" d="M370,108.3h14.9c3.2-2.2,3.1-7.6-3.5-5,0,0-.7-7.3-6.3-5.7-3.5,1-4.1,3.8-1.7,5.7-2.2-1.5-7.6.5-3.4,5Z"/>
    </g>
  </g>
</svg>