<?xml version="1.0" encoding="utf-8"?>
<!-- Generator: Adobe Illustrator 19.2.1, SVG Export Plug-In . SVG Version: 6.00 Build 0)  -->
<svg version="1.1" xmlns="http://www.w3.org/2000/svg" xmlns:xlink="http://www.w3.org/1999/xlink" x="0px" y="0px"
	 viewBox="0 0 131.3 57.8" style="enable-background:new 0 0 131.3 57.8;" xml:space="preserve">
<style type="text/css">
	.st0{fill:#C6B89B;}
	.st1{fill:#B2A287;}
	.st2{fill:#D88832;}
	.st3{fill:#EDB26C;}
	.st4{clip-path:url(#SVGID_2_);}
	.st5{fill:#E09637;}
	.st6{fill:none;}
	.st7{fill:#663300;}
	.st8{fill:#F2F2F2;}
	.st9{clip-path:url(#SVGID_4_);}
	.st10{clip-path:url(#SVGID_6_);}
	.st11{clip-path:url(#SVGID_8_);}
	.st12{fill:url(#SVGID_9_);}
	.st13{fill:url(#SVGID_10_);}
	.st14{display:none;fill:#95E7FC;}
	.st15{display:none;fill:#7BE1FC;}
	.st16{fill:#23AF9E;}
	.st17{fill:#00A894;}
	.st18{fill:#4BD1C1;}
	.st19{fill:#42B8AA;}
	.st20{fill:#1B8F59;}
	.st21{display:none;}
	.st22{display:inline;fill:#7BE1FC;}
	.st23{display:inline;fill:#C2C0BC;}
	.st24{display:inline;fill:#B5B3AF;}
	.st25{display:inline;fill:#D3D1CD;}
	.st26{fill:#52AF52;}
	.st27{fill:#6FCE6F;}
	.st28{fill:#472D21;}
	.st29{fill:#479947;}
	.st30{fill:#E2A561;}
	.st31{clip-path:url(#SVGID_12_);}
	.st32{fill:#D3842D;}
	.st33{clip-path:url(#SVGID_14_);}
	.st34{fill:#5E3918;}
	.st35{fill:#633001;}
	.st36{clip-path:url(#SVGID_16_);}
	.st37{clip-path:url(#SVGID_18_);}
</style>
<g id="Capa_1">
</g>
<g id="Capa_2">
	<g>
		<g>
			<g>
				<polygon class="st2" points="20.3,9.6 129.8,9.6 129.8,17.9 122.3,20.5 129.8,25.8 129.8,36 121.2,40.4 129.8,42.8 129.8,51.7 
					20.3,51.7 1.5,30.7 				"/>
				<g>
					<polygon class="st3" points="20.3,6.1 129.8,6.1 129.8,14.4 122.3,17 129.8,22.3 129.8,32.5 121.2,36.9 129.8,39.3 129.8,48.2 
						20.3,48.2 1.5,27.2 					"/>
					<g>
						<defs>
							<polygon id="SVGID_15_" points="20.3,6.1 129.8,6.1 129.8,14.4 122.3,17 129.8,22.3 129.8,32.5 121.2,36.9 129.8,39.3 
								129.8,48.2 20.3,48.2 1.5,27.2 							"/>
						</defs>
						<clipPath id="SVGID_2_">
							<use xlink:href="#SVGID_15_"  style="overflow:visible;"/>
						</clipPath>
						<g class="st4">
							<path class="st5" d="M142.2,1.7c-0.1,0.2-0.5,0.3-0.9,0.3c0,0,0,0,0,0c0,0,0,0-0.1,0c-0.1,0-0.1,0-0.2,0
								C114.6,2.6,88,2.9,61.4,2.8C44.8,2.8,28.4,2,11.8,1.6C-2.4,1.3-16.6,1.1-30.8,0.9c-0.7,0-1.1-0.2-1.2-0.5
								c0-0.1,0-0.2-0.1-0.3c-0.1-0.3,0.6-0.5,1.2-0.5C-17.1-0.2-3.3,0,10.4,0.3c16.7,0.4,33.3,1.1,50,1.2
								c26.9,0.1,53.9-0.3,80.8-0.8c0.8,0,1.3,0.3,1.1,0.6C142.4,1.5,142.3,1.6,142.2,1.7z"/>
							<path class="st5" d="M142.3,4.5c-0.1,0.1-0.2,0.2-0.4,0.3c-0.2,0.1-0.4,0.1-0.7,0.1C115.9,5,90.6,5,65.4,4.9
								C50.5,4.8,35.6,4.4,20.8,4.5C3.5,4.6-14.7,6.6-30.7,9.4c-0.7,0.1-1.5-0.2-1.5-0.4c0-0.1,0-0.3,0-0.4c0-0.2,0.4-0.4,0.9-0.5
								c15.3-2.7,32.2-4.4,48.7-4.8c7.6-0.2,15.2,0.1,22.8,0.2C48.1,3.5,56,3.6,64,3.6c25.8,0.1,51.6,0,77.4-0.1
								c0.8,0,1.3,0.3,1.1,0.6C142.4,4.2,142.3,4.4,142.3,4.5z"/>
							<path class="st5" d="M141.2,9C122.7,8.6,104,8.5,85.6,7.8C72.3,7.4,59.2,7.6,45.9,7.9c-25.7,0.7-51.1,2.3-76.5,4
								c-0.9,0.1-1.6-0.2-1.5-0.6c0.1-0.1,0.1-0.3,0.2-0.4c0.1-0.1,0.5-0.3,0.8-0.3c25-1.7,50.1-3.1,75.4-3.9
								C57.7,6.3,71.3,6,84.6,6.5c18.7,0.8,37.7,0.8,56.5,1.2c0.7,0,1.2,0.2,1.2,0.5c0,0.1,0,0.2,0,0.3c0,0.1-0.1,0.2-0.2,0.3
								C142,8.9,141.7,9,141.2,9z"/>
							<path class="st5" d="M-26.2,18.1c5.4-0.3,10.8-0.9,16.1-1.5c12.1-1.3,24.1-3,36-4.5c8.7-1.1,17.6-2.5,26.7-2.9
								C58.2,9,63.8,9.1,69.4,9.2c24.1,0.3,48.3,1.3,72.2,2.4c0.7,0,0.9,0.2,0.8,0.5c0,0,0,0.1,0,0.1c0,0.1-0.1,0.2-0.1,0.3
								c-0.1,0.3-0.9,0.4-1.5,0.4c-22.6-1-45.3-1.9-68-2.3c-5.7-0.1-11.3-0.1-17,0c-8,0.2-15.9,1.3-23.6,2.3
								c-11.9,1.5-23.6,3.1-35.5,4.5c-9.1,1.1-18.4,2.2-27.9,2.4c-0.8,0-1.6-0.4-1-0.7C-30.6,18.1-28.8,18.3-26.2,18.1z"/>
							<path class="st5" d="M141.4,21.4c-7.5-0.7-15-1.4-22.4-2.3c-2.4-0.3-14.6-1.2-14.6-2.7c0-2.5,32.9-0.5,37.5-0.3
								c0.5,0,0.9,0.3,0.9,0.5c0,0.1-0.1,0.2-0.1,0.3c-0.1,0.2-0.5,0.5-1.2,0.5c-6.6-0.3-13.3-0.5-19.9-0.7
								c-2.7-0.1-5.5-0.1-8.2-0.1c-1.2,0-2.4,0-3.5,0c-0.1,0-0.2,0-0.3,0c3.6,0.8,8.5,1.1,12.1,1.5c6.7,0.7,13.6,1.4,20.4,2
								c0.4,0,0.6,0.1,0.8,0.2c0,0,0,0,0,0c0,0,0,0,0,0c0,0,0.1,0.1,0.1,0.1c0,0.1,0,0.3,0,0.4C142.9,21.2,142.1,21.5,141.4,21.4z"
								/>
							<path class="st5" d="M61.5,50.5c-26.9,0-53.9,0.6-80.8,1.3c-0.8,0-1.3-0.3-1.2-0.6c0.1-0.1,0.1-0.3,0.2-0.4
								c0.1-0.2,0.5-0.3,0.9-0.4c0,0,0,0,0,0c0,0,0,0,0.1,0c0.1,0,0.1,0,0.2,0c26.5-0.7,53.1-1.1,79.6-1.2c16.6,0,33.1,0.6,49.7,0.9
								c14.2,0.3,28.4,0.4,42.6,0.5c0.7,0,1.1,0.2,1.2,0.5c0,0.1,0,0.2,0.1,0.3c0.1,0.3-0.6,0.5-1.2,0.5
								c-13.8-0.1-27.6-0.2-41.4-0.5C94.8,51.1,78.3,50.4,61.5,50.5z"/>
							<path class="st5" d="M153.1,43.5c-15.2,2.8-32.1,4.5-48.6,5.1c-7.6,0.2-15.2,0-22.8-0.1c-7.9,0-15.9,0-23.8,0
								C32.1,48.5,6.3,48.7-19.5,49c-0.8,0-1.3-0.3-1.2-0.6c0.1-0.1,0.2-0.3,0.2-0.4c0.1-0.1,0.2-0.2,0.4-0.3
								c0.2-0.1,0.4-0.1,0.7-0.1c25.2-0.2,50.5-0.4,75.8-0.4c14.9,0,29.8,0.3,44.6,0.2c17.3-0.2,35.4-2.3,51.3-5.2
								c0.7-0.1,1.5,0.2,1.5,0.4c0,0.1,0,0.3,0,0.4C154,43.2,153.6,43.4,153.1,43.5z"/>
							<path class="st5" d="M-19.4,43.4c18.5,0.3,37.2,0.3,55.7,0.9c13.2,0.4,26.4,0.1,39.7-0.3c25.7-0.9,51-2.6,76.4-4.4
								c0.9-0.1,1.6,0.2,1.5,0.6c-0.1,0.1-0.1,0.3-0.2,0.4c-0.1,0.1-0.5,0.3-0.8,0.3c-25,1.8-50.1,3.4-75.3,4.3
								c-13.4,0.5-26.9,0.9-40.3,0.4C18.5,44.9-0.5,45-19.4,44.7c-0.7,0-1.2-0.2-1.2-0.5c0-0.1,0-0.2,0-0.3c0-0.1,0.1-0.2,0.2-0.3
								C-20.2,43.5-19.9,43.4-19.4,43.4z"/>
							<path class="st5" d="M147.8,33.4c-5.4,0.3-10.8,0.9-16,1.5c-12.1,1.4-24,3.1-35.9,4.7c-8.6,1.2-17.6,2.6-26.6,3
								c-5.6,0.3-11.3,0.3-16.8,0.2c-24.1-0.1-48.3-1-72.3-1.9c-0.7,0-0.9-0.2-0.9-0.5c0,0,0-0.1,0-0.1c0-0.1,0.1-0.2,0.1-0.3
								c0.1-0.3,0.9-0.4,1.4-0.4c22.6,0.9,45.3,1.6,68.1,1.9c5.7,0.1,11.3,0.1,17-0.1c8-0.2,15.9-1.4,23.6-2.4
								c11.8-1.6,23.6-3.2,35.5-4.7c9-1.1,18.4-2.3,27.8-2.6c0.8,0,1.6,0.4,1,0.7C152.2,33.4,150.4,33.2,147.8,33.4z"/>
							<path class="st5" d="M-20.4,29.1c5.6-0.4,12.1,0.6,17.5,1.1c13.8,1.1,27.5,2.2,41.3,3.4c8.7,0.8,17.5,1.6,26.1,2.5
								c3,0.3,6.3,0.7,9,1.3c0.7,0.2,1.9,0.5,1.8,0.9c-0.2,1.5-7.8,1.3-10.2,1.4c-15.4,0.4-31,0.2-46.4,0C5.8,39.5-6.9,39.2-19.6,39
								c-0.6,0-1.2-0.2-1.2-0.5c0-0.1,0-0.2,0-0.3c0-0.2,0.5-0.5,1.2-0.5c25.6,0.5,51.4,1.1,77.1,0.8c2.8,0,5.6-0.1,8.4-0.2
								c1.1,0,2.2-0.1,3.2-0.1c0.5,0,0.8-0.1,1.1-0.1c-1.3-0.2-3.1-0.4-3.9-0.5c-13.2-1.7-27-2.9-40.6-4C10.4,32.3-5,31.1-20.4,30
								c-0.6,0-0.9-0.3-0.9-0.5C-21.3,29.3-21.1,29.1-20.4,29.1z"/>
							<path class="st5" d="M-20.4,32.4c-0.4,0-0.6-0.1-0.8-0.2c0,0,0,0,0,0c0,0,0,0,0,0c0,0-0.1-0.1-0.1-0.1c0-0.1,0-0.3,0-0.4
								c0-0.3,0.7-0.5,1.5-0.5c7.6,0.6,15.1,1.4,22.5,2.2c2.4,0.3,14.6,1.1,14.7,2.6c0.1,2.5-32.9,0.7-37.5,0.5
								c-0.5,0-0.9-0.3-0.9-0.4c0-0.1,0.1-0.2,0.1-0.3c0.1-0.2,0.5-0.5,1.2-0.5c6.6,0.2,13.3,0.4,19.9,0.6c2.7,0.1,5.5,0.1,8.2,0.1
								c1.2,0,2.3,0,3.5,0c0.1,0,0.2,0,0.2,0C8.5,35,3.7,34.7,0,34.3C-6.8,33.6-13.6,33-20.4,32.4z"/>
							<path class="st5" d="M145.3,30.8c-6.5,0.4-13,1-19.4,1.6c-12.2,1.1-24.6,3.4-37.2,2.8c-7.6-0.3-15-1.1-22.4-1.8
								c-9-0.8-18-1.6-27.1-2.3c-7.7-0.6-15.5-1.2-23.2-1.8c-2.7-0.2-6-0.3-8.6-0.6c-0.3,0-0.4-0.1-0.6-0.1
								c-0.7-0.2-0.4-0.8,0.5-0.8c-7.9,0.1-15.9,0.3-23.8,0.4c-4.5,0.1-9.3,0.1-13.8,0.4c-0.7,0.1-1.6-0.1-1.5-0.4
								c0-0.2,0.1-0.3,0.1-0.5c0.1-0.2,0.3-0.4,0.9-0.5c4.3-0.3,8.9-0.3,13.3-0.4c8.7-0.2,17.3-0.3,26-0.4
								c12.9-0.2,25.8-0.2,38.6-0.4c0.6,0,0.9,0.1,1.1,0.3c5.4,0.3,10.8,0.9,15.9,1.3c6.2,0.4,12.3,0.8,18.6,1.1
								c4,0.2,8.1,0.4,12.1,0.2c19-1.2,38-2,57.1-3c0.8,0,1.3,0.3,1.2,0.6c-0.1,0.1-0.1,0.3-0.2,0.4c-0.1,0.2-0.6,0.3-1.1,0.4
								c-18.8,0.9-37.7,1.8-56.4,2.9c-9.1,0.5-19.2-0.5-28.1-1.1c-8.8-0.6-17.5-1.2-26.2-1.8c-9.9,0.1-19.7,0.3-29.6,0.4
								c6.2,0.1,12.5,0.9,18.5,1.4c17.2,1.4,34.3,3,51.5,4.4c6.8,0.6,13.7,0.8,20.6,0.1c6.1-0.6,12.2-1.4,18.3-2
								c10.5-1,21.5-2.3,32.3-2.5c1.1,0,1.5,0.5,0.9,0.8C151.8,30.8,147.9,30.7,145.3,30.8z"/>
							<path class="st5" d="M152,24.2c-4.3,0.4-8.9,0.4-13.3,0.5c-8.6,0.2-17.3,0.4-25.9,0.5c-10.6,0.2-21.2,0.3-31.7,0.5
								c0,0-0.1,0-0.1,0c0,0,0,0,0,0c-0.1,0-0.1,0-0.2,0c0,0,0,0,0,0c0,0-0.1,0-0.1,0c0,0-0.1,0-0.1,0c-1.6,0.1-3.3,0.1-4.9,0
								c-0.4,0-0.9,0-1.3,0c-0.4,0-0.6,0-0.8-0.1c-5.4-0.3-11-1-16.1-1.4c-6.2-0.5-12.3-0.9-18.5-1.2c-4-0.2-8.1-0.5-12.1-0.3
								c-19,1.1-38.1,1.8-57.1,2.7c-0.8,0-1.3-0.3-1.1-0.6c0.1-0.1,0.2-0.3,0.2-0.4c0.1-0.2,0.6-0.3,1.1-0.4
								c18.8-0.8,37.7-1.5,56.5-2.5c9.1-0.5,19.2,0.6,28.1,1.2c8.1,0.6,16.2,1.2,24.3,1.8c0.4,0,0.8,0,1.3-0.1
								c7.6-0.1,15.2-0.3,22.9-0.5c-3.7-0.3-7.4-0.7-11.1-1.1c-17.2-1.5-34.2-3.2-51.4-4.7c-6.8-0.6-13.7-0.9-20.6-0.3
								C13.4,18.6,7.4,19.5,1.2,20c-10.5,1-21.6,2.1-32.3,2.3c-1.1,0-1.4-0.5-0.8-0.8c1.7-0.9,5.6-0.7,8.2-0.9
								c6.5-0.4,13-0.9,19.4-1.5c12.2-1.1,24.6-3.2,37.2-2.6c7.6,0.4,15,1.2,22.3,1.9c9,0.9,18,1.7,27,2.4
								c7.7,0.7,15.4,1.3,23.1,1.9c2.7,0.2,6,0.3,8.6,0.7c0.3,0,0.4,0.1,0.6,0.1c0.2,0.1,0.3,0.1,0.3,0.2c7.1-0.2,14.1-0.3,21.2-0.5
								c-4-0.2-8.1-0.8-11.6-1.1c-13.7-1.2-27.5-2.4-41.2-3.6c-8.7-0.8-17.5-1.7-26-2.7c-3-0.4-6.2-0.7-9-1.4
								c-0.7-0.2-1.8-0.5-1.8-0.9c0.3-1.5,7.8-1.3,10.3-1.3c15.4-0.3,31,0,46.4,0.3c12.7,0.2,25.5,0.5,38.2,0.9
								c0.6,0,1.2,0.2,1.2,0.5c0,0.1,0,0.2,0,0.3c0,0.2-0.5,0.5-1.2,0.5c-25.6-0.7-51.3-1.3-77.1-1.2c-2.8,0-5.6,0-8.4,0.1
								c-1.1,0-2.2,0.1-3.2,0.1c-0.5,0-0.8,0.1-1.1,0.1c1.3,0.2,3.1,0.4,3.8,0.5c13.2,1.8,27,3,40.5,4.3c15.3,1.4,30.6,2.6,46,3.9
								c0.6,0.1,0.9,0.3,0.8,0.5c0,0.1,0,0.2-0.1,0.3c3-0.1,6-0.1,8.9-0.4c0.7-0.1,1.6,0.1,1.5,0.4c0,0.2-0.1,0.3-0.1,0.5
								C152.8,23.9,152.6,24.2,152,24.2z"/>
							<path class="st5" d="M61,53.8c26.9,0.1,53.9-0.3,80.8-0.8c0.8,0,1.3,0.3,1.1,0.6c-0.1,0.1-0.1,0.3-0.2,0.4
								c-0.1,0.2-0.5,0.3-0.9,0.3c0,0,0,0,0,0c0,0,0,0-0.1,0c-0.1,0-0.1,0-0.2,0c-26.5,0.5-53.1,0.8-79.6,0.7
								c-16.6-0.1-33.1-0.8-49.7-1.2c-14.2-0.3-28.4-0.6-42.6-0.7c-0.7,0-1.1-0.2-1.2-0.5c0-0.1,0-0.2-0.1-0.3
								c-0.1-0.3,0.6-0.5,1.2-0.5C-16.5,52-2.7,52.2,11,52.6C27.7,52.9,44.3,53.7,61,53.8z"/>
							<path class="st5" d="M-31.6,60.7c0-0.2,0.4-0.4,0.9-0.5c15.3-2.7,32.2-4.4,48.7-4.8c7.6-0.2,15.2,0.1,22.8,0.2
								c7.9,0.1,15.9,0.1,23.8,0.1c25.8,0.1,51.6,0,77.4-0.1c0.8,0,1.3,0.3,1.2,0.6c-0.1,0.1-0.2,0.3-0.2,0.4
								c-0.1,0.1-0.2,0.2-0.4,0.3c-0.2,0.1-0.4,0.1-0.7,0.1c-25.3,0.1-50.5,0.1-75.7,0c-14.9-0.1-29.8-0.5-44.6-0.4
								c-17.3,0.1-35.5,2.1-51.4,4.9c-0.7,0.1-1.5-0.2-1.5-0.4C-31.6,61-31.6,60.9-31.6,60.7z"/>
						</g>
					</g>
				</g>
			</g>
			<g>
				
					<ellipse transform="matrix(4.919866e-003 -1 1 4.919866e-003 57.9761 92.3828)" class="st34" cx="75.4" cy="17.1" rx="2.3" ry="2.3"/>
				
					<ellipse transform="matrix(5.145772e-003 -1 1 5.145772e-003 37.6615 112.376)" class="st34" cx="75.3" cy="37.3" rx="2.3" ry="2.3"/>
			</g>
		</g>
		<g>
			<g>
				<path class="st35" d="M49.6,27.1c0.2,2.5-0.3,4.7-1.8,6.6c-1.2,1.7-3.1,2.8-5.6,3.1c-0.5,0.1-1.8,0.2-4,0.4
					c-0.4,0-1,0.1-1.9,0.1c-0.8,0.1-1.4,0.1-1.9,0.1c-0.2,0-0.4-0.1-0.4-0.3c-0.1-0.9-0.2-2.3-0.3-4.2c-0.1-1.8-0.2-3.2-0.3-4.2
					c-0.1-1-0.3-2.4-0.5-4.3c-0.3-1.9-0.4-3.3-0.5-4.3c0-0.2,0.1-0.3,0.3-0.3c0.6-0.1,1.6-0.3,2.9-0.4c2.6-0.2,4.2-0.4,5-0.4
					c2,0,3.6,0.4,4.8,1.1c1.1,0.6,2.1,1.6,2.8,2.9C49.1,24.5,49.5,25.8,49.6,27.1z M44.8,27.6c-0.1-1.4-0.7-2.5-1.6-3.3
					c-0.9-0.8-2.1-1.2-3.5-1.1c-1.3,0.1-1.9,0.4-1.9,0.7c0,0.5,0.1,1.2,0.2,2.2c0.1,1,0.1,1.7,0.2,2.2c0,0.5,0.1,1.2,0.2,2.2
					c0.1,1,0.2,1.7,0.2,2.2c0,0.4,0.7,0.5,2.1,0.3c1.4-0.1,2.5-0.7,3.3-1.8C44.7,30.3,45,29.1,44.8,27.6z"/>
				<path class="st35" d="M55.9,20.3c0.1,1.5-0.6,2.3-2.2,2.4c-0.7,0.1-1.3-0.1-1.8-0.4c-0.5-0.4-0.8-0.9-0.9-1.6
					c-0.1-0.7,0.1-1.2,0.6-1.7c0.4-0.4,1-0.7,1.7-0.7c0.7-0.1,1.2,0.1,1.7,0.4C55.5,19.1,55.8,19.7,55.9,20.3z M56.4,29.6
					c0.1,0.6,0.2,1.5,0.3,2.7s0.2,2.1,0.3,2.7c0,0.2-0.1,0.3-0.3,0.3c-0.3,0.1-0.9,0.2-1.9,0.3c-1,0.1-1.6,0.1-1.9,0.1
					c-0.2,0-0.3-0.1-0.4-0.1c0,0,0-0.2-0.1-0.4c-0.1-0.6-0.1-1.4-0.2-2.6c-0.1-1.2-0.2-2-0.2-2.6c-0.2-2.4-0.5-4.3-0.8-5.6
					c0-0.1,0-0.2,0-0.3c0-0.2,0.1-0.3,0.3-0.3c0.2,0,0.6,0,1.1,0c0.5,0,0.8,0,1.1,0s0.6-0.1,1.1-0.2c0.5-0.1,0.8-0.1,1.1-0.2
					c0.2,0,0.3,0.1,0.3,0.2c0,0,0,0.1,0,0.2C56.1,25.6,56.2,27.5,56.4,29.6z"/>
				<path class="st35" d="M65.8,24.3c0,0.1,0,0.2-0.2,0.4c-0.2,0-0.5,0-0.7,0c-0.5,0-0.9,0.2-1.2,0.4c-0.4,0.3-0.5,0.7-0.5,1.1
					c0,0.3,0.3,0.6,0.7,1.1c0.7,0.6,1.1,1,1.3,1.3c0.5,0.6,0.8,1.3,0.8,2c0,0.4,0,0.9-0.1,1.4c-0.1,0.5-0.3,1-0.6,1.2
					c-0.6,0.6-1.2,1.1-2,1.6c-0.9,0.5-1.7,0.7-2.4,0.8c-0.2,0-0.6-0.4-1.3-1.3c-0.7-0.9-1-1.4-1-1.6c0-0.1,0-0.1,0.1-0.2
					c0.6-0.2,1.2-0.3,1.7-0.5c0.7-0.3,1-0.7,1-1.3c0-0.4-0.3-0.8-0.8-1.2c-0.8-0.8-1.3-1.2-1.3-1.2c-0.5-0.6-0.8-1.2-0.8-1.8
					c-0.1-1.3,0.4-2.4,1.6-3.4c1.1-0.9,2.2-1.4,3.5-1.5c0.1,0,0.5,0.4,1.1,1.3C65.4,23.7,65.7,24.2,65.8,24.3z"/>
				<path class="st35" d="M79.4,26.4c0.1,0.8-0.1,1.4-0.7,1.5c-0.1,0-0.9,0.2-2.6,0.5c-1,0.2-2.4,0.5-4.4,0.8
					c0.2,0.5,0.6,0.9,1.2,1.1c0.5,0.2,1.1,0.3,1.7,0.2c0.7-0.1,1.5-0.3,2.2-0.8c0.3-0.2,0.6-0.5,0.9-0.7c0.2,0.1,0.5,0.5,1,1.2
					c0.5,0.7,0.7,1.2,0.8,1.4c0,0.1,0,0.2-0.2,0.3c-0.9,1.2-2.4,1.9-4.6,2.1c-2,0.2-3.6-0.2-5-1.3c-1.4-1.1-2.1-2.6-2.3-4.5
					c-0.2-1.9,0.2-3.6,1.2-4.9c1-1.4,2.5-2.2,4.4-2.3c1.6-0.2,3,0.3,4.3,1.4C78.5,23.4,79.2,24.7,79.4,26.4z M74.9,26
					c0-0.5-0.3-1-0.7-1.3c-0.4-0.4-0.9-0.5-1.4-0.5c-0.5,0.1-0.9,0.3-1.2,0.8c-0.3,0.4-0.4,0.9-0.3,1.5c0,0.2,0.1,0.3,0.4,0.3
					c0.6-0.1,1.6-0.2,2.9-0.6C74.8,26.2,74.9,26.1,74.9,26z"/>
				<path class="st35" d="M93.8,31.5c0,0.2-0.1,0.4-0.3,0.4c-0.2,0.1-0.8,0.1-1.8,0.2c-1.1,0.1-1.7,0.1-2,0.1
					c-0.3,0-0.4-0.2-0.4-0.5c0-0.4-0.1-1-0.1-1.8c-0.1-0.8-0.1-1.4-0.1-1.8c0-0.3-0.1-0.8-0.2-1.4s-0.1-1.1-0.2-1.4
					c-0.1-1.1-0.7-1.7-1.7-1.6c-0.3,0-0.7,0.2-1.1,0.5c-0.4,0.4-0.6,0.7-0.6,1l0.7,6.8c0,0.3-0.1,0.4-0.3,0.5
					c-0.3,0.1-0.9,0.1-1.8,0.2c-1,0.1-1.6,0.1-1.9,0.1c-0.3,0-0.4-0.1-0.4-0.4c-0.1-0.7-0.2-1.6-0.3-2.9c-0.1-1.3-0.2-2.3-0.3-3
					c-0.2-2.1-0.5-3.7-1-4.9c0-0.1,0-0.1,0-0.2c0-0.1,0-0.2,0.2-0.3c0.5-0.1,1.2-0.3,2.1-0.5c1.3-0.4,2-0.6,2.2-0.6
					c0.1,0,0.2,0.3,0.3,0.8c0.1,0.6,0.2,0.8,0.3,0.8c-0.1,0,0.3-0.3,1.3-1c0.9-0.7,1.8-1.1,2.5-1.1c1.1-0.1,2,0.1,2.7,0.5
					c0.8,0.5,1.3,1.3,1.4,2.3l0.4,4c0.1,0.5,0.1,1.4,0.2,2.4C93.7,30.1,93.8,30.9,93.8,31.5z M90.9,16.7c-0.9,1.3-2,2-3.1,2.1
					c-0.3,0-0.8-0.1-1.3-0.4c-0.5-0.3-1-0.4-1.3-0.4c-0.3,0-0.6,0.2-0.9,0.5c-0.3,0.3-0.5,0.5-0.6,0.5c-0.2-0.1-0.6-0.3-1.2-0.7
					s-0.8-0.7-0.8-0.9c0.1-0.4,0.4-0.8,1.2-1.3c0.7-0.5,1.3-0.8,1.7-0.9c0.4,0,0.8,0.1,1.4,0.3c0.6,0.3,1.1,0.4,1.4,0.3
					c0.3,0,0.6-0.2,1-0.5c0.4-0.3,0.6-0.5,0.7-0.5c0.1,0,0.4,0.3,1,0.8c0.5,0.5,0.8,0.9,0.8,1L90.9,16.7z"/>
				<path class="st35" d="M107.4,24.3c0.2,1.9-0.3,3.5-1.3,4.8c-1,1.3-2.5,2-4.4,2.2c-1.8,0.2-3.4-0.3-4.7-1.3
					c-1.3-1.1-2-2.5-2.2-4.3c-0.2-1.9,0.2-3.6,1.2-4.9c1-1.3,2.5-2.1,4.4-2.3c1.9-0.2,3.5,0.3,4.8,1.3S107.2,22.4,107.4,24.3z
					 M103.3,24.7c-0.1-0.7-0.3-1.2-0.8-1.7c-0.5-0.5-1-0.7-1.7-0.6c-0.7,0.1-1.2,0.4-1.6,0.9c-0.4,0.5-0.5,1.1-0.4,1.8
					c0.1,0.7,0.3,1.2,0.8,1.7c0.5,0.5,1,0.7,1.7,0.6c0.7-0.1,1.2-0.4,1.5-0.9C103.2,26,103.4,25.4,103.3,24.7z"/>
			</g>
		</g>
	</g>
</g>
</svg>
