<?xml version="1.0" encoding="UTF-8"?>
<svg xmlns="http://www.w3.org/2000/svg" width="200" height="200" version="1.1" viewBox="0 0 200 200">
  <defs>
    <style>
      .cls-1 {
        fill: #8e5b4b;
      }

      .cls-2 {
        fill: #724439;
      }
    </style>
  </defs>
  <!-- Generator: Adobe Illustrator 28.7.1, SVG Export Plug-In . SVG Version: 1.2.0 Build 142)  -->
  <g>
    <g id="Capa_6">
      <g>
        <path class="cls-1" d="M115.5,114.2c-.8,0-1.5-.3-2.1-.9-1.2-1.2-1.2-3.1,0-4.3l32.4-32.4c2.1-2.2,5-3.3,8-3.3s5.9,1.2,8.1,3.3c2.1,2.1,5.5,2.1,7.6,0l15.4-15.4c1.2-1.2,3.1-1.2,4.3,0,1.2,1.2,1.2,3.1,0,4.3l-15.4,15.4c-2.2,2.2-5,3.3-8,3.3s-5.9-1.2-8.1-3.3c-2-2-5.6-2-7.6,0l-32.4,32.4c-.6.6-1.4.9-2.1.9Z"/>
        <path class="cls-2" d="M165.4,139.9c-1-10.7-6.7-20.2-15.5-26.3l-21.9-14.9c-8.2-5.6-15.2-12.5-20.7-20.7l-14.9-21.9c-6-8.9-15.6-14.5-26.3-15.5-10.6-1-21.1,2.8-28.7,10.3-7.6,7.6-11.3,18-10.3,28.7s6.7,20.2,15.5,26.2l21.9,14.9c8.2,5.6,15.2,12.5,20.7,20.7l14.9,21.9c6,8.9,15.6,14.5,26.3,15.5,10.7,1,21.1-2.8,28.7-10.3,7.6-7.6,11.3-18,10.3-28.7ZM140.7,154.3c-6.9,6.9-18.4,5.8-23.9-2.3l-14.9-21.9c-7-10.3-15.8-19.1-26.1-26.1l-21.9-14.9c-8.1-5.5-9.2-17-2.3-23.9,6.9-6.9,18.4-5.8,23.9,2.3l14.9,21.9c7,10.3,15.8,19.1,26.1,26.1l21.9,14.9c8.1,5.5,9.2,17,2.3,23.9Z"/>
        <path class="cls-1" d="M155.3,140.8c-.7-7.7-4.8-14.5-11.2-18.8l-21.9-14.9c-9.3-6.3-17.1-14.2-23.4-23.4l-14.9-21.9c-4.3-6.3-11.2-10.4-18.8-11.1s-15.1,2-20.6,7.4c-5.4,5.4-8.1,12.9-7.4,20.6.7,7.7,4.8,14.5,11.1,18.8l21.9,14.9c9.3,6.3,17.1,14.2,23.4,23.4l14.9,21.9c4.3,6.3,11.2,10.4,18.8,11.1s15.1-2,20.6-7.4c5.4-5.4,8.1-12.9,7.4-20.6ZM140.7,154.3c-6.9,6.9-18.4,5.8-23.9-2.3l-14.9-21.9c-7-10.3-15.8-19.1-26.1-26.1l-21.9-14.9c-8.1-5.5-9.2-17-2.3-23.9,6.9-6.9,18.4-5.8,23.9,2.3l14.9,21.9c7,10.3,15.8,19.1,26.1,26.1l21.9,14.9c8.1,5.5,9.2,17,2.3,23.9Z"/>
        <path class="cls-2" d="M132.3,98.2l-47.7,47.7c-2.3,2.3-5.9,2.3-8.2,0-2.3-2.3-2.3-5.9,0-8.2l47.7-47.7c2.3-2.3,5.9-2.3,8.2,0,2.3,2.3,2.3,5.9,0,8.2Z"/>
        <path class="cls-1" d="M124.1,90l-47.7,47.7c-2.3,2.3-5.9,2.3-8.2,0-2.3-2.3-2.3-5.9,0-8.2l47.7-47.7c2.3-2.3,5.9-2.3,8.2,0,2.3,2.3,2.3,5.9,0,8.2Z"/>
        <path class="cls-2" d="M115.9,81.8l-47.7,47.7c-2.3,2.3-5.9,2.3-8.2,0-2.3-2.3-2.3-5.9,0-8.2l47.7-47.7c2.3-2.3,5.9-2.3,8.2,0s2.3,5.9,0,8.2Z"/>
      </g>
    </g>
  </g>
</svg>