<?xml version="1.0" encoding="UTF-8"?>
<svg xmlns="http://www.w3.org/2000/svg" width="200" height="200" version="1.1" viewBox="0 0 200 200">
  <defs>
    <style>
      .cls-1 {
        fill: #ea6d2a;
      }

      .cls-2 {
        fill: #e69336;
      }

      .cls-3 {
        fill: #87c4bc;
      }

      .cls-4 {
        fill: #ce561f;
      }

      .cls-5 {
        fill: #b1dbd7;
      }
    </style>
  </defs>
  <!-- Generator: Adobe Illustrator 28.7.1, SVG Export Plug-In . SVG Version: 1.2.0 Build 142)  -->
  <g>
    <g id="Capa_6">
      <g>
        <rect class="cls-4" x="56.3" y="52.7" width="12.6" height="3.9"/>
        <g>
          <polygon class="cls-5" points="107 57.5 100 58.8 93 57.5 93 60 72 63.9 72.6 67.9 79.7 114.9 120.3 114.9 126.4 74.7 128 63.9 107 60 107 57.5"/>
          <path class="cls-3" d="M107,57.5l-7,1.3-7-1.3v2.5l-21,3.8.6,4.1c9.1,0,44.7,0,53.7,6.8l1.6-10.8-21-3.8v-2.5Z"/>
          <rect class="cls-4" x="130.1" y="52.7" width="12.6" height="3.9"/>
          <path class="cls-1" d="M128,23.5h-56c-.1,0-.3,0-.4,0-16.2.3-16.4,15.4-16.4,15.4v18.2h4.9s0-1.5-.3-14.6c-.3-11.6,10.5-12.9,12.9-13,.3,0,.5,0,.5,0h53.5s13.7,0,13.4,13c-.3,13-.3,14.6-.3,14.6h4.9v-18.2s-.1-15.4-16.8-15.4Z"/>
          <path class="cls-1" d="M131.2,157.9h-62.5c-6.2,0-11.2,4.7-11.2,10.6,0,0,0,2.5,0,2.5.1,1.4,4,2.6,10.3,3.6,5.9.9,14,1.5,23.3,1.7,2.7,0,5.5.1,8.4.1,10.1,0,19.3-.5,26.6-1.3,8.2-.9,14-2.2,15.6-3.6.3-.2.5-.5.5-.8v-2.3c0-5.8-5-10.6-11.2-10.6Z"/>
          <path class="cls-2" d="M119.3,112.4h-38.7c-7.9,0-14.4,6.6-14.4,14.8v30.9h0c.5.6,2.6,1.1,6,1.5,4.8.6,12.1,1.1,20.6,1.2,2.2,0,4.6,0,7,0,6.7,0,13-.2,18.2-.5,6.9-.4,12.1-1,14.3-1.8.6-.2.9-.4,1.1-.6,0,0,0,0,.1,0v-30.9c0-8.2-6.4-14.8-14.4-14.8Z"/>
          <path class="cls-1" d="M130.8,45.9c0,0-.1,0-.2,0h-61.2c-2.2,0-3.9,2-3.6,4.2l1.9,12c0,.1,0,.3,0,.4.4,1.6,1.9,2.7,3.5,2.6h5.4s4.3,0,4.3,0h11.8s7.1,0,7.1,0h2.7s10.3,0,10.3,0h13c0,0,2.6,0,2.6,0,1.6,0,3.1-1.1,3.5-2.6,0-.1,0-.3,0-.4l1.9-12c.3-2.1-1.3-4.1-3.4-4.2Z"/>
          <path class="cls-4" d="M71.4,65.1h5.4s4.3,0,4.3,0h11.8s7.1,0,7.1,0h2.7s10.3,0,10.3,0h13c0,0,2.6,0,2.6,0,1.6,0,3.1-1.1,3.5-2.6h-64.3c.4,1.6,1.9,2.7,3.5,2.6Z"/>
        </g>
      </g>
    </g>
  </g>
</svg>