<?xml version="1.0" encoding="utf-8"?>
<!-- Generator: Adobe Illustrator 19.2.1, SVG Export Plug-In . SVG Version: 6.00 Build 0)  -->
<svg version="1.1" xmlns="http://www.w3.org/2000/svg" xmlns:xlink="http://www.w3.org/1999/xlink" x="0px" y="0px"
	 viewBox="0 0 899 426" style="enable-background:new 0 0 899 426;" xml:space="preserve">
<style type="text/css">
	.st0{fill:#C6B89B;}
	.st1{fill:#B2A287;}
	.st2{fill:#D88832;}
	.st3{fill:#EDB26C;}
	.st4{clip-path:url(#SVGID_2_);}
	.st5{fill:#E09637;}
	.st6{fill:none;}
	.st7{fill:#663300;}
	.st8{fill:#F2F2F2;}
	.st9{clip-path:url(#SVGID_4_);}
	.st10{clip-path:url(#SVGID_6_);}
	.st11{clip-path:url(#SVGID_8_);}
	.st12{fill:url(#SVGID_9_);}
	.st13{fill:url(#SVGID_10_);}
	.st14{display:none;fill:#95E7FC;}
	.st15{display:none;fill:#7BE1FC;}
	.st16{fill:#23AF9E;}
	.st17{fill:#00A894;}
	.st18{fill:#4BD1C1;}
	.st19{fill:#42B8AA;}
	.st20{fill:#1B8F59;}
	.st21{display:none;}
	.st22{display:inline;fill:#7BE1FC;}
	.st23{display:inline;fill:#C2C0BC;}
	.st24{display:inline;fill:#B5B3AF;}
	.st25{display:inline;fill:#D3D1CD;}
	.st26{fill:#52AF52;}
	.st27{fill:#6FCE6F;}
	.st28{fill:#472D21;}
	.st29{fill:#479947;}
	.st30{fill:#E2A561;}
	.st31{clip-path:url(#SVGID_12_);}
	.st32{fill:#D3842D;}
	.st33{clip-path:url(#SVGID_14_);}
	.st34{fill:#5E3918;}
	.st35{fill:#633001;}
	.st36{clip-path:url(#SVGID_16_);}
	.st37{clip-path:url(#SVGID_18_);}
</style>
<g id="Capa_1">
</g>
<g id="Capa_2">
	<linearGradient id="SVGID_2_" gradientUnits="userSpaceOnUse" x1="512" y1="427" x2="512" y2="-2.298748e-008">
		<stop  offset="0" style="stop-color:#FFFFFF"/>
		<stop  offset="1" style="stop-color:#C4D2EB"/>
	</linearGradient>
	<rect style="fill:url(#SVGID_2_);" width="1024" height="427"/>
	<path class="st20" d="M1046,301.3c-3.7-1.5-7.7-2.3-11.9-2.3c-11.1,0-21,5.8-27.7,14.9c-5.6-17.6-20.2-30.1-37.4-30.1
		c-21.9,0-39.7,20.5-39.8,45.9c-0.5-0.1-1-0.1-1.5-0.1c-3.3,0-6.2,1.4-8.5,3.8c-4.2-9.3-12.6-15.7-22.3-15.7c-6,0-11.5,2.5-15.9,6.5
		c-5.6-14.8-18.3-25.2-33.2-25.2c-8.9,0-17,3.7-23.3,9.8c-6.6-9.6-16.8-15.7-28.3-15.7c-16.4,0-30.2,12.6-34.7,29.8
		c-4.6-6.8-11.8-11.2-19.8-11.2c-4.6,0-8.9,1.4-12.6,3.9c-3.7-2.5-8-3.9-12.6-3.9c-8,0-15.1,4.3-19.7,11c-2-1.5-4.4-2.4-7-2.4
		c-3.8,0-7.2,2-9.5,5.1c-4.5-8.2-12.3-13.6-21.3-13.6c-6,0-11.5,2.5-15.9,6.5c-5.6-14.8-18.3-25.2-33.2-25.2
		c-20,0-36.2,18.8-36.2,41.9c0,1.8,0.1,3.5,0.3,5.2h-30.4c-2.6-12.9-12.6-22.6-24.5-22.6c-4.3,0-8.3,1.2-11.9,3.4
		c-3.2-26.3-22.7-46.6-46.4-46.6c-25.9,0-46.8,24.3-46.8,54.2c0,1.7,0.1,3.4,0.2,5c-4.1-9.5-12.6-16-22.5-16c-8,0-15.1,4.3-19.7,11
		c-2-1.5-4.4-2.4-7-2.4c-3.8,0-7.2,2-9.5,5.1c-4.5-8.2-12.3-13.6-21.3-13.6c-6,0-11.5,2.5-15.9,6.5c-5.6-14.8-18.3-25.2-33.2-25.2
		c-14.5,0-27,9.9-32.8,24.1c-4.1-3.4-9.2-5.4-14.6-5.4c-5.5,0-10.6,2.1-14.8,5.6c-5.8-14.3-18.3-24.2-32.8-24.2
		c-19.8,0-35.9,18.4-36.2,41.3h-19c-2.6-12.9-12.6-22.6-24.5-22.6c-8,0-15.1,4.3-19.7,11c-2-1.5-4.4-2.4-7-2.4c-3.8,0-7.2,2-9.5,5.1
		c-4.5-8.2-12.3-13.6-21.3-13.6c-6,0-11.5,2.5-15.9,6.5C31.8,309.3,19.1,299,4.2,299c-1.4,0-2.8,0.1-4.2,0.3v58.5h1046V301.3z"/>
	<rect y="372.5" class="st26" width="1046" height="54.5"/>
	<rect y="352.7" class="st27" width="1046" height="19.8"/>
	<rect y="399.7" class="st29" width="1046" height="27.3"/>
	<g>
		<rect x="88.6" y="152" class="st30" width="26.5" height="248.1"/>
		<g>
			<defs>
				<rect id="SVGID_11_" x="88.6" y="152" width="26.5" height="248.1"/>
			</defs>
			<clipPath id="SVGID_4_">
				<use xlink:href="#SVGID_11_"  style="overflow:visible;"/>
			</clipPath>
			<g class="st9">
				<path class="st32" d="M150.8,167.6c-0.3,0.1-0.4,0.6-0.4,1.1c0,0,0,0,0,0c0,0,0,0.1,0,0.1c0,0.1,0,0.1,0,0.2
					c-0.6,33.7-1,93.2-0.9,126.8c0.1,21.1,1,42,1.5,63c0.4,18,0.7,36,0.9,54.1c0,0.9,0.2,1.4,0.6,1.5c0.1,0,0.3,0.1,0.4,0.1
					c0.3,0.1,0.6-0.7,0.6-1.5c-0.2-17.5-0.5-35-0.9-52.5c-0.5-21.2-1.4-42.2-1.5-63.5c-0.1-34.2,0.4-94.2,1-128.3
					c0-1-0.4-1.7-0.8-1.5C151.1,167.4,150.9,167.5,150.8,167.6z"/>
				<path class="st32" d="M147.2,167.5c-0.2,0.1-0.3,0.3-0.3,0.5c-0.1,0.2-0.1,0.5-0.1,0.9c-0.1,32-0.1,89.8,0,121.9
					c0.1,18.9,0.6,37.8,0.5,56.6c-0.1,21.9-2.6,45-6.2,65.3c-0.2,0.9,0.2,1.9,0.6,1.9c0.2,0,0.4,0,0.5,0c0.3,0,0.5-0.5,0.6-1.1
					c3.4-19.4,5.5-40.9,6.1-61.8c0.2-9.6-0.1-19.3-0.2-28.9c-0.1-10.1-0.1-20.2-0.2-30.3c-0.1-32.7,0-91.2,0.1-124
					c0-1-0.4-1.7-0.8-1.5C147.6,167.3,147.4,167.4,147.2,167.5z"/>
				<path class="st32" d="M141.5,168.9c0.5,23.5,0.6,72.9,1.5,96.4c0.6,16.8,0.3,33.5-0.1,50.3c-0.9,32.6-2.9,64.8-5.1,97.1
					c-0.1,1.2,0.2,2.1,0.7,1.9c0.2-0.1,0.4-0.2,0.6-0.2c0.2-0.1,0.4-0.6,0.4-1c2.1-31.8,4-63.6,4.9-95.7c0.5-17,0.9-34.2,0.2-51.1
					c-1-23.8-1-73.6-1.5-97.5c0-0.8-0.2-1.5-0.6-1.5c-0.1,0-0.3,0-0.4,0c-0.1,0-0.3,0.1-0.4,0.2
					C141.6,167.8,141.5,168.3,141.5,168.9z"/>
				<path class="st32" d="M129.9,407c0.4-6.9,1.1-13.7,1.8-20.4c1.7-15.4,3.7-30.5,5.7-45.7c1.4-11,3.1-22.4,3.7-33.8
					c0.3-7.1,0.2-14.3,0.2-21.4c-0.3-30.6-1.6-102.2-3-132.6c0-0.9-0.3-1.2-0.6-1.1c0,0-0.1,0-0.1,0c-0.1,0-0.3,0.1-0.4,0.1
					c-0.4,0.1-0.5,1.1-0.4,1.8c1.3,28.7,2.4,98.5,2.9,127.3c0.1,7.2,0.2,14.4,0,21.6c-0.2,10.2-1.7,20.2-2.9,30
					c-1.9,15.1-3.9,30-5.7,45.1c-1.4,11.5-2.8,23.4-3.1,35.4c0,1.1,0.5,2,0.9,1.3C130,412.7,129.7,410.4,129.9,407z"/>
				<path class="st32" d="M125.8,153.4c0.9,9.6,1.8,60,2.9,69.5c0.4,3.1,1.5,18.6,3.5,18.6c3.1,0,0.6-82.7,0.4-88.5
					c0-0.6-0.3-1.2-0.6-1.1c-0.1,0-0.3,0.1-0.4,0.1c-0.3,0.1-0.7,0.6-0.6,1.5c0.4,8.4,0.7,57.8,0.9,66.2c0.1,3.5,0.1,6.9,0.2,10.4
					c0,1.5,0,3,0,4.5c0,0.1,0,0.2,0,0.3c-1-4.6-1.3-10.7-1.9-15.4c-0.9-8.6-1.8-58.2-2.6-66.9c0-0.5-0.2-0.8-0.3-1c0,0,0,0,0,0
					c0,0,0,0-0.1,0c-0.1,0-0.1-0.1-0.2-0.1c-0.2,0-0.4,0-0.6,0C126,151.5,125.7,152.5,125.8,153.4z"/>
				<path class="st32" d="M88.9,295.7c-0.1,34.2-0.8,68.4-1.6,102.6c0,1,0.4,1.7,0.7,1.5c0.2-0.1,0.3-0.2,0.5-0.3
					c0.3-0.1,0.4-0.6,0.5-1.1c0,0,0,0,0,0c0,0,0-0.1,0-0.1c0-0.1,0-0.1,0-0.2c0.8-33.6,1.4-67.4,1.5-101.1c0-21.1-0.8-42-1.2-63.1
					c-0.3-18-0.5-77-0.6-95.1c0-0.9-0.2-1.4-0.6-1.5c-0.1,0-0.3-0.1-0.4-0.1c-0.3-0.1-0.6,0.7-0.6,1.5c0.1,17.5,0.3,76,0.6,93.5
					C88.1,253.4,89,274.5,88.9,295.7z"/>
				<path class="st32" d="M97.8,138.5c-3.5,19.3-5.8,81.7-6.4,102.6c-0.3,9.6,0,19.3,0.1,28.9c0,10.1,0,20.2,0,30.3
					c-0.1,32.7-0.4,65.5-0.6,98.2c0,1,0.4,1.7,0.7,1.5c0.2-0.1,0.3-0.2,0.5-0.3c0.2-0.1,0.3-0.3,0.3-0.5c0.1-0.2,0.1-0.5,0.1-0.9
					c0.3-32,0.5-64.1,0.6-96.1c0-18.9-0.4-37.8-0.2-56.7c0.2-21.9,2.9-85.9,6.6-106.1c0.2-0.9-0.2-1.9-0.6-1.9c-0.2,0-0.4,0-0.5,0
					C98.1,137.4,97.9,137.9,97.8,138.5z"/>
				<path class="st32" d="M97.8,398.5c-0.3-23.5-0.4-47.2-1.1-70.7c-0.5-16.8-0.1-33.5,0.4-50.3c1.1-32.6,3.3-105.7,5.6-138
					c0.1-1.2-0.2-2.1-0.7-1.9c-0.2,0.1-0.4,0.1-0.6,0.2c-0.2,0.1-0.4,0.6-0.4,1c-2.3,31.7-4.3,104.5-5.5,136.5
					c-0.6,17-1.1,34.2-0.5,51.2c0.9,23.8,0.8,47.9,1.1,71.8c0,0.8,0.2,1.5,0.6,1.5c0.1,0,0.3,0,0.4,0c0.1,0,0.3-0.1,0.4-0.2
					C97.7,399.5,97.8,399.1,97.8,398.5z"/>
				<path class="st32" d="M110.6,145.3c-0.4,6.9-1.2,54.6-2,61.3c-1.8,15.4-3.9,30.5-6,45.6c-1.5,11-3.2,22.3-3.9,33.8
					c-0.4,7.1-0.3,14.3-0.3,21.4c0.2,30.6,1.2,61.3,2.5,91.7c0,0.9,0.3,1.2,0.6,1.1c0,0,0.1,0,0.1,0c0.1,0,0.3-0.1,0.4-0.1
					c0.4-0.1,0.5-1.1,0.5-1.8c-1.1-28.7-2.1-57.5-2.4-86.4c-0.1-7.2-0.1-14.4,0.1-21.6c0.3-10.2,1.8-20.2,3.1-29.9
					c2-15,4.1-29.9,6-45c1.4-11.5,2.9-64.3,3.3-76.3c0-1.1-0.5-2-0.9-1.3C110.6,139.7,110.8,141.9,110.6,145.3z"/>
				<path class="st32" d="M116.1,399.8c0.5-7.1-0.8-15.4-1.3-22.2c-1.4-17.5-2.8-34.9-4.3-52.4c-1-11.1-2-22.2-3.2-33.1
					c-0.4-3.8-0.9-7.9-1.7-11.5c-0.2-0.9-0.6-2.4-1.1-2.3c-1.8,0.3-1.7,9.9-1.8,13c-0.6,19.6-0.2,39.4,0,58.9
					c0.2,16.2,0.5,32.3,0.8,48.5c0,0.8,0.2,1.5,0.6,1.5c0.1,0,0.3,0,0.4,0c0.3,0,0.7-0.7,0.6-1.5c-0.7-32.5-1.3-65.2-1-97.8
					c0-3.6,0.1-7.1,0.2-10.7c0-1.4,0.1-2.7,0.2-4.1c0-0.6,0.1-1,0.1-1.4c0.3,1.7,0.5,3.9,0.7,4.9c2.2,16.8,3.6,34.3,5.1,51.6
					c1.7,19.4,3.1,38.9,4.6,58.5c0.1,0.8,0.3,1.1,0.6,1.1C115.7,400.9,116,400.6,116.1,399.8z"/>
				<path class="st32" d="M111.8,399.8c0,0.5,0.2,0.8,0.3,1c0,0,0,0,0,0c0,0,0,0,0.1,0c0.1,0,0.1,0.1,0.2,0.1c0.2,0,0.4,0,0.6,0
					c0.4,0,0.7-0.9,0.6-1.9c-0.8-9.6-1.7-19.1-2.8-28.6c-0.3-3.1-1.4-18.6-3.4-18.7c-3.1-0.1-0.9,41.8-0.6,47.5
					c0,0.6,0.3,1.2,0.6,1.1c0.1,0,0.3-0.1,0.4-0.1c0.3-0.1,0.7-0.6,0.6-1.5c-0.3-8.4-0.6-16.8-0.7-25.3c-0.1-3.5-0.1-6.9-0.1-10.4
					c0-1.5,0-3,0.1-4.5c0-0.1,0-0.2,0-0.3c0.9,4.6,1.3,10.8,1.8,15.4C110.3,382.4,111.1,391.1,111.8,399.8z"/>
				<path class="st32" d="M113.8,148.4c-0.6,8.3-1.3,57.4-2,65.6c-1.4,15.5-4.3,31.2-3.6,47.1c0.4,9.6,1.4,19,2.3,28.4
					c1.1,11.4,2,22.9,2.9,34.3c0.8,9.8,1.5,19.6,2.3,29.4c0.3,3.4,0.3,7.6,0.8,10.9c0,0.3,0.1,0.6,0.1,0.8c0.3,0.9,1,0.5,1.1-0.7
					c-0.2,10.1-0.3,20.1-0.6,30.2c-0.1,5.7-0.1,11.9-0.5,17.5c-0.1,0.8,0.1,2,0.6,1.9c0.2-0.1,0.4-0.1,0.6-0.2
					c0.3-0.1,0.5-0.4,0.6-1.1c0.4-5.5,0.4-11.3,0.5-16.9c0.2-11,0.3-22,0.5-32.9c0.2-16.3,0.3-32.7,0.5-49c0-0.7-0.1-1.2-0.3-1.4
					c-0.3-6.8-1.2-13.7-1.6-20.2c-0.5-7.8-1-15.7-1.4-23.6c-0.3-5.1-0.6-10.3-0.2-15.4c1.5-24.1,2.6-89.2,3.8-113.4
					c0-1-0.4-1.7-0.7-1.5c-0.2,0.1-0.4,0.2-0.5,0.3c-0.3,0.1-0.4,0.8-0.5,1.4c-1.2,23.9-2.2,88.8-3.6,112.6
					c-0.7,11.6,0.6,24.4,1.4,35.7c0.7,11.1,1.5,22.2,2.3,33.3c-0.2,12.5-0.4,25-0.6,37.6c-0.1-7.9-1.1-15.8-1.7-23.4
					c-1.8-21.8-3.8-43.5-5.6-65.3c-0.7-8.7-1-17.4-0.2-26.2c0.7-7.8,1.8-15.4,2.6-23.2c1.3-13.3,2.9-68.3,3.2-81.9
					c0-1.4-0.6-1.9-1-1.1C113.8,140.2,114.1,145.2,113.8,148.4z"/>
				<path class="st32" d="M122.2,139.9c-0.5,5.5-0.4,11.3-0.6,16.9c-0.3,11-0.5,62.9-0.7,73.9c-0.2,13.4-0.4,26.8-0.6,40.3
					c0,0.1,0,0.1,0,0.2c0,0,0,0,0,0c0,0.1,0,0.2,0,0.2c0,0,0,0,0,0.1c0,0.1,0,0.1,0,0.2c0,0.1,0,0.1,0,0.2c-0.1,2.1-0.1,4.2,0,6.3
					c0,0.6,0,1.1,0,1.7c0,0.5,0.1,0.8,0.1,1c0.4,6.9,1.2,13.9,1.7,20.4c0.6,7.8,1.1,15.6,1.6,23.5c0.3,5.1,0.6,10.2,0.3,15.4
					c-1.3,24.1-2.3,48.3-3.4,72.5c0,1,0.4,1.7,0.8,1.5c0.2-0.1,0.4-0.2,0.5-0.3c0.3-0.2,0.4-0.8,0.5-1.4c1-23.9,2-47.8,3.2-71.7
					c0.6-11.6-0.8-24.4-1.6-35.6c-0.7-10.3-1.5-20.6-2.3-30.8c0-0.5,0-1.1,0.1-1.6c0.2-9.7,0.4-19.3,0.6-29c0.4,4.7,1,9.5,1.4,14.1
					c1.9,21.8,4.1,43.4,6,65.2c0.8,8.7,1.1,17.3,0.3,26.2c-0.7,7.8-1.7,15.5-2.5,23.3c-1.2,13.3-2.7,27.4-3,41c0,1.4,0.6,1.8,1,1.1
					c1.1-2.2,0.9-7.1,1.1-10.4c0.5-8.3,1.2-16.5,1.9-24.7c1.3-15.5,4.1-31.3,3.3-47.2c-0.5-9.6-1.5-19-2.4-28.4
					c-1.1-11.4-2.1-22.8-3.1-34.3c-0.8-9.8-1.6-19.6-2.4-29.4c-0.3-3.4-0.4-7.6-0.9-10.9c0-0.3-0.1-0.6-0.1-0.8
					c-0.1-0.2-0.2-0.3-0.3-0.4c0.2-9,0.4-58.9,0.6-67.9c0.3,5,1,51.2,1.4,55.7c1.5,17.4,3,34.9,4.6,52.2c1,11.1,2.1,22.2,3.4,33
					c0.5,3.8,0.9,7.9,1.7,11.4c0.2,0.9,0.6,2.3,1.1,2.2c1.8-0.4,1.6-9.9,1.7-13c0.4-19.6,0-39.4-0.4-58.9
					c-0.3-16.2-0.7-73.3-1.1-89.4c0-0.8-0.2-1.5-0.6-1.5c-0.1,0-0.3,0-0.4,0c-0.3,0-0.6,0.7-0.6,1.5c0.9,32.5,1.7,106.1,1.6,138.8
					c0,3.6-0.1,7.1-0.1,10.7c0,1.4-0.1,2.7-0.1,4.1c0,0.6-0.1,1-0.1,1.4c-0.3-1.7-0.5-3.9-0.7-4.9c-2.3-16.7-3.8-34.2-5.4-51.4
					c-1.8-19.4-3.4-79.8-4.9-99.3c-0.1-0.8-0.3-1.1-0.6-1.1c-0.1,0-0.3,0-0.4,0.2c0.1-3.8,0.2-7.6,0.5-11.3c0.1-0.8-0.1-2-0.6-1.9
					c-0.2,0.1-0.4,0.1-0.6,0.2C122.6,138.9,122.3,139.2,122.2,139.9z"/>
				<path class="st32" d="M84.7,296.4c-0.1-34.2,0.4-109.4,1-143.6c0-1-0.4-1.7-0.8-1.5c-0.2,0.1-0.3,0.2-0.5,0.3
					c-0.3,0.1-0.4,0.6-0.4,1.1c0,0,0,0,0,0c0,0,0,0.1,0,0.1c0,0.1,0,0.1,0,0.2c-0.6,33.7-1,108.4-0.9,142c0.1,21.1,1,42,1.5,63
					c0.4,18,0.7,36,0.9,54.1c0,0.9,0.2,1.4,0.6,1.5c0.1,0,0.3,0.1,0.4,0.1c0.3,0.1,0.6-0.7,0.6-1.5c-0.2-17.5-0.5-35-0.9-52.5
					C85.8,338.6,84.8,317.6,84.7,296.4z"/>
				<path class="st32" d="M75.9,413.9c0.3,0,0.5-0.5,0.6-1.1c3.4-19.4,5.5-40.9,6.1-61.8c0.2-9.6-0.2-19.3-0.2-28.9
					c-0.1-10.1-0.1-20.2-0.2-30.3c-0.1-32.7,0-106.4,0.1-139.2c0-1-0.4-1.7-0.8-1.5c-0.2,0.1-0.3,0.2-0.5,0.3
					c-0.2,0.1-0.3,0.3-0.3,0.5c-0.1,0.2-0.1,0.5-0.1,0.9c-0.1,32-0.1,105.1,0,137.1c0.1,18.9,0.6,37.8,0.5,56.6
					c-0.1,21.9-2.6,45-6.2,65.3c-0.2,0.9,0.2,1.9,0.6,1.9C75.5,413.9,75.7,413.9,75.9,413.9z"/>
				<path class="st32" d="M73.2,412.5c2.1-31.8,4-63.6,4.9-95.7c0.5-17,0.9-34.2,0.2-51.2c-1-23.8-1-88.8-1.5-112.7
					c0-0.8-0.2-1.5-0.6-1.5c-0.1,0-0.3,0-0.4,0c-0.1,0-0.3,0.1-0.4,0.2c-0.2,0.2-0.3,0.6-0.3,1.2c0.5,23.5,0.6,88.1,1.5,111.6
					c0.6,16.8,0.3,33.5-0.1,50.3c-0.9,32.6-2.9,64.8-5.1,97.1c-0.1,1.2,0.2,2.1,0.7,1.9c0.2-0.1,0.4-0.2,0.6-0.2
					C73,413.5,73.2,412.9,73.2,412.5z"/>
				<path class="st32" d="M63.6,406.3c0.4-6.9,1.1-13.7,1.8-20.4c1.7-15.4,3.7-30.5,5.7-45.7c1.4-11,3.1-22.4,3.7-33.8
					c0.3-7.1,0.2-14.3,0.2-21.4c-0.3-30.6-1.6-102.2-3-132.6c0-0.9-0.3-1.2-0.6-1.1c0,0-0.1,0-0.1,0c-0.1,0-0.3,0.1-0.4,0.1
					c-0.4,0.1-0.5,1.1-0.4,1.8c1.3,28.7,2.4,98.5,2.9,127.3c0.1,7.2,0.2,14.4,0,21.6c-0.2,10.2-1.7,20.2-2.9,30
					c-1.9,15.1-3.9,30-5.7,45.1c-1.4,11.5-2.8,23.4-3.1,35.4c0,1.1,0.5,2,0.9,1.3C63.7,411.9,63.5,409.6,63.6,406.3z"/>
				<path class="st32" d="M66.5,300.4c0.5,3.8,0.9,7.9,1.7,11.4c0.2,0.9,0.6,2.3,1.1,2.2c1.8-0.4,1.6-9.9,1.7-13
					c0.4-19.6,0-39.4-0.4-58.9c-0.3-16.2-0.7-73.3-1.1-89.4c0-0.8-0.2-1.5-0.6-1.5c-0.1,0-0.3,0-0.4,0c-0.3,0-0.6,0.7-0.6,1.5
					c0.9,32.5,1.7,106.1,1.6,138.8c0,3.6-0.1,7.1-0.1,10.7c0,1.4-0.1,2.7-0.1,4.1c0,0.6-0.1,1-0.1,1.4c-0.3-1.7-0.5-3.9-0.7-4.9
					c-2.3-16.7-3.8-34.2-5.4-51.4c-1.8-19.4-3.4-64.6-4.9-84.1c-0.1-0.8-0.3-1.1-0.6-1.1c-0.3-0.1-0.5,0.2-0.6,1.1
					c-0.5,7.1,0.9,41.1,1.5,47.9c1.5,17.4,3,34.9,4.6,52.2C64.1,278.5,65.1,289.6,66.5,300.4z"/>
				<path class="st32" d="M59.5,167.9c-0.5-5.5,0.1,29.8,2.9,54.2c0.4,3.1,1.5,18.6,3.5,18.6c3.1,0,0.6-82.7,0.4-88.5
					c0-0.6-0.3-1.2-0.6-1.1c-0.1,0-0.3,0.1-0.4,0.1c-0.3,0.1-0.7,0.6-0.6,1.5c0.4,8.4,0.7,57.8,0.9,66.2c0.1,3.5,0.1,6.9,0.2,10.4
					c0,1.5,0,3,0,4.5c0,0.1,0,0.2,0,0.3c-1-4.6-1.4-10.7-1.9-15.4c-0.9-8.6-1.8-58.2-2.6-66.9c0-0.5-0.2-0.8-0.3-1c0,0,0,0,0,0
					c0,0,0,0-0.1,0c-0.1,0-0.1-0.1-0.2-0.1c-0.2,0-0.4,0-0.6,0C59.7,150.8,59.4,167,59.5,167.9z"/>
				<path class="st32" d="M60.4,403.2c0.5-8.3,1.2-16.5,1.9-24.7c1.3-15.5,4.1-31.3,3.3-47.2c-0.5-9.6-1.5-19-2.4-28.4
					c-1.1-11.4-2.1-22.8-3.1-34.3c-0.8-9.8-1.6-19.6-2.4-29.4c-0.3-3.4-0.4-7.6-0.9-10.9c0-0.3-0.1-0.6-0.2-0.8
					c-0.3-1-1.1-0.4-1.1,1c0,0,0,0.1,0,0.1c-0.4,9.4,1,19,1.8,28.1c1.9,21.8,4.1,43.4,6,65.2c0.8,8.7,1.1,17.3,0.3,26.2
					c-0.7,7.8-1.7,15.5-2.5,23.3c-1.2,13.3-2.7,27.4-3,41c0,1.4,0.6,1.8,1,1.1C60.4,411.4,60.2,406.5,60.4,403.2z"/>
				<path class="st32" d="M55.6,413c0.3-0.2,0.4-0.8,0.5-1.4c1-23.9,2-47.8,3.2-71.7c0.6-11.6-0.8-24.4-1.6-35.6
					c-0.8-11.2-1.6-22.3-2.5-33.4c0-0.4-0.1-0.8-0.2-1c-0.2-0.5-0.6-0.4-0.8,0.1c0,0,0,0,0,0c0,0.1-0.1,0.1-0.1,0.2c0,0,0,0,0,0
					c0,0.1,0,0.1-0.1,0.2c0,0,0,0,0,0c0,0.1,0,0.2,0,0.2c0,0,0,0,0,0.1c0,0.1,0,0.1,0,0.2c0,0.1,0,0.1,0,0.2
					c-0.4,9.7,1.1,20,1.8,29.5c0.6,7.8,1.1,15.6,1.6,23.5c0.3,5.1,0.6,10.2,0.3,15.4c-1.3,24.1-2.3,48.3-3.4,72.5
					c0,1,0.4,1.7,0.8,1.5C55.2,413.2,55.4,413.1,55.6,413z"/>
				<path class="st32" d="M52.1,411.9c0.4-5.5,0.4-11.3,0.5-16.9c0.2-11,0.3-22,0.5-32.9c0.2-16.3,0.3-32.7,0.5-49
					c0-2-1.1-1.9-1.2,0c-0.1,2.4-0.2,4.8-0.3,7.2c-0.2,14.3-0.4,28.5-0.6,42.8c-0.2,10.3-0.3,20.5-0.6,30.8
					c-0.1,5.7-0.1,11.8-0.5,17.5c-0.1,0.9,0.1,2,0.6,1.9c0.2-0.1,0.4-0.1,0.6-0.2C51.7,413,52,412.6,52.1,411.9z"/>
			</g>
		</g>
	</g>
</g>
</svg>
