<?xml version="1.0" encoding="UTF-8"?>
<svg xmlns="http://www.w3.org/2000/svg" width="200" height="200" version="1.1" viewBox="0 0 200 200">
  <defs>
    <style>
      .cls-1 {
        fill: #822735;
      }

      .cls-2 {
        fill: #214344;
      }

      .cls-3 {
        fill: #f2c051;
      }

      .cls-4 {
        fill: #e5ae41;
      }
    </style>
  </defs>
  <!-- Generator: Adobe Illustrator 28.7.1, SVG Export Plug-In . SVG Version: 1.2.0 Build 142)  -->
  <g>
    <g id="Capa_6">
      <g>
        <path class="cls-2" d="M53.8,46.5h41.5c2.8,0,5,2.2,5,5v83.9h-51.5V51.5c0-2.8,2.2-5,5-5Z"/>
        <path class="cls-2" d="M151.2,136.4c-2.9-18.9-19.3-33.5-39-33.5s-36.1,14.5-39,33.5"/>
        <path class="cls-4" d="M84,70.8h16.3v7.7h-16.3c-2.1,0-3.8-1.7-3.8-3.8h0c0-2.1,1.7-3.8,3.8-3.8Z"/>
        <path class="cls-4" d="M84,87.4h16.3v7.7h-16.3c-2.1,0-3.8-1.7-3.8-3.8h0c0-2.1,1.7-3.8,3.8-3.8Z"/>
        <path class="cls-1" d="M150.7,135.4H48.8v15.2c0,1.7,1.3,3,3,3h16.2c1.1,0,2.1-.6,2.6-1.5l1.2-2.1c.8-1.3,2.7-1.3,3.5,0l1.2,2.1c.5.9,1.5,1.5,2.6,1.5h19c1.1,0,2.1-.6,2.6-1.5l1.2-2.1c.8-1.3,2.7-1.3,3.5,0l1.2,2.1c.5.9,1.5,1.5,2.6,1.5h19c1.1,0,2.1-.6,2.6-1.5l1.2-2.1c.8-1.3,2.7-1.3,3.5,0l1.2,2.1c.5.9,1.5,1.5,2.6,1.5h9.2c1.7,0,3-1.3,3-3v-14.7c0-.3-.2-.5-.5-.5Z"/>
        <g>
          <path class="cls-3" d="M144.4,125.7c0,2.1-1.7,3.8-3.8,3.8s-3.8-1.7-3.8-3.8,1.7-3.8,3.8-3.8,3.8,1.7,3.8,3.8Z"/>
          <path class="cls-3" d="M134.5,125.7c0,2.1-1.7,3.8-3.8,3.8s-3.8-1.7-3.8-3.8,1.7-3.8,3.8-3.8,3.8,1.7,3.8,3.8Z"/>
        </g>
        <polygon class="cls-4" points="64.9 135.4 64.9 46.5 64.9 46.5 60.9 46.5 60.9 46.5 60.9 135.4 64.9 135.4"/>
      </g>
    </g>
  </g>
</svg>