<?xml version="1.0" encoding="UTF-8"?>
<svg xmlns="http://www.w3.org/2000/svg" width="200" height="200" version="1.1" viewBox="0 0 200 200">
  <defs>
    <style>
      .cls-1 {
        fill: #e69336;
      }

      .cls-2 {
        fill: #50504f;
      }

      .cls-3 {
        fill: #d46f2f;
      }

      .cls-4 {
        fill: #7c6b59;
      }

      .cls-5 {
        fill: #3d3d3b;
      }
    </style>
  </defs>
  <!-- Generator: Adobe Illustrator 28.7.1, SVG Export Plug-In . SVG Version: 1.2.0 Build 142)  -->
  <g>
    <g id="Capa_6">
      <g>
        <path class="cls-1" d="M140.8,91.1h-14.3c-14,0-26.2-9.4-29.8-23l-5.7-21.4-12.7,1.2-47.5,4.5-1.4,8.8-2.8,17.7c-1.7,10.5-2.5,21-2.5,31.6v27.6h152v-11.9c0-19.4-15.7-35.2-35.2-35.2Z"/>
        <path class="cls-1" d="M140.8,91.1h-12.1c-1.4,17-17.2,18-40.9,16.6l-2.4,30h90.6v-11.4c0-4.8-1-9.4-2.7-13.6-5.3-12.7-17.8-21.6-32.4-21.6Z"/>
        <path class="cls-1" d="M38.4,60.4l-9,.8-2.8,17.7c-.8,5.2-1.5,10.3-1.9,15.6-.1,1.8-.3,3.6-.4,5.4-.2,3.5-.3,7-.3,10.6v27.6h68.4l-14.2-50.7c-4.9-17.4-21.7-28.8-39.8-27.1Z"/>
        <path class="cls-3" d="M26.4,99.9h-2.1c-.2,3.5-.3,7-.3,10.6v27.6h41.6v-7c0-17.2-17.5-31.2-39.2-31.2Z"/>
        <path class="cls-3" d="M172.2,112.6c-13.7,0-24.7,11.1-24.7,24.7v.3h28.5v-11.4c0-4.8-1-9.4-2.7-13.6h-1.1Z"/>
        <path class="cls-4" d="M85.4,52.8c-2.2,0-3.9,1.8-3.9,3.9s1.8,3.9,3.9,3.9,3.9-1.8,3.9-3.9-1.8-3.9-3.9-3.9Z"/>
        <path class="cls-4" d="M89.1,62.5c-2.2,0-3.9,1.8-3.9,3.9s1.8,3.9,3.9,3.9,3.9-1.8,3.9-3.9-1.8-3.9-3.9-3.9Z"/>
        <path class="cls-4" d="M92.7,72.1c-2.2,0-3.9,1.8-3.9,3.9s1.8,3.9,3.9,3.9,3.9-1.8,3.9-3.9-1.8-3.9-3.9-3.9Z"/>
        <path class="cls-4" d="M98.4,81.4c-2.2,0-3.9,1.8-3.9,3.9s1.8,3.9,3.9,3.9,3.9-1.8,3.9-3.9-1.8-3.9-3.9-3.9Z"/>
        <path class="cls-4" d="M107,88.8c-2.2,0-3.9,1.8-3.9,3.9s1.8,3.9,3.9,3.9,3.9-1.8,3.9-3.9-1.8-3.9-3.9-3.9Z"/>
        <path class="cls-4" d="M117.5,93.6c-2.2,0-3.9,1.8-3.9,3.9s1.8,3.9,3.9,3.9,3.9-1.8,3.9-3.9-1.8-3.9-3.9-3.9Z"/>
        <path class="cls-2" d="M95.2,55.2c-.2-1.3-1.5-2.2-2.8-2l-6.4,1c-1.3.2-2.2,1.5-2,2.8h0c.2,1.4,1.5,2.3,2.8,2.1l6.4-1c1.3-.2,2.2-1.5,2-2.8h0Z"/>
        <path class="cls-2" d="M98,64.9c-.2-1.3-1.5-2.2-2.8-2l-6.4,1c-1.3.2-2.2,1.5-2,2.8h0c.2,1.4,1.5,2.3,2.8,2.1l6.4-1c1.3-.2,2.2-1.5,2-2.8h0Z"/>
        <path class="cls-2" d="M101.6,73.2c-.4-1.3-1.8-2-3.1-1.6l-6.1,1.9c-1.3.4-2,1.8-1.6,3.1h0c.4,1.3,1.8,2,3.1,1.6l6.1-1.9c1.3-.4,2-1.8,1.6-3.1h0Z"/>
        <path class="cls-2" d="M106.2,80.9c-.7-1.2-2.2-1.6-3.3-1l-5.7,3c-1.2.7-1.6,2.2-1,3.3h0c.7,1.2,2.2,1.7,3.3,1l5.7-3c1.2-.7,1.6-2.2,1-3.3h0Z"/>
        <path class="cls-2" d="M112.8,85.6h0c-1.1-.9-2.6-.7-3.4.4l-4.1,5c-.8,1.1-.7,2.6.4,3.4h0c1.1.9,2.6.7,3.4-.4l4.1-5c.8-1.1.7-2.6-.4-3.4Z"/>
        <path class="cls-2" d="M120.4,88.7h0c-1.3-.4-2.7.3-3,1.6l-1.9,6.2c-.4,1.3.4,2.7,1.7,3h0c1.3.4,2.7-.3,3-1.6l1.9-6.2c.4-1.3-.4-2.7-1.7-3Z"/>
        <path class="cls-3" d="M96.6,128c-.2-.7-.9-1.1-1.5-.9h0c-.7.2-1.1.9-.9,1.5l.9,3.6c.2.7.9,1.1,1.5.9h0c.7-.2,1.1-.9.9-1.5l-.9-3.6Z"/>
        <path class="cls-3" d="M94.2,119.5c-.2-.7-.9-1.1-1.5-.9h0c-.7.2-1.1.9-.9,1.5l.9,3.6c.2.7.9,1.1,1.5.9h0c.7-.2,1.1-.9.9-1.5l-.9-3.6Z"/>
        <path class="cls-3" d="M92.1,111.4c-.2-.7-.9-1.1-1.5-.9h0c-.7.2-1.1.9-.9,1.5l.9,3.6c.2.7.9,1.1,1.5.9h0c.7-.2,1.1-.9.9-1.5l-.9-3.6Z"/>
        <path class="cls-3" d="M89.8,103.3c-.2-.7-.9-1.1-1.5-.9h0c-.7.2-1.1.9-.9,1.5l.9,3.6c.2.7.9,1.1,1.5.9h0c.7-.2,1.1-.9.9-1.5l-.9-3.6Z"/>
        <path class="cls-3" d="M87.5,95.4c-.2-.7-.9-1.1-1.5-.9h0c-.7.2-1.1.9-.9,1.6l1,3.6c.2.7.9,1.1,1.5.9h0c.7-.2,1.1-.9.9-1.6l-1-3.6Z"/>
        <path class="cls-3" d="M84.7,87.5c-.2-.7-1-1-1.6-.7h0c-.7.2-1,1-.7,1.6l1.3,3.5c.2.7,1,1,1.6.7h0c.7-.2,1-1,.7-1.6l-1.3-3.5Z"/>
        <path class="cls-3" d="M81.8,79.7c-.2-.7-1-1-1.6-.7h0c-.7.2-1,1-.7,1.6l1.3,3.5c.2.7,1,1,1.6.7h0c.7-.2,1-1,.7-1.6l-1.3-3.5Z"/>
        <path class="cls-3" d="M78.2,71.5c-.3-.6-1.1-.8-1.7-.5h0c-.6.3-.8,1.1-.5,1.7l1.8,3.3c.3.6,1.1.8,1.7.5h0c.6-.3.8-1.1.5-1.7l-1.8-3.3Z"/>
        <path class="cls-3" d="M73.4,64.9c-.4-.6-1.2-.7-1.8-.3h0c-.6.4-.7,1.2-.3,1.8l2.2,3c.4.6,1.2.7,1.8.3h0c.6-.4.7-1.2.3-1.8l-2.2-3Z"/>
        <path class="cls-3" d="M67.7,58.6h0c.7,0,1.3.6,1.3,1.3v3.8c0,.7-.6,1.3-1.3,1.3h0c-.7,0-1.3-.6-1.3-1.3v-3.8c0-.7.6-1.3,1.3-1.3Z" transform="translate(-20.7 85.7) rotate(-57.5)"/>
        <path class="cls-3" d="M62.6,57.5l-3.6-1.1c-.7-.2-1.4.2-1.6.9h0c-.2.7.2,1.4.9,1.6l3.6,1.1c.7.2,1.4-.2,1.6-.9h0c.2-.7-.2-1.4-.9-1.6Z"/>
        <path class="cls-3" d="M54.6,55.3l-3.7-.4c-.7,0-1.3.4-1.4,1.1h0c0,.7.4,1.3,1.1,1.4l3.7.4c.7,0,1.3-.4,1.4-1.1h0c0-.7-.4-1.3-1.1-1.4Z"/>
        <path class="cls-3" d="M45.4,54.6l-3.7.2c-.7,0-1.2.6-1.2,1.3h0c0,.7.6,1.2,1.3,1.2l3.7-.2c.7,0,1.2-.6,1.2-1.3h0c0-.7-.6-1.2-1.3-1.2Z"/>
        <path class="cls-3" d="M37.1,55.2l-3.7.2c-.7,0-1.2.6-1.2,1.3h0c0,.7.6,1.2,1.3,1.2l3.7-.2c.7,0,1.2-.6,1.2-1.3h0c0-.7-.6-1.2-1.3-1.2Z"/>
        <path class="cls-3" d="M133.1,91.4h0c-.7-.2-1.4.3-1.5.9l-.9,3.7c-.2.7.3,1.4.9,1.5h0c.7.2,1.4-.3,1.5-.9l.9-3.7c.2-.7-.3-1.4-.9-1.5Z"/>
        <path class="cls-3" d="M130.9,98.6h0c-.6-.3-1.4,0-1.7.6l-1.5,3.4c-.3.6,0,1.4.6,1.7h0c.6.3,1.4,0,1.7-.6l1.5-3.4c.3-.6,0-1.4-.6-1.7Z"/>
        <path class="cls-3" d="M126.7,106.1c-.3-.6-1.1-.9-1.7-.6l-3.4,1.7c-.6.3-.9,1.1-.6,1.7h0c.3.6,1.1.9,1.7.6l3.4-1.7c.6-.3.9-1.1.6-1.7h0Z"/>
        <path class="cls-3" d="M119.8,109.8c-.1-.7-.8-1.1-1.5-1l-3.7.8c-.7.1-1.1.8-1,1.5h0c.1.7.8,1.1,1.5,1l3.7-.8c.7-.1,1.1-.8,1-1.5h0Z"/>
        <path class="cls-3" d="M110.3,110.4l-3.7-.2c-.7,0-1.3.5-1.3,1.2h0c0,.7.5,1.3,1.2,1.3l3.8.2c.7,0,1.3-.5,1.3-1.2h0c0-.7-.5-1.3-1.2-1.3Z"/>
        <path class="cls-3" d="M102,110.1l-3.8-.2c-.7,0-1.3.5-1.3,1.2h0c0,.7.5,1.3,1.2,1.3l3.8.2c.7,0,1.3-.5,1.3-1.2h0c0-.7-.5-1.3-1.2-1.3Z"/>
        <path class="cls-5" d="M62.2,135.7H21.1v17.6h7.7v-3.1h6.4v3.1h7.5v-3.1h6.4v3.1h7.5v-3.1h6.4v3.1h9.2v-8.5l25.3-.3c0,10.4-1.7,8.8,12.4,8.8v-3.1h6.4v3.1h7.5v-3.1h6.4v3.1h7.5v-3.1h6.4v3.1h7.5v-3.1h6.4v3.1h7.5v-3.1h6.4v3.1h6.8v-17.6H62.2Z"/>
      </g>
    </g>
  </g>
</svg>