<?xml version="1.0" encoding="UTF-8"?>
<svg xmlns="http://www.w3.org/2000/svg" width="200" height="200" version="1.1" viewBox="0 0 200 200">
  <defs>
    <style>
      .cls-1 {
        fill: #e9daa6;
      }

      .cls-2 {
        fill: #c8ba96;
      }

      .cls-3 {
        fill: #93a052;
      }

      .cls-4 {
        fill: #7b8e3f;
      }

      .cls-5 {
        fill: #b0bc62;
      }

      .cls-6 {
        fill: #64792f;
      }

      .cls-7 {
        fill: #9dad37;
      }

      .cls-8 {
        fill: #94c5c0;
      }

      .cls-9 {
        fill: #f9edbd;
      }

      .cls-10 {
        fill: #b2dcd9;
      }

      .cls-11 {
        fill: #e9dfc2;
      }
    </style>
  </defs>
  <!-- Generator: Adobe Illustrator 28.7.1, SVG Export Plug-In . SVG Version: 1.2.0 Build 142)  -->
  <g>
    <g id="Capa_6">
      <g>
        <polygon class="cls-7" points="58.8 145.5 100 161.2 100 51.5 58.8 36.7 58.8 145.5"/>
        <polygon class="cls-5" points="100 161.2 141.2 145.5 141.2 36.7 100 51.5 100 161.2"/>
        <polygon class="cls-7" points="141.2 145.5 182.4 161.2 182.4 51.5 141.2 36.7 141.2 145.5"/>
        <polygon class="cls-11" points="11.9 168.9 58.8 151.9 58.8 145.5 17.6 161.2 17.6 51.5 58.8 36.7 58.8 31 11.9 47.5 11.9 168.9"/>
        <polygon class="cls-2" points="58.8 36.7 100 51.5 100 45.8 58.8 31 58.8 36.7"/>
        <polygon class="cls-2" points="58.8 151.9 100 166.8 100 161.2 58.8 145.5 58.8 151.9"/>
        <polygon class="cls-2" points="141.2 36.8 182.4 51.6 182.4 161.3 141.2 145.6 141.2 152 188.1 169 188.1 47.6 141.2 31.1 141.2 36.8"/>
        <polygon class="cls-11" points="100 51.6 141.2 36.8 141.2 31.1 100 45.9 100 51.6"/>
        <polygon class="cls-11" points="100 166.9 141.2 152 141.2 145.6 100 161.3 100 166.9"/>
        <polygon class="cls-5" points="17.6 161.2 58.8 145.5 58.8 36.7 17.6 51.5 17.6 161.2"/>
        <path class="cls-6" d="M81.3,90.6c-1.5.5-3,1.2-4.3,2.2-1.3,1.1-2.4,2.5-3.4,3.9-2.1,3.2-3.8,6.8-4.1,10.6-.4,5.8,2.6,11.5,7.1,15.1,1.2,1,2.6,1.9,3.5,3.3,1.5,2.4.8,5.4,0,8.1-.8,2.7-1.6,5.6-.6,8.1.8,2.1,2.7,3.5,4.8,4.3,2.6,1,5.6,1.2,8-.2,3.9-2.4,4.8-7.7,7.7-11.3v-37.1c-3.5-6.2-11.9-9.2-18.7-7.1Z"/>
        <path class="cls-4" d="M111.1,61.9c-3.5,2.5-5.4,6.9-5.5,11.2,0,2.6.5,5.2.8,7.7.4,3.2.5,6.4-.4,9.5-.8,3.1-2.6,6-5.3,7.7-.3.2-.6,0-.7-.3v37.1c6.2,0,12.5,3.8,17.9.8,1.7-1,2.8-2.8,3.6-4.5,1.2-2.8,2-5.9,1.7-9-.8-7.6-7.8-13.5-8.2-21.1-.2-4,1.6-7.9,3.2-11.5,1.4-2.9,2.7-5.9,4.1-8.8,1.4-2.9,2.7-5.9,3.2-9.1.4-3.2-.3-6.7-2.5-9-3-3.1-8.3-3.1-11.9-.6Z"/>
        <path class="cls-4" d="M41.6,54.5c-4.2,4.3-7.1,9.7-9.7,15.1-.6,1.3-1.2,3.1-.3,4.2.4.5,1,.8,1.6,1,2.6.9,5.5.6,8.2,1,2.7.5,5.7,2.2,6,5,.1,1-.2,2,0,3,.4,1.8,2.4,2.9,4.3,2.7,1.8-.2,3.4-1.5,4.4-3s2-3.8,2.6-5.5v-29.4c-6-.5-13,1.7-17.2,5.9Z"/>
        <path class="cls-6" d="M73.6,67.3c-4.1-.5-8.7-1.9-10.4-5.7-1.6-3.6,0-7.8-1-11.6-.2-.9-.6-1.8-1.4-2.2-.8-.4-1.7-.1-1.9.7v29.4c1.1-1.6,4-1.5,5.8-.9,1.8.6,3.3,1.9,4.8,3.2,1.5,1.3,3.1,2.5,5,2.9,3.3.7,6.6-1.6,8.1-4.5,1.3-2.6,1.4-6-.5-8.2-2-2.3-5.4-2.6-8.4-3Z"/>
        <path class="cls-1" d="M174,84.3c-1.4-.8-3.1.5-4,1.8-2.9,4.2-3.6,9.7-6.8,13.8-2.9,3.7-7.8,5.8-9.9,10-1.4,2.6-1.4,5.7-1.7,8.7s-.9,6.1-2.9,8.2c-2.1,2.1-5.6,2.8-7.4.5v9.6c6.7,0,11.6-6.8,13.7-13.2.8-2.5,1.1-5.2,1.8-7.8,2.8-10.2,11.6-17.4,17.2-26.4,1-1.6,1.7-4.1,0-5Z"/>
        <path class="cls-9" d="M138.7,123.2c-4.7-3-8.1-7.9-9.6-13.3-2.3-8.7.7-17.8,3.6-26.3,2.8-8.5,5.5-17.8,2.7-26.3-.8-2.4-2-4.6-3.2-6.8-1.6-2.9-3.4-5.8-5-8.7l-9.8,3.5c2.5,2.7,4.9,6.3,7.4,9,2.5,2.7,5,5.6,6.1,9.1,2,6.2-1,12.9-4.3,18.5-3.3,5.7-7.1,11.5-6.9,18.1.3,8.8,7.7,15.6,10.6,23.9,1,2.8,1.5,5.8,2.9,8.4,1.4,2.6,5,4.7,7.9,4.3v-9.6c-.2-1.8-1.1-3.1-2.5-3.9Z"/>
        <path class="cls-9" d="M50.4,90.4c-2-.4-3.9-2.2-5.9-1.5-1.7.5-2.4,2.5-2.7,4.3-.4,2.9-.2,6-1.4,8.8-.8,1.8-2,3.2-3.3,4.6-2.5,2.7-5.3,5.4-8.5,7.2-3.2,1.9-7.3,2.4-11,2.4v16.1c10.4-3.5,18.3-12.4,23-22.3,1.8-3.8,3.3-7.9,6.3-10.9,3-3,8.5-4.6,11.9-2.1v-10.5s-.6.2-.6.3c-2.1,2-4.9,4.1-7.7,3.5Z"/>
        <path class="cls-1" d="M90.7,64.7q0-.2,0-.3c-.1-2.3,1-4.4,1.7-6.6,1-2.8,1.3-5.9,1.2-8.5l-.7-.2c-1.1.8-2.3,1.6-3.6,2.1-.9.3-1.9.6-2.8,1-1.5.8-2.7,2.4-3,4.1-.3,1.6,0,3.3.5,5,.4,1.4.7,2.8,1.5,4,1.5,2.3,4.3,3.7,5.4,6.2,1.2,2.6.3,5.7-1.5,7.9-1.8,2.1-4.5,3.4-7.1,4.4-1.4.5-2.9,1-4.4,1.2-3.1.4-6.4-.5-9.1,1.1-.7.4-1.3.9-2.1,1.2-.9.3-1.8.2-2.8,0-1.7-.2-3.4-.6-5.1-.6v10.5c3.7,0,7.1-1.2,10.2-3.3,3.1-2.1,6.1-4.5,9.7-5.4,1.7-.4,3.4-.4,5.1-.5,3.3,0,7-.1,9.4-2.4,1.9-1.8,2.5-4.6,2.9-7.2.4-2.5.8-5.2-.5-7.4-1.3-2.3-4.2-3.6-5-6.2Z"/>
        <path class="cls-4" d="M162.7,66.3c1.4-.8,2.5-2,2.9-3.5.3-1.5-.3-3.3-1.8-4-1.4-.7-3.4.2-3.7,1.7.6-1.5.4-3.4-.7-4.6-1.1-1.3-2.9-1.8-4.4-1.1-.7.3-1.2.8-1.7,1.3-2.5,3-2.1,7.8.7,10.4-.9-.2-1.9.7-2,1.6-.3,3.6,10.1,4.5,12.1,3.3,1.1-.6,1.6-2,1.3-3.2-.4-1.2-1.6-2.1-2.8-2Z"/>
        <path class="cls-4" d="M171.4,78c.7-.4,1.3-1,1.5-1.8.2-.8-.2-1.7-.9-2-.7-.3-1.7,0-1.9.9.3-.8.2-1.7-.3-2.4-.5-.6-1.5-.9-2.3-.6-.3.2-.6.4-.8.7-1.3,1.5-1.1,4,.4,5.3-.5-.1-1,.3-1,.8-.2,1.8,5.2,2.3,6.2,1.7.5-.3.8-1,.6-1.7-.2-.6-.8-1-1.5-1Z"/>
        <path class="cls-4" d="M156.6,83.8c.7-.4,1.3-1,1.4-1.8s-.2-1.7-.9-2c-.7-.3-1.7,0-1.8.9.3-.8.2-1.7-.3-2.3-.5-.6-1.5-.9-2.2-.6-.3.1-.6.4-.8.7-1.2,1.5-1.1,3.9.4,5.2-.5-.1-1,.3-1,.8-.2,1.8,5.1,2.3,6.1,1.7.5-.3.8-1,.6-1.6-.2-.6-.8-1-1.4-1Z"/>
        <path class="cls-3" d="M48.8,120.7c-.5-.6-1-1-1.7-1.3-1.5-.7-3.4-.1-4.4,1.1-1.1,1.3-1.3,3.1-.7,4.6-.2-1.5-2.2-2.4-3.7-1.7-1.4.7-2.1,2.4-1.8,4,.3,1.5,1.5,2.8,2.9,3.5-1.2,0-2.5.8-2.8,2-.4,1.2.2,2.6,1.3,3.2,2,1.2,12.5.3,12.1-3.3,0-1-1-1.8-2-1.6,2.9-2.6,3.2-7.5.7-10.4Z"/>
        <path class="cls-3" d="M35.6,137.5c-.2-.3-.5-.5-.8-.7-.8-.3-1.7,0-2.3.6-.5.6-.6,1.6-.3,2.4-.1-.8-1.1-1.2-1.9-.9s-1.1,1.2-.9,2c.2.8.8,1.4,1.5,1.8-.6,0-1.3.4-1.5,1-.2.6,0,1.3.6,1.7,1,.6,6.4.1,6.2-1.7,0-.5-.5-.9-1-.8,1.5-1.3,1.6-3.8.4-5.3Z"/>
        <path class="cls-10" d="M41.4,80c-1.4-1.1-3.3-1.5-5.1-1.7-1.8-.2-3.7-.3-5.3-1.1-1.4-.7-2.3-1.8-2.9-3.2-.5-1.3-.5-2.9-2.3-3.1-1-.2-2.1.3-2.8,1.1-1.5,1.5-1.7,3.9-1.4,6,.4,2.1,1.2,4.1,1.6,6.1.4,2.1.3,4.3-.3,6.3-.4,1.5-1.1,2.9-1.2,4.5,0,1.7.6,3.4,1.3,4.9.9,1.9,2.3,3.8,4.3,4.4,1.8.5,3.6-.3,5.2-1.2,2.7-1.7,5-4.4,5.1-7.5.1-2.5-.9-5.3.6-7.3,1.1-1.4,3.3-1.8,4.2-3.3,1-1.5.2-3.7-1.2-4.8Z"/>
        <path class="cls-10" d="M137.8,99.2c-.5-1.6-.8-3.3-2-4.5-.4-.4-.9-.7-1.4-.7-1,0-1.7.9-2.2,1.8-.8,1.5-1.3,3.2-1.4,4.9-.2,2,.1,4,.5,6,.5,3.3,1.1,6.8,3.1,9.4.5.7,1.1,1.3,1.7,1.9,1.7,1.8,3.4,2.9,5.1,4.6v-20.2c-1.6-.1-2.8-1.9-3.3-3.4Z"/>
        <path class="cls-8" d="M155.9,92.2c-1.8.4-3.3,1.5-4.7,2.6-1.8,1.4-3.6,2.8-5.1,4.4-.7.7-1.3,1.5-2.2,2.2-.8.6-1.7,1.2-2.7,1.2v20.2c.4,1.3,1,2.8,2.3,3.5,1.1.6,2.4.3,3.4-.3,1.4-.9,2.1-2.6,2.3-4.2s.2-3.3.2-4.9c.1-4.3,1.5-8.7,4.5-11.9,1.3-1.4,3-2.6,4.3-4,1.4-1.4,2.6-3.2,2.6-5.1,0-.6,0-1.3-.3-1.8-.8-1.7-2.9-2.3-4.7-1.9Z"/>
      </g>
    </g>
  </g>
</svg>