<?xml version="1.0" encoding="utf-8"?>
<!-- Generator: Adobe Illustrator 19.2.1, SVG Export Plug-In . SVG Version: 6.00 Build 0)  -->
<svg version="1.1" xmlns="http://www.w3.org/2000/svg" xmlns:xlink="http://www.w3.org/1999/xlink" x="0px" y="0px"
	 viewBox="0 0 100 100" style="enable-background:new 0 0 100 100;" xml:space="preserve">
<style type="text/css">
	.st0{display:none;}
	.st1{fill:#FFFFFF;}
	.st2{fill:none;stroke:#000000;stroke-width:4;stroke-miterlimit:10;}
	.st3{fill:none;}
	.st4{stroke:#000000;stroke-width:3;stroke-miterlimit:10;}
	.st5{fill:#8C8077;}
	.st6{stroke:#FFFFFF;stroke-miterlimit:10;}
	.st7{stroke:#FFFFFF;stroke-width:2;stroke-miterlimit:10;}
</style>
<g id="Layer_1" class="st0">
</g>
<g id="Layer_3">
</g>
<g id="Layer_2">
	<g>
		<path class="st5" d="M36.5,40.5c-1.6,0-2.4,1.3-4.1,4.2c-0.7,1.1-3.1,3.5-3.8,4.7c-1.1,2-1.7,3.7-1.7,5.5c0,5.1,4.1,7.3,8.5,7.3
			c4.4,0,6.9-4.3,6.9-10.1S38.8,40.4,36.5,40.5z"/>
		<path class="st5" d="M57.9,52.1c0,5.8,2.4,10.1,6.9,10.1c4.4,0,8.5-2.3,8.5-7.3c0-1.8-0.6-3.6-1.7-5.5c-0.7-1.2-3.2-3.6-3.8-4.7
			c-1.8-2.8-2.5-4.1-4.1-4.2C61.2,40.4,57.9,46.3,57.9,52.1z"/>
		<path class="st5" d="M94.8,27.4c0-5-3-9.1-6.7-9.1c-3.7,0-6.7,4.1-6.7,9.1c0,0.3,0,0.5,0,0.8c-7.7-6.7-18.9-11-31.4-11
			c-11.7,0-22.3,3.7-30,9.8c-0.2-4.8-3.1-8.6-6.7-8.6c-3.7,0-6.7,4.1-6.7,9.1c0,4.3,2.2,7.9,5.2,8.8C9.3,40.4,7.9,45.1,7.9,50
			c0,18.1,18.9,32.8,42.1,32.8S92.1,68.1,92.1,50c0-4.8-1.3-9.4-3.7-13.5C91.9,36.3,94.8,32.3,94.8,27.4z M50,80.3
			c-21.8,0-39.5-13.6-39.5-30.3S28.2,19.7,50,19.7c21.8,0,39.5,13.6,39.5,30.3S71.8,80.3,50,80.3z"/>
		<path class="st5" d="M54.1,60.4c0,1.6-1.8,3-4.1,3s-4.1-1.3-4.1-3H54.1z"/>
		<g>
			<path class="st5" d="M50,71.1c-1.9,0-3.4-2.3-3.4-5.3h1.2c0,1.9,0.9,4,2.1,4c1.3,0,2.1-2.1,2.1-4h1.2
				C53.4,68.8,51.9,71.1,50,71.1z"/>
		</g>
		<circle class="st1" cx="37.6" cy="47.9" r="2.1"/>
		<circle class="st1" cx="63.2" cy="47.9" r="2.1"/>
		<g>
			<path class="st5" d="M53.6,54c0.7,4.3,2.2,9,5,12.4c3.2,3.2,7.2,5.5,11.8,5.7c0,0,0.1,0,0.1,0c3.3,0.1,6.9,0,9.8-1.6
				c3.3-1.8,5.5-4.9,7.1-8.2c2.3-4.7,2.7-9.9,4-14.9c0.6-2.5,1.9-8.9,5.5-8.3c0.2,0,0.3-0.1,0.3-0.3c0.1-2.1-0.3-4.1-0.5-6.2
				c0,0,0,0,0,0c0-0.1-0.1-0.2-0.2-0.2c-7.2,0-14.5-0.4-21.7-1c-3.5-0.3-7.1-0.6-10.6-0.9c-2.7-0.3-4.6,0.2-6.7,1.7c0,0-0.1,0-0.1,0
				c-2.1,1.4-4.1,0.7-6.3,0.3c-0.4-0.1-0.8-0.1-1.1,0.1c-0.3-0.1-0.7-0.2-1.1-0.1c-2.3,0.4-4.2,1.1-6.3-0.3c0,0-0.1,0-0.1,0
				c-2.1-1.5-4.1-2-6.7-1.7c-3.5,0.4-7.1,0.6-10.6,0.9c-7.2,0.6-14.4,1.1-21.7,1c-0.1,0-0.2,0.1-0.2,0.2c0,0,0,0,0,0
				c-0.3,2.1-0.6,4.1-0.5,6.2c0,0.2,0.2,0.3,0.3,0.3c3.6-0.6,4.8,5.8,5.5,8.3c1.3,5,1.8,10.2,4,14.9c1.6,3.3,3.8,6.4,7.1,8.2
				c3,1.6,6.5,1.7,9.8,1.6c0.1,0,0.1,0,0.1,0c4.6-0.2,8.6-2.5,11.8-5.7c2.8-3.4,4.3-8,5-12.4l0.7-12.1c0,0,0,0,0-0.1c0,0,0,0,0,0
				c0.3-0.3,0.7-0.5,1.1-0.6c0.5,0,1.1-0.1,1.7-0.1c0.6,0,1.2,0.1,1.7,0.1c0.4,0.1,0.8,0.3,1.1,0.6c0,0,0,0,0,0c0,0,0,0,0,0.1
				L53.6,54z M42.5,50.2c0,3.3-0.8,6.4-1.7,9.5c-0.9,3-2.2,5.7-4.7,7.7c-3.6,2.8-9.5,3.5-13.6,1.4c-4.6-2.8-6.7-8.9-8-13.8
				c-1.6-6.1-2.3-12.7-2.1-19c2.4-0.3,4.8-0.1,7.2,0c2.2,0,4.5-0.2,6.7-0.3c2.3-0.1,4.6,0,6.8-0.2c2.2-0.2,4.4-0.4,6.7-0.2
				c0,0,0.1,0.1,0.1,0.1c2.4,0.7,2.4,5.1,2.5,7.1C42.6,45.1,42.6,47.7,42.5,50.2z M85.5,55c-1.3,4.9-3.4,11.1-8,13.8
				c-4.1,2.1-10,1.4-13.6-1.4c-2.5-2-3.7-4.7-4.7-7.7c-1-3.1-1.8-6.2-1.7-9.5c0-2.6-0.1-5.2,0.1-7.8c0.1-1.9,0.1-6.4,2.5-7.1
				c0.1,0,0.1,0,0.1-0.1c2.2-0.2,4.4,0,6.7,0.2c2.3,0.2,4.6,0.1,6.8,0.2c2.2,0.1,4.5,0.4,6.7,0.3c2.4,0,4.8-0.3,7.2,0
				C87.8,42.3,87.1,49,85.5,55z"/>
			<path class="st1" d="M27.9,72.5c-2.8,0-5.8-0.3-8.4-1.7c-2.9-1.6-5.3-4.4-7.2-8.3c-1.6-3.3-2.3-6.8-3-10.3
				c-0.3-1.6-0.7-3.2-1.1-4.7C8.1,47.3,8,47.1,8,46.8C7.3,44.1,6,38.9,3,39.5c-0.2,0-0.3,0-0.5-0.1c-0.1-0.1-0.2-0.3-0.2-0.4
				c-0.1-1.7,0.1-3.3,0.4-4.9c0.1-0.4,0.1-0.9,0.2-1.3c0,0,0-0.1,0-0.1c0.1-0.3,0.3-0.4,0.5-0.4c0,0,0,0,0,0c7.5,0,14.8-0.5,21.7-1
				c3.3-0.3,7-0.6,10.6-0.9c2.7-0.3,4.7,0.2,6.9,1.7c0.1,0,0.1,0,0.2,0.1c1.7,1.1,3.3,0.8,5.1,0.5c0.3-0.1,0.6-0.1,1-0.2
				c0.5-0.1,0.8-0.1,1.1,0.1c0.3-0.1,0.7-0.1,1.1-0.1c0.3,0.1,0.7,0.1,1,0.2c1.8,0.4,3.4,0.7,5.1-0.5c0,0,0.1-0.1,0.2-0.1
				c2.2-1.5,4.2-2,6.9-1.7c3.6,0.4,7.3,0.7,10.6,0.9c6.8,0.6,14.2,1.1,21.7,1c0,0,0,0,0,0c0.3,0,0.5,0.2,0.5,0.4c0,0,0,0.1,0,0.1
				c0.1,0.4,0.1,0.9,0.2,1.3c0.2,1.6,0.5,3.3,0.4,4.9c0,0.2-0.1,0.3-0.2,0.4c-0.1,0.1-0.3,0.1-0.5,0.1c-3-0.5-4.3,4.6-4.9,7.4
				c-0.1,0.2-0.1,0.5-0.2,0.7c-0.4,1.6-0.7,3.2-1.1,4.7c-0.7,3.4-1.4,7-3,10.3c-1.9,3.9-4.3,6.7-7.2,8.3c-3.1,1.7-6.8,1.8-10,1.7
				c-0.1,0-0.1,0-0.2,0c-4.3-0.2-8.3-2.2-12-5.8l0,0c-2.5-3.1-4.3-7.5-5.1-12.5l0,0L52.6,42c-0.2-0.2-0.5-0.4-0.9-0.5
				c-0.1,0-0.3,0-0.4,0c-0.4,0-0.8-0.1-1.3-0.1c-0.4,0-0.8,0.1-1.2,0.1c-0.1,0-0.3,0-0.4,0c-0.4,0.1-0.7,0.3-0.9,0.5L46.7,54
				c-0.8,5-2.6,9.5-5.1,12.6l0,0c-3.7,3.6-7.7,5.6-12,5.8c-0.1,0-0.1,0-0.2,0C28.9,72.5,28.4,72.5,27.9,72.5z M58.9,66.2
				c3.6,3.5,7.5,5.4,11.6,5.6l0.1,0l0.1,0c3.1,0.1,6.7,0,9.7-1.6c2.8-1.5,5.1-4.2,6.9-8c1.5-3.2,2.3-6.7,3-10.1
				c0.3-1.6,0.7-3.2,1.1-4.8c0.1-0.2,0.1-0.4,0.2-0.7c0.7-2.9,2.1-8.4,5.6-7.8c0.1-1.6-0.1-3.1-0.3-4.8c-0.1-0.4-0.1-0.8-0.2-1.3
				l0,0c-7.5,0-14.8-0.5-21.7-1c-3.3-0.3-7-0.6-10.6-0.9c-2.6-0.3-4.4,0.2-6.5,1.7l-0.1,0l-0.1,0c-1.9,1.2-3.7,0.9-5.6,0.5
				c-0.3-0.1-0.6-0.1-1-0.2c-0.4-0.1-0.7,0-0.9,0.1L50,33.1L49.9,33c-0.2-0.1-0.5-0.1-0.9-0.1c-0.3,0.1-0.6,0.1-1,0.2
				c-1.9,0.4-3.7,0.7-5.6-0.5l-0.1,0l0,0c-2.1-1.5-3.9-1.9-6.5-1.7c-3.6,0.4-7.3,0.7-10.6,0.9c-6.8,0.6-14.2,1.1-21.7,1l0,0
				c-0.1,0.4-0.1,0.8-0.2,1.3c-0.2,1.6-0.4,3.2-0.3,4.8c3.5-0.6,4.9,4.9,5.6,7.8c0.1,0.2,0.1,0.5,0.2,0.7c0.4,1.6,0.7,3.2,1.1,4.8
				c0.7,3.4,1.4,6.9,3,10.1c1.8,3.8,4.1,6.5,6.9,8c3,1.6,6.6,1.7,9.7,1.6l0.1,0l0.1,0c4.1-0.2,8-2.1,11.6-5.6
				c2.4-3,4.2-7.3,4.9-12.2l0.8-12.3l0.1-0.1c0,0,0,0,0,0c0.3-0.3,0.7-0.5,1.3-0.7l0.1,0c0.1,0,0.3,0,0.4,0c0.4,0,0.8-0.1,1.3-0.1
				c0.5,0,0.9,0.1,1.3,0.1c0.1,0,0.3,0,0.4,0l0.1,0c0.5,0.1,0.9,0.3,1.3,0.7c0,0,0,0,0,0l0.1,0.1v0.2c0,0,0,0,0,0l0,0L53.9,54
				C54.7,58.9,56.4,63.2,58.9,66.2z M27.9,70.4c-2,0-3.9-0.4-5.6-1.3c-4.7-2.8-6.8-9-8.1-14c-1.5-6-2.3-12.5-2.1-19.1l0-0.3l0.3,0
				c1.8-0.3,3.6-0.2,5.3-0.1c0.6,0,1.3,0.1,1.9,0.1c1.6,0,3.2-0.1,4.8-0.2c0.6,0,1.3-0.1,1.9-0.1c1.1-0.1,2.1-0.1,3.2-0.1
				c1.2,0,2.4,0,3.7-0.1c0.3,0,0.6,0,0.9-0.1c1.9-0.2,3.9-0.3,5.8-0.1l0.1,0l0.1,0.1c2.4,0.7,2.6,4.5,2.7,6.7c0,0.2,0,0.4,0,0.6
				c0.2,2.4,0.1,4.9,0.1,7.3l0,0.5c0,3.5-0.9,6.8-1.8,9.6c-0.9,2.8-2.1,5.7-4.8,7.8C34,69.5,30.9,70.4,27.9,70.4z M12.7,36.3
				c-0.1,6.4,0.6,12.8,2.1,18.6c1.3,4.9,3.3,11,7.8,13.6c3.9,2,9.6,1.4,13.3-1.4c2.6-2,3.7-4.8,4.6-7.5c0.9-2.7,1.8-6,1.7-9.4l0-0.6
				c0-2.4,0.1-4.8-0.1-7.2c0-0.2,0-0.4,0-0.6c-0.1-2-0.3-5.6-2.3-6.2c-0.1,0-0.1,0-0.2-0.1c-1.9-0.2-3.7,0-5.6,0.1
				c-0.3,0-0.6,0-0.9,0.1c-1.2,0.1-2.5,0.1-3.7,0.1c-1,0-2.1,0-3.2,0.1c-0.6,0-1.3,0.1-1.9,0.1c-1.6,0.1-3.2,0.2-4.9,0.2
				c-0.6,0-1.3,0-1.9-0.1C16,36.2,14.3,36.1,12.7,36.3z M72.1,70.4c-3,0-6.1-0.9-8.4-2.7c-2.7-2.1-3.9-5-4.8-7.8
				c-0.9-2.8-1.8-6.1-1.8-9.6l0-0.5c0-2.4-0.1-4.8,0.1-7.3c0-0.2,0-0.4,0-0.6c0.1-2.3,0.3-6.1,2.7-6.7l0.1-0.1l0.1,0
				c2-0.2,3.9-0.1,5.8,0.1c0.3,0,0.6,0,0.9,0.1c1.2,0.1,2.5,0.1,3.7,0.1c1,0,2.1,0,3.2,0.1c0.6,0,1.3,0.1,1.9,0.1
				c1.6,0.1,3.2,0.2,4.8,0.2c0.6,0,1.3,0,1.9-0.1c1.7-0.1,3.5-0.2,5.3,0.1l0.3,0l0,0.3c0.2,6.5-0.6,13.1-2.1,19.1
				c-1.3,5.1-3.4,11.2-8.1,14C76,70,74.1,70.4,72.1,70.4z M60.3,35.6c-0.1,0-0.1,0.1-0.2,0.1c-1.9,0.5-2.2,4.2-2.3,6.2
				c0,0.2,0,0.4,0,0.6c-0.2,2.4-0.1,4.8-0.1,7.2l0,0.5c0,3.4,0.9,6.7,1.7,9.5c0.9,2.7,2,5.5,4.6,7.5c3.7,2.8,9.4,3.4,13.3,1.4
				c4.5-2.7,6.5-8.7,7.8-13.6l0.3,0.1L85.2,55c1.5-5.8,2.2-12.3,2.1-18.6c-1.6-0.2-3.3-0.1-4.9-0.1c-0.6,0-1.3,0.1-1.9,0.1
				c-1.6,0-3.3-0.1-4.9-0.2c-0.6,0-1.3-0.1-1.9-0.1c-1-0.1-2.1-0.1-3.2-0.1c-1.2,0-2.5,0-3.7-0.1c-0.3,0-0.6,0-0.9-0.1
				C64,35.6,62.2,35.4,60.3,35.6z"/>
		</g>
	</g>
</g>
</svg>
