<?xml version="1.0" encoding="utf-8"?>
<!-- Generator: Adobe Illustrator 19.2.1, SVG Export Plug-In . SVG Version: 6.00 Build 0)  -->
<svg version="1.1" id="Capa_1" xmlns="http://www.w3.org/2000/svg" xmlns:xlink="http://www.w3.org/1999/xlink" x="0px" y="0px"
	 viewBox="0 0 170 100" style="enable-background:new 0 0 170 100;" xml:space="preserve">
<style type="text/css">
	.st0{fill:#D88832;}
	.st1{fill:#EDB26C;}
	.st2{clip-path:url(#SVGID_2_);}
	.st3{fill:#E09637;}
	.st4{fill:none;}
	.st5{fill:#663300;}
	.st6{fill:#F2F2F2;}
	.st7{fill:#C6B89B;}
	.st8{fill:#B2A287;}
	.st9{clip-path:url(#SVGID_4_);}
	.st10{clip-path:url(#SVGID_6_);}
	.st11{clip-path:url(#SVGID_8_);}
</style>
<g>
	<g>
		<g>
			<g>
				<rect x="20.9" y="-58" class="st7" width="4.6" height="96.7"/>
				<g>
					<path class="st8" d="M21.4,28.3c1.1,0.8,2.2,1.5,3.2,2.3c0.4,0.3,0.8-0.4,0.4-0.7c-1.1-0.8-2.2-1.5-3.2-2.3
						C21.4,27.4,21,28,21.4,28.3L21.4,28.3z"/>
				</g>
				<g>
					<path class="st8" d="M21.4,22.2c1.1,0.8,2.2,1.5,3.2,2.3c0.4,0.3,0.8-0.4,0.4-0.7c-1.1-0.8-2.2-1.5-3.2-2.3
						C21.4,21.3,21,21.9,21.4,22.2L21.4,22.2z"/>
				</g>
				<g>
					<path class="st8" d="M21.4,16.1c1.1,0.8,2.2,1.5,3.2,2.3c0.4,0.3,0.8-0.4,0.4-0.7c-1.1-0.8-2.2-1.5-3.2-2.3
						C21.4,15.2,21,15.8,21.4,16.1L21.4,16.1z"/>
				</g>
				<g>
					<path class="st8" d="M21.4,10c1.1,0.8,2.2,1.5,3.2,2.3c0.4,0.3,0.8-0.4,0.4-0.7c-1.1-0.8-2.2-1.5-3.2-2.3
						C21.4,9.1,21,9.7,21.4,10L21.4,10z"/>
				</g>
				<g>
					<path class="st8" d="M21.4,3.9c1.1,0.8,2.2,1.5,3.2,2.3c0.4,0.3,0.8-0.4,0.4-0.7C24,4.8,22.9,4,21.8,3.2
						C21.4,2.9,21,3.6,21.4,3.9L21.4,3.9z"/>
				</g>
				<g>
					<path class="st8" d="M21.4-2.2c1.1,0.8,2.2,1.5,3.2,2.3c0.4,0.3,0.8-0.4,0.4-0.7c-1.1-0.8-2.2-1.5-3.2-2.3
						C21.4-3.2,21-2.5,21.4-2.2L21.4-2.2z"/>
				</g>
			</g>
			<g>
				<rect x="132.1" y="-58" class="st7" width="4.6" height="96.7"/>
				<g>
					<path class="st8" d="M132.6,28.3c1.1,0.8,2.2,1.5,3.2,2.3c0.4,0.3,0.8-0.4,0.4-0.7c-1.1-0.8-2.2-1.5-3.2-2.3
						C132.6,27.4,132.2,28,132.6,28.3L132.6,28.3z"/>
				</g>
				<g>
					<path class="st8" d="M132.6,22.2c1.1,0.8,2.2,1.5,3.2,2.3c0.4,0.3,0.8-0.4,0.4-0.7c-1.1-0.8-2.2-1.5-3.2-2.3
						C132.6,21.3,132.2,21.9,132.6,22.2L132.6,22.2z"/>
				</g>
				<g>
					<path class="st8" d="M132.6,16.1c1.1,0.8,2.2,1.5,3.2,2.3c0.4,0.3,0.8-0.4,0.4-0.7c-1.1-0.8-2.2-1.5-3.2-2.3
						C132.6,15.2,132.2,15.8,132.6,16.1L132.6,16.1z"/>
				</g>
				<g>
					<path class="st8" d="M132.6,10c1.1,0.8,2.2,1.5,3.2,2.3c0.4,0.3,0.8-0.4,0.4-0.7c-1.1-0.8-2.2-1.5-3.2-2.3
						C132.6,9.1,132.2,9.7,132.6,10L132.6,10z"/>
				</g>
				<g>
					<path class="st8" d="M132.6,3.9c1.1,0.8,2.2,1.5,3.2,2.3c0.4,0.3,0.8-0.4,0.4-0.7c-1.1-0.8-2.2-1.5-3.2-2.3
						C132.6,2.9,132.2,3.6,132.6,3.9L132.6,3.9z"/>
				</g>
				<g>
					<path class="st8" d="M132.6-2.2c1.1,0.8,2.2,1.5,3.2,2.3c0.4,0.3,0.8-0.4,0.4-0.7c-1.1-0.8-2.2-1.5-3.2-2.3
						C132.6-3.2,132.2-2.5,132.6-2.2L132.6-2.2z"/>
				</g>
			</g>
		</g>
	</g>
	<g>
		<path class="st0" d="M150.6,39.3c-1.9-2.8-6.2-5-9.6-5H6.1c-3.4,0-5,2.5-3.5,5.5l10.1,21.8c1.4,3,1.4,8,0,11.1L2.6,94.4
			c-1.4,3,0.2,5.5,3.5,5.5H141c3.4,0,7.7-2.3,9.6-5l15.9-22.8c1.9-2.8,1.9-7.3,0-10L150.6,39.3z"/>
		<g>
			<path class="st1" d="M150.6,36.2c-1.9-2.8-6.2-5-9.6-5H6.1c-3.4,0-5,2.5-3.5,5.5l10.1,21.8c1.4,3,1.4,8,0,11.1L2.6,91.4
				c-1.4,3,0.2,5.5,3.5,5.5H141c3.4,0,7.7-2.3,9.6-5l15.9-22.8c1.9-2.8,1.9-7.3,0-10L150.6,36.2z"/>
			<g>
				<defs>
					<path id="SVGID_7_" d="M150.6,36.2c-1.9-2.8-6.2-5-9.6-5H6.1c-3.4,0-5,2.5-3.5,5.5l10.1,21.8c1.4,3,1.4,8,0,11.1L2.6,91.4
						c-1.4,3,0.2,5.5,3.5,5.5H141c3.4,0,7.7-2.3,9.6-5l15.9-22.8c1.9-2.8,1.9-7.3,0-10L150.6,36.2z"/>
				</defs>
				<clipPath id="SVGID_2_">
					<use xlink:href="#SVGID_7_"  style="overflow:visible;"/>
				</clipPath>
				<g class="st2">
					<path class="st3" d="M180.2,101.2c-20.5,0.4-41,0.5-61.4,1.3c-14.6,0.5-29.1,0.3-43.8-0.1c-28.3-0.8-56.4-2.5-84.4-4.4
						c-1-0.1-1.8,0.2-1.6,0.6c0.1,0.2,0.1,0.3,0.2,0.5c0.1,0.2,0.5,0.4,0.9,0.4c27.6,1.8,55.3,3.5,83.2,4.3
						c14.8,0.4,29.7,0.8,44.5,0.2c20.7-0.9,41.6-0.9,62.4-1.3c0.7,0,1.3-0.2,1.3-0.5c0-0.1,0-0.2,0-0.3c0-0.1-0.1-0.2-0.2-0.3
						C181.1,101.3,180.8,101.2,180.2,101.2z"/>
					<path class="st3" d="M-4.5,91.1c6,0.3,11.9,1,17.7,1.6c13.4,1.5,26.6,3.3,39.8,5c9.6,1.2,19.4,2.7,29.4,3.2
						c6.1,0.3,12.4,0.2,18.6,0.1c26.6-0.3,53.3-1.4,79.7-2.6c0.8,0,1-0.3,0.9-0.5c0,0,0-0.1,0-0.1c0-0.1-0.1-0.2-0.1-0.3
						c-0.1-0.3-1-0.4-1.6-0.4c-24.9,1.1-50,2.1-75.1,2.5c-6.2,0.1-12.5,0.2-18.8,0c-8.9-0.2-17.6-1.5-26.1-2.5
						c-13.1-1.6-26.1-3.4-39.2-5c-10-1.2-20.4-2.4-30.8-2.7c-0.9,0-1.7,0.5-1.1,0.8C-9.4,91.2-7.5,91-4.5,91.1z"/>
					<path class="st3" d="M180.4,87.5c-8.3,0.7-16.6,1.6-24.8,2.5c-2.7,0.3-16.1,1.3-16.2,3c0,2.7,36.3,0.5,41.4,0.3
						c0.5,0,1-0.3,1-0.5c0-0.1-0.1-0.2-0.1-0.3c-0.1-0.3-0.5-0.6-1.3-0.5c-7.3,0.3-14.6,0.6-22,0.8c-3,0.1-6,0.1-9.1,0.1
						c-1.3,0-2.6,0-3.9,0c-0.1,0-0.2,0-0.3,0c4-0.8,9.3-1.2,13.4-1.6c7.4-0.8,15-1.5,22.5-2.2c0.4,0,0.7-0.1,0.8-0.3c0,0,0,0,0,0
						c0,0,0,0,0-0.1c0,0,0.1-0.1,0.1-0.2c0-0.2,0-0.3,0-0.5C182.1,87.7,181.2,87.4,180.4,87.5z"/>
					<path class="st3" d="M92.3,55.4C62.5,55.4,32.8,54.8,3,54c-0.9,0-1.5,0.3-1.3,0.7C1.8,54.8,1.9,55,2,55.1
						c0.1,0.2,0.5,0.4,0.9,0.4c0,0,0,0,0,0c0,0,0,0,0.1,0c0.1,0,0.1,0,0.2,0c29.3,0.7,58.6,1.2,87.9,1.3c18.4,0,36.5-0.7,54.9-1
						c15.7-0.3,31.4-0.5,47-0.6c0.8,0,1.3-0.2,1.3-0.5c0-0.1,0.1-0.2,0.1-0.3c0.1-0.3-0.6-0.6-1.3-0.6c-15.2,0.1-30.5,0.3-45.7,0.5
						C129.1,54.7,110.8,55.5,92.3,55.4z"/>
					<path class="st3" d="M193.4,63.2c-16.8-3.1-35.5-5-53.6-5.6c-8.3-0.3-16.8,0-25.1,0.1c-8.8,0-17.5,0-26.3,0
						c-28.5-0.1-57-0.3-85.4-0.6c-0.9,0-1.5,0.3-1.3,0.7c0.1,0.1,0.2,0.3,0.3,0.4c0.1,0.1,0.2,0.2,0.5,0.3c0.2,0.1,0.5,0.1,0.8,0.1
						C31,58.9,58.9,59,86.7,59.1c16.4,0,32.9-0.3,49.3-0.2c19.1,0.2,39.1,2.5,56.7,5.7c0.8,0.1,1.7-0.2,1.7-0.5c0-0.2,0-0.3,0-0.5
						C194.4,63.4,194,63.3,193.4,63.2z"/>
					<path class="st3" d="M2.9,63.2c20.5-0.3,41-0.3,61.5-0.9c14.6-0.4,29.1-0.1,43.8,0.4c28.3,0.9,56.3,2.8,84.4,4.9
						c1,0.1,1.8-0.2,1.6-0.6c-0.1-0.2-0.1-0.3-0.2-0.5c-0.1-0.2-0.5-0.4-0.9-0.4c-27.6-2-55.3-3.8-83.1-4.7
						c-14.8-0.5-29.7-1-44.5-0.5c-20.7,0.8-41.7,0.7-62.4,1c-0.7,0-1.3,0.2-1.3,0.5c0,0.1,0,0.2,0,0.3c0,0.1,0.1,0.2,0.2,0.3
						C2,63.1,2.4,63.2,2.9,63.2z"/>
					<path class="st3" d="M187.5,74.3c-6-0.4-11.9-1-17.7-1.7c-13.4-1.5-26.5-3.4-39.7-5.2c-9.5-1.3-19.4-2.8-29.4-3.4
						c-6.1-0.3-12.4-0.3-18.6-0.3C55.5,63.9,28.9,64.9,2.4,66c-0.8,0-1,0.3-0.9,0.5c0,0,0,0.1,0,0.1c0,0.1,0.1,0.2,0.1,0.3
						c0.1,0.3,1,0.4,1.6,0.4c25-1,50.1-1.8,75.2-2.1c6.2-0.1,12.5-0.1,18.8,0.1c8.9,0.2,17.6,1.6,26,2.7c13.1,1.7,26,3.6,39.1,5.2
						c10,1.2,20.3,2.5,30.7,2.9c0.9,0,1.7-0.4,1.2-0.8C192.4,74.3,190.4,74.5,187.5,74.3z"/>
					<path class="st3" d="M1.8,79.1c6.2,0.4,13.4-0.7,19.3-1.2c15.2-1.2,30.4-2.4,45.5-3.7c9.7-0.8,19.3-1.7,28.8-2.8
						c3.3-0.4,6.9-0.8,10-1.4c0.8-0.2,2-0.5,2-1c-0.3-1.6-8.6-1.5-11.3-1.6c-17-0.5-34.2-0.2-51.3,0c-14.1,0.2-28.1,0.4-42.2,0.7
						c-0.7,0-1.3,0.2-1.3,0.5c0,0.1,0,0.2,0,0.3c0,0.3,0.6,0.6,1.3,0.6c28.3-0.6,56.7-1.2,85.1-0.9c3.1,0,6.2,0.1,9.3,0.2
						c1.2,0,2.4,0.1,3.6,0.1c0.5,0,0.9,0.1,1.2,0.1c-1.5,0.2-3.4,0.5-4.3,0.6c-14.6,1.9-29.8,3.2-44.9,4.4
						c-16.9,1.4-33.9,2.7-50.9,4c-0.7,0.1-1,0.3-0.9,0.5C0.8,78.8,1.1,79,1.8,79.1z"/>
					<path class="st3" d="M1.8,75.4c-0.4,0-0.7,0.1-0.8,0.3c0,0,0,0,0,0c0,0,0,0,0,0c0,0-0.1,0.1-0.1,0.2c0,0.2,0,0.3,0,0.5
						c0,0.4,0.8,0.6,1.6,0.5c8.3-0.7,16.6-1.5,24.8-2.4c2.7-0.3,16.2-1.2,16.2-2.9c0.1-2.7-36.3-0.7-41.4-0.6c-0.5,0-1,0.3-1,0.5
						c0,0.1,0.1,0.2,0.1,0.3c0.1,0.3,0.5,0.6,1.3,0.6c7.3-0.3,14.6-0.5,22-0.6c3-0.1,6-0.1,9.1-0.1c1.3,0,2.6,0,3.9,0
						c0.1,0,0.2,0,0.3,0c-4,0.8-9.4,1.1-13.4,1.5C16.9,74,9.4,74.7,1.8,75.4z"/>
					<path class="st3" d="M184.8,77.1c-7.2-0.5-14.3-1.1-21.4-1.8c-13.5-1.2-27.1-3.7-41-3.1c-8.4,0.4-16.5,1.2-24.7,2
						c-9.9,0.9-19.9,1.7-29.9,2.5c-8.5,0.7-17.1,1.3-25.6,2c-3,0.2-6.6,0.3-9.5,0.7c-0.3,0-0.5,0.1-0.7,0.1
						c-0.8,0.2-0.4,0.9,0.6,0.9c-8.8-0.1-17.5-0.3-26.3-0.5c-5-0.1-10.3-0.1-15.3-0.5c-0.7-0.1-1.8,0.1-1.7,0.5
						c0.1,0.2,0.1,0.3,0.2,0.5c0.1,0.2,0.3,0.5,1,0.5c4.8,0.4,9.9,0.3,14.7,0.4c9.6,0.2,19.1,0.3,28.7,0.4
						c14.2,0.2,28.4,0.3,42.7,0.5c0.6,0,1-0.1,1.2-0.3c5.9-0.3,11.9-1,17.6-1.4c6.8-0.5,13.6-0.9,20.5-1.2c4.4-0.2,8.9-0.5,13.4-0.2
						c20.9,1.3,42,2.3,63,3.3c0.9,0,1.4-0.3,1.3-0.7c-0.1-0.2-0.2-0.3-0.2-0.5c-0.1-0.2-0.7-0.4-1.2-0.4c-20.8-1-41.6-1.9-62.3-3.2
						c-10.1-0.6-21.2,0.6-31,1.2c-9.7,0.6-19.3,1.3-28.9,2c-10.9-0.2-21.8-0.3-32.7-0.5c6.9-0.1,13.8-1,20.4-1.5
						c19-1.5,37.8-3.3,56.8-4.9c7.6-0.6,15.1-0.9,22.8-0.2c6.8,0.7,13.4,1.6,20.2,2.3c11.6,1.1,23.8,2.5,35.6,2.8
						c1.2,0,1.6-0.5,1-0.9C191.9,77.1,187.6,77.3,184.8,77.1z"/>
					<path class="st3" d="M192.2,84.4c-4.8-0.4-9.9-0.4-14.7-0.5c-9.5-0.2-19.1-0.4-28.6-0.6c-11.7-0.2-23.4-0.4-35-0.6
						c0,0-0.1,0-0.1,0c0,0,0,0,0,0c-0.1,0-0.1,0-0.2,0c0,0,0,0-0.1,0c0,0-0.1,0-0.1,0c0,0-0.1,0-0.1,0c-1.8-0.1-3.6-0.1-5.5,0
						c-0.5,0-1,0-1.5,0c-0.4,0-0.7,0-0.9,0.1c-6,0.3-12.1,1.1-17.8,1.5c-6.8,0.5-13.6,1-20.5,1.4c-4.4,0.2-8.9,0.5-13.4,0.3
						c-21-1.2-42-2-63-2.9c-0.9,0-1.4,0.3-1.3,0.7c0.1,0.2,0.2,0.3,0.3,0.5c0.1,0.2,0.7,0.4,1.3,0.4c20.8,0.9,41.6,1.7,62.4,2.8
						c10.1,0.5,21.2-0.7,31-1.4c9-0.6,17.9-1.3,26.8-2c0.5,0,0.9,0,1.4,0.1c8.4,0.2,16.8,0.3,25.2,0.5c-4.1,0.3-8.2,0.8-12.2,1.2
						c-19,1.6-37.7,3.6-56.7,5.2c-7.5,0.7-15.1,1-22.7,0.3c-6.8-0.6-13.5-1.5-20.2-2.1C14.2,88,1.9,86.7-10,86.5
						c-1.2,0-1.6,0.5-0.9,0.9c1.9,1,6.2,0.8,9,1c7.2,0.4,14.3,1,21.4,1.6c13.5,1.2,27.2,3.6,41.1,2.9c8.4-0.4,16.5-1.3,24.7-2.1
						c9.9-1,19.8-1.9,29.8-2.7c8.5-0.7,17-1.4,25.5-2.1c3-0.2,6.6-0.3,9.4-0.8c0.3,0,0.5-0.1,0.7-0.1c0.2-0.1,0.3-0.1,0.4-0.2
						c7.8,0.2,15.6,0.4,23.4,0.6c-4.4,0.3-8.9,0.9-12.8,1.2c-15.2,1.3-30.3,2.6-45.4,4c-9.6,0.9-19.3,1.8-28.7,3
						c-3.3,0.4-6.9,0.8-9.9,1.5c-0.8,0.2-2,0.5-1.9,1c0.3,1.6,8.6,1.4,11.3,1.5c17,0.4,34.2,0,51.2-0.3c14.1-0.3,28.1-0.6,42.1-0.9
						c0.7,0,1.3-0.2,1.3-0.5c0-0.1,0-0.2,0-0.3c0-0.3-0.6-0.6-1.3-0.5c-28.3,0.8-56.7,1.5-85.1,1.4c-3.1,0-6.2,0-9.3-0.1
						c-1.2,0-2.4-0.1-3.6-0.1c-0.5,0-0.9-0.1-1.2-0.1c1.4-0.2,3.4-0.5,4.2-0.6c14.5-2,29.8-3.3,44.7-4.7c16.9-1.5,33.8-2.9,50.8-4.3
						c0.7-0.1,1-0.3,0.9-0.5c0-0.1,0-0.2-0.1-0.3c3.3,0.1,6.6,0.2,9.8,0.4c0.7,0.1,1.8-0.1,1.7-0.5c0-0.2-0.1-0.3-0.1-0.5
						C193.1,84.7,192.8,84.5,192.2,84.4z"/>
					<path class="st3" d="M91.7,51.8c29.7-0.1,59.5,0.3,89.2,0.9c0.9,0,1.4-0.3,1.3-0.7c-0.1-0.2-0.2-0.3-0.2-0.5
						c-0.1-0.2-0.5-0.4-1-0.4c0,0,0,0,0,0c0,0,0,0-0.1,0c-0.1,0-0.1,0-0.2,0c-29.3-0.6-58.6-0.9-87.9-0.8
						c-18.4,0.1-36.5,0.9-54.8,1.3c-15.7,0.4-31.3,0.6-47,0.8c-0.8,0-1.2,0.2-1.3,0.5c0,0.1,0,0.2-0.1,0.3c-0.1,0.3,0.6,0.6,1.3,0.5
						c15.2-0.2,30.4-0.4,45.6-0.8C55,52.7,73.2,51.9,91.7,51.8z"/>
					<path class="st3" d="M-10.5,44.1c0,0.3,0.4,0.4,1,0.5c16.8,3,35.6,4.8,53.7,5.3c8.4,0.2,16.8-0.1,25.1-0.2
						c8.8-0.1,17.5-0.1,26.3-0.2c28.5-0.1,57,0,85.4,0.1c0.9,0,1.5-0.3,1.3-0.7c-0.1-0.1-0.2-0.3-0.3-0.4c-0.1-0.1-0.2-0.2-0.5-0.3
						c-0.2-0.1-0.5-0.1-0.8-0.1c-27.9-0.1-55.8-0.1-83.6,0c-16.4,0.1-32.9,0.5-49.3,0.4c-19.1-0.1-39.1-2.3-56.8-5.4
						c-0.8-0.1-1.7,0.2-1.7,0.5C-10.5,43.8-10.5,44-10.5,44.1z"/>
					<path class="st3" d="M-9.3,41.8c27.6,1.8,55.3,3.5,83.2,4.3c14.8,0.4,29.7,0.8,44.5,0.2c20.7-0.9,41.6-0.9,62.4-1.3
						c0.7,0,1.3-0.2,1.3-0.5c0-0.1,0-0.2,0-0.3c0-0.1-0.1-0.2-0.2-0.3c-0.2-0.1-0.5-0.2-1.1-0.2c-20.5,0.4-41,0.6-61.4,1.3
						c-14.6,0.5-29.1,0.3-43.8-0.1c-28.3-0.8-56.4-2.5-84.4-4.4c-1-0.1-1.8,0.2-1.6,0.6c0.1,0.2,0.1,0.3,0.2,0.5
						C-10.1,41.6-9.7,41.8-9.3,41.8z"/>
					<path class="st3" d="M-3.9,33.5c6,0.3,11.9,1,17.7,1.6c13.4,1.5,26.6,3.3,39.8,5c9.6,1.2,19.4,2.7,29.4,3.2
						c6.2,0.3,12.4,0.2,18.6,0.1c26.6-0.3,53.3-1.4,79.7-2.6c0.8,0,1-0.3,0.9-0.5c0,0,0-0.1,0-0.1c0-0.1-0.1-0.2-0.1-0.3
						c-0.1-0.3-1-0.4-1.6-0.4c-24.9,1.1-50,2.1-75.1,2.5c-6.2,0.1-12.5,0.2-18.8,0c-8.9-0.2-17.6-1.5-26.1-2.5
						c-13.1-1.6-26.1-3.4-39.2-5C11.4,33.3,1,32-9.4,31.7c-0.9,0-1.7,0.5-1.1,0.8C-8.8,33.5-6.8,33.3-3.9,33.5z"/>
					<path class="st3" d="M88.2,35.9c-3.3,0.4-6.9,0.8-9.9,1.5c-0.8,0.2-2,0.5-1.9,1c0.3,1.6,8.6,1.4,11.3,1.5
						c17,0.4,34.2,0,51.2-0.3c14.1-0.3,28.1-0.6,42.1-0.9c0.7,0,1.3-0.2,1.3-0.5c0-0.1,0-0.2,0-0.3c0-0.3-0.6-0.6-1.3-0.5
						c-28.3,0.8-56.7,1.5-85.1,1.4c-3.1,0-6.2,0-9.3-0.1c-1.2,0-2.4-0.1-3.6-0.1c-0.5,0-0.9-0.1-1.2-0.1c1.4-0.2,3.4-0.5,4.2-0.6
						c14.5-2,29.8-3.3,44.7-4.7c16.9-1.5,33.8-2.9,50.8-4.3c0.7-0.1,1-0.3,0.9-0.5c0.1-0.2-0.2-0.5-0.9-0.5
						c-6.2-0.4-13.4,0.8-19.3,1.3c-15.2,1.3-30.3,2.6-45.4,4C107.3,33.8,97.6,34.8,88.2,35.9z"/>
					<path class="st3" d="M181.1,29.9c-8.3,0.7-16.6,1.6-24.8,2.5c-2.7,0.3-16.1,1.3-16.2,3c0,2.7,36.3,0.5,41.4,0.3
						c0.5,0,1-0.3,1-0.5c0-0.1-0.1-0.2-0.1-0.3c-0.1-0.3-0.5-0.6-1.3-0.5c-7.3,0.3-14.6,0.6-22,0.8c-3,0.1-6,0.1-9.1,0.1
						c-1.3,0-2.6,0-3.9,0c-0.1,0-0.2,0-0.3,0c4-0.8,9.3-1.2,13.4-1.6c7.4-0.8,15-1.5,22.5-2.2c0.4,0,0.7-0.1,0.8-0.3c0,0,0,0,0,0
						c0,0,0,0,0,0c0,0,0.1-0.1,0.1-0.2c0-0.2,0-0.3,0-0.5C182.7,30,181.9,29.8,181.1,29.9z"/>
					<path class="st3" d="M-1.2,30.6c7.2,0.4,14.3,1,21.4,1.6c13.5,1.2,27.2,3.6,41.1,2.9c8.4-0.4,16.5-1.3,24.7-2.1
						c9.9-1,19.8-1.9,29.8-2.7c8.5-0.7,17-1.4,25.5-2.1c3-0.2,6.6-0.3,9.4-0.8c0.3,0,0.5-0.1,0.7-0.1c0.8-0.3,0.3-1-0.9-0.9
						c0,0,0,0-0.1,0c-8.2-0.3-16.5,0.9-24.4,1.6c-19,1.6-37.7,3.6-56.7,5.2c-7.5,0.7-15.1,1-22.7,0.3c-6.8-0.6-13.5-1.5-20.2-2.1
						C14.8,30.3,2.6,29-9.3,28.8c-1.2,0-1.6,0.5-0.9,0.9C-8.3,30.7-4.1,30.5-1.2,30.6z"/>
					<path class="st3" d="M-9.7,26.4c0.1,0.2,0.7,0.4,1.3,0.4c20.8,0.9,41.6,1.7,62.4,2.8c10.1,0.5,21.2-0.7,31-1.4
						c9.7-0.7,19.4-1.4,29.1-2.2c0.4,0,0.7-0.1,0.8-0.2c0.4-0.2,0.3-0.5,0-0.7c0,0,0,0,0,0c0,0-0.1,0-0.2-0.1c0,0,0,0,0,0
						c-0.1,0-0.1,0-0.2-0.1c0,0,0,0,0,0c-0.1,0-0.1,0-0.2,0c0,0,0,0-0.1,0c0,0-0.1,0-0.1,0c0,0-0.1,0-0.1,0
						c-8.4-0.3-17.4,1-25.6,1.6c-6.8,0.5-13.6,1-20.5,1.4c-4.4,0.2-8.9,0.5-13.4,0.3c-21-1.2-42-2-63.1-2.9c-0.9,0-1.4,0.3-1.3,0.7
						C-9.9,26.1-9.8,26.3-9.7,26.4z"/>
					<path class="st3" d="M-8.8,23.4c4.8,0.4,9.9,0.3,14.7,0.4c9.5,0.2,19.1,0.3,28.7,0.4c14.2,0.2,28.4,0.3,42.7,0.5
						c1.7,0,1.7-1,0-1.1c-2.1-0.1-4.2-0.2-6.2-0.2c-12.4-0.2-24.8-0.4-37.2-0.6c-8.9-0.1-17.9-0.3-26.8-0.5
						c-5-0.1-10.3-0.1-15.3-0.5C-9,21.8-10,22-9.9,22.3c0.1,0.2,0.1,0.3,0.2,0.5C-9.7,23.1-9.4,23.3-8.8,23.4z"/>
				</g>
			</g>
		</g>
	</g>
</g>
<g>
	<path class="st5" d="M36.8,71.2c0,0.2,0,0.3-0.1,0.3c0,0-0.1,0-0.3,0.1c-0.4,0-1.1,0.1-1.9,0.1c-1.2,0-1.8,0-2-0.1
		c-0.2,0-0.3-0.1-0.3-0.3c0-0.6,0-1.5,0.1-2.6c0.1-1.2,0.1-2,0.1-2.6c0-0.3-0.1-0.5-0.2-0.5c-0.3-0.1-1.1-0.1-2.7-0.1
		c-1.5,0-2.4,0-2.7,0.1c-0.2,0-0.2,0.2-0.2,0.5c0,0.6,0,1.4,0.1,2.6c0,1.1,0.1,2,0.1,2.6c0,0.2-0.1,0.4-0.3,0.4
		c-0.2,0-0.9,0.1-2.1,0.1c-1,0-1.6,0-1.9-0.1c-0.2,0-0.3-0.2-0.3-0.3c0-0.8,0-2,0.1-3.6c0.1-1.6,0.1-2.8,0.1-3.6
		c0-0.9,0-2.1-0.1-3.9c-0.1-1.7-0.1-3-0.1-3.9c0-0.2,0.1-0.2,0.2-0.2c0.2,0,0.6,0,1,0s0.8,0,1,0c0.2,0,0.6,0,1.1,0s0.8,0,1.1,0
		c0.1,0,0.2,0.1,0.2,0.2c0,0.6,0,1.4-0.1,2.5c-0.1,1.1-0.1,1.9-0.1,2.5c0,0.3,0.1,0.4,0.2,0.5c0.2,0.1,1.1,0.1,2.8,0.1
		c1.6,0,2.5,0,2.7-0.1c0.2,0,0.3-0.2,0.3-0.5c0-0.5,0-1.3-0.1-2.4c-0.1-1.1-0.1-1.9-0.1-2.4c0-0.2,0.1-0.3,0.3-0.3c0.2,0,0.5,0,1,0
		c0.4,0,0.8,0,1,0c0.2,0,0.5,0,1,0c0.4,0,0.8,0,1,0c0.2,0,0.3,0.1,0.3,0.3c0,0.8,0,2.1-0.1,3.8c-0.1,1.7-0.1,3-0.1,3.8
		c0,0.8,0,2,0.1,3.6C36.8,69.2,36.8,70.4,36.8,71.2z"/>
	<path class="st5" d="M49.9,66c0,0.6,0,1.4,0.1,2.5c0.1,1.1,0.1,2,0.1,2.5c0,0.3-0.1,0.5-0.4,0.5c-0.9,0.1-2,0.1-3.1,0.1
		c-0.1,0-0.2-0.2-0.3-0.6c0-0.4-0.1-0.6-0.2-0.6c-0.1,0-0.1,0.1-0.2,0.2c-0.8,0.8-1.7,1.3-2.7,1.3c-1.4,0-2.6-0.6-3.6-1.7
		c-0.9-1.1-1.3-2.3-1.3-3.8c0-1.7,0.5-3.1,1.4-4.1c1-1.1,2.3-1.6,3.9-1.6c1.2,0,2.1,0.4,2.7,1.2c0,0,0.1,0.1,0.1,0.1
		c0.1,0,0.1-0.2,0.2-0.5c0.1-0.4,0.2-0.5,0.3-0.5c0.3,0,0.8,0.1,1.6,0.2c0.7,0.1,1.3,0.3,1.6,0.4c0.1,0,0.2,0.1,0.2,0.2
		c0,0,0,0.1,0,0.2C50,63.1,49.9,64.6,49.9,66z M46.3,66.1c0-0.6-0.2-1.1-0.6-1.6s-0.9-0.6-1.5-0.6s-1.1,0.2-1.5,0.6
		c-0.4,0.4-0.6,0.9-0.6,1.6c0,0.6,0.2,1.1,0.6,1.5c0.4,0.4,0.9,0.6,1.5,0.6c0.6,0,1.1-0.2,1.5-0.6C46.1,67.3,46.3,66.7,46.3,66.1z"
		/>
	<path class="st5" d="M64.1,66.2c0,1.5-0.4,2.8-1.3,3.9c-0.9,1.1-2.2,1.7-3.7,1.7c-1.1,0-2-0.3-2.7-1c-0.1,0-0.1-0.1-0.1-0.1
		c-0.1,0-0.1,0.1-0.2,0.4c-0.1,0.3-0.1,0.4-0.2,0.5c-0.1,0-1.2,0.1-3.2,0.1c-0.5,0-0.7-0.1-0.7-0.3c0,0,0-0.1,0-0.2
		c0.1-1.2,0.2-3.4,0.2-6.7c0-3.1-0.1-5.9-0.3-8.2l0-0.1c0-0.1,0.1-0.2,0.3-0.2c0.2,0,0.8-0.1,1.9-0.2c0.8-0.1,1.4-0.1,1.9-0.1
		c0.1,0,0.2,0.1,0.2,0.4c0,0.3,0,0.7-0.1,1.1c0,0.6-0.1,1-0.1,1.2c0,0.7-0.1,1.7-0.1,3c0,0.2,0.1,0.3,0.2,0.3c0.1,0,0.1,0,0.2-0.1
		c0.7-0.7,1.5-1.1,2.6-1.1c1.6,0,2.9,0.5,3.8,1.6C63.7,63.2,64.1,64.5,64.1,66.2z M60.1,66c0-0.6-0.2-1.1-0.6-1.6
		c-0.4-0.4-0.9-0.6-1.5-0.6c-0.6,0-1.1,0.2-1.5,0.6c-0.4,0.4-0.5,0.9-0.5,1.6c0,0.6,0.2,1.2,0.5,1.6c0.4,0.4,0.9,0.6,1.5,0.6
		c0.6,0,1.1-0.2,1.5-0.7C59.9,67.2,60.1,66.7,60.1,66z"/>
	<path class="st5" d="M69.5,66.5c0,0.5,0,1.3,0,2.4c0,1.1,0,1.9,0,2.4c0,0.2-0.1,0.2-0.3,0.3c-0.3,0-0.8,0.1-1.7,0.1
		c-0.9,0-1.5,0-1.7-0.1c-0.2,0-0.3-0.1-0.3-0.1c0,0,0-0.1,0-0.3c0-0.5,0-1.3,0-2.3c0-1,0-1.8,0-2.3c0-2.1-0.1-3.8-0.2-5
		c0-0.1,0-0.2,0-0.2c0-0.1,0.1-0.2,0.3-0.2c0.2,0,0.5,0,0.9,0.1c0.4,0,0.7,0.1,1,0.1s0.5,0,1-0.1c0.4,0,0.7-0.1,1-0.1
		c0.2,0,0.3,0.1,0.3,0.2c0,0,0,0.1,0,0.2C69.6,62.9,69.5,64.6,69.5,66.5z M69.8,58.3c0,1.3-0.7,1.9-2.2,1.9c-0.6,0-1.1-0.2-1.5-0.5
		c-0.4-0.4-0.7-0.8-0.7-1.4c0-0.6,0.2-1,0.7-1.4c0.4-0.3,0.9-0.5,1.5-0.5c0.6,0,1.1,0.2,1.5,0.5C69.6,57.2,69.8,57.7,69.8,58.3z"/>
	<path class="st5" d="M75.7,64.9c0,2,0,3.6,0,4.6c0,0.2,0,0.5,0,0.9c0,0.4,0,0.7,0,0.9c0,0.2-0.1,0.2-0.3,0.3
		c-0.3,0.1-0.9,0.1-1.8,0.1c-0.9,0-1.4,0-1.7-0.1c-0.2,0-0.3-0.1-0.3-0.3c0,0,0-0.2,0-0.5c0-0.7,0-1.6,0-2.9c0-1.3,0-2.3,0-2.9
		c0-3.1,0-4.5,0-4.2c0-1.6-0.1-3-0.3-4.2c0-0.1,0-0.1,0-0.2c0-0.2,0.1-0.2,0.3-0.2h3.9c0.2,0,0.3,0.1,0.3,0.2l0,0.2
		C75.8,59.7,75.7,62.5,75.7,64.9z"/>
	<path class="st5" d="M81.8,66.5c0,0.5,0,1.3,0,2.4c0,1.1,0,1.9,0,2.4c0,0.2-0.1,0.2-0.3,0.3c-0.3,0-0.8,0.1-1.7,0.1
		c-0.9,0-1.5,0-1.7-0.1c-0.2,0-0.3-0.1-0.3-0.1c0,0,0-0.1,0-0.3c0-0.5,0-1.3,0-2.3c0-1,0-1.8,0-2.3c0-2.1-0.1-3.8-0.2-5
		c0-0.1,0-0.2,0-0.2c0-0.1,0.1-0.2,0.3-0.2c0.2,0,0.5,0,0.9,0.1c0.4,0,0.7,0.1,1,0.1s0.5,0,1-0.1c0.4,0,0.7-0.1,1-0.1
		c0.2,0,0.3,0.1,0.3,0.2c0,0,0,0.1,0,0.2C81.9,62.9,81.8,64.6,81.8,66.5z M82.1,58.3c0,1.3-0.7,1.9-2.2,1.9c-0.6,0-1.1-0.2-1.5-0.5
		c-0.4-0.4-0.7-0.8-0.7-1.4c0-0.6,0.2-1,0.7-1.4c0.4-0.3,0.9-0.5,1.5-0.5c0.6,0,1.1,0.2,1.5,0.5C81.9,57.2,82.1,57.7,82.1,58.3z"/>
	<path class="st5" d="M95.7,55.9c0-0.2,0,0.1-0.1,0.7c-0.1,0.8-0.1,1.9-0.2,3.1c-0.1,1.4-0.1,3.1-0.1,4.9c0,3,0.1,5.2,0.3,6.5
		c0,0.1,0,0.2,0,0.3c0,0.1-0.1,0.1-0.2,0.1c-0.3,0-1.2,0.1-2.9,0.1c-0.4,0-0.6-0.1-0.7-0.2c0-0.3,0-0.6,0-0.8c0-0.1,0-0.1-0.1-0.2
		c0,0-0.1,0.1-0.2,0.1c-0.8,0.8-1.8,1.2-3,1.2c-1.6,0-2.8-0.5-3.7-1.6c-0.9-1-1.3-2.4-1.3-3.9c0-1.6,0.4-2.9,1.3-4
		c0.9-1.1,2.2-1.7,3.8-1.7c1.1,0,2,0.4,2.6,1.1c0.1,0.1,0.2,0.2,0.2,0.2c0.1,0,0.1-0.1,0.1-0.3c0-0.6,0-1.4,0-2.5c0-1.1,0-2,0-2.5
		c0-0.2,0.1-0.3,0.2-0.4c0.5,0,1.1-0.1,1.9-0.1c1.5-0.2,2.1-0.3,2-0.3C95.6,55.6,95.7,55.7,95.7,55.9z M91.5,66
		c0-0.6-0.2-1.1-0.6-1.5c-0.4-0.4-0.9-0.7-1.5-0.7c-0.6,0-1.1,0.2-1.4,0.7c-0.4,0.4-0.5,1-0.5,1.6c0,0.6,0.2,1.1,0.5,1.5
		c0.4,0.4,0.8,0.7,1.4,0.7s1.1-0.2,1.5-0.7C91.3,67.2,91.5,66.6,91.5,66z"/>
	<path class="st5" d="M108.4,66c0,0.6,0,1.4,0.1,2.5c0.1,1.1,0.1,2,0.1,2.5c0,0.3-0.1,0.5-0.4,0.5c-0.9,0.1-2,0.1-3.1,0.1
		c-0.1,0-0.2-0.2-0.3-0.6c0-0.4-0.1-0.6-0.2-0.6c-0.1,0-0.1,0.1-0.2,0.2c-0.8,0.8-1.7,1.3-2.7,1.3c-1.4,0-2.6-0.6-3.6-1.7
		c-0.9-1.1-1.3-2.3-1.3-3.8c0-1.7,0.5-3.1,1.4-4.1c1-1.1,2.3-1.6,3.9-1.6c1.2,0,2.1,0.4,2.7,1.2c0,0,0.1,0.1,0.1,0.1
		c0.1,0,0.1-0.2,0.2-0.5c0.1-0.4,0.2-0.5,0.3-0.5c0.3,0,0.8,0.1,1.6,0.2c0.7,0.1,1.3,0.3,1.6,0.4c0.1,0,0.2,0.1,0.2,0.2
		c0,0,0,0.1,0,0.2C108.5,63.1,108.4,64.6,108.4,66z M104.9,66.1c0-0.6-0.2-1.1-0.6-1.6s-0.9-0.6-1.5-0.6s-1.1,0.2-1.5,0.6
		c-0.4,0.4-0.6,0.9-0.6,1.6c0,0.6,0.2,1.1,0.6,1.5c0.4,0.4,0.9,0.6,1.5,0.6c0.6,0,1.1-0.2,1.5-0.6C104.7,67.3,104.9,66.7,104.9,66.1
		z"/>
	<path class="st5" d="M122.4,55.9c0-0.2,0,0.1-0.1,0.7c-0.1,0.8-0.1,1.9-0.2,3.1c-0.1,1.4-0.1,3.1-0.1,4.9c0,3,0.1,5.2,0.3,6.5
		c0,0.1,0,0.2,0,0.3c0,0.1-0.1,0.1-0.2,0.1c-0.3,0-1.2,0.1-2.9,0.1c-0.4,0-0.6-0.1-0.7-0.2c0-0.3,0-0.6,0-0.8c0-0.1,0-0.1-0.1-0.2
		c0,0-0.1,0.1-0.2,0.1c-0.8,0.8-1.8,1.2-3,1.2c-1.6,0-2.8-0.5-3.7-1.6c-0.9-1-1.3-2.4-1.3-3.9c0-1.6,0.4-2.9,1.3-4
		c0.9-1.1,2.2-1.7,3.8-1.7c1.1,0,2,0.4,2.6,1.1c0.1,0.1,0.2,0.2,0.2,0.2c0.1,0,0.1-0.1,0.1-0.3c0-0.6,0-1.4,0-2.5c0-1.1,0-2,0-2.5
		c0-0.2,0.1-0.3,0.2-0.4c0.5,0,1.1-0.1,1.9-0.1c1.5-0.2,2.1-0.3,2-0.3C122.3,55.6,122.4,55.7,122.4,55.9z M118.2,66
		c0-0.6-0.2-1.1-0.6-1.5c-0.4-0.4-0.9-0.7-1.5-0.7c-0.6,0-1.1,0.2-1.4,0.7c-0.4,0.4-0.5,1-0.5,1.6c0,0.6,0.2,1.1,0.5,1.5
		c0.4,0.4,0.8,0.7,1.4,0.7s1.1-0.2,1.5-0.7C118,67.2,118.2,66.6,118.2,66z"/>
	<path class="st5" d="M134.1,65.6c0,0.7-0.2,1.2-0.7,1.3c-0.1,0-0.8,0.1-2.3,0.2c-0.9,0.1-2.2,0.2-3.9,0.3c0.1,0.5,0.4,0.8,0.9,1.1
		c0.4,0.2,0.9,0.3,1.5,0.3c0.7,0,1.3-0.2,2-0.5c0.3-0.2,0.6-0.4,0.8-0.5c0.2,0.1,0.4,0.4,0.8,1.1c0.4,0.7,0.5,1.1,0.5,1.3
		c0,0.1-0.1,0.1-0.2,0.3c-0.9,1-2.3,1.4-4.2,1.4c-1.8,0-3.2-0.5-4.2-1.5c-1.1-1-1.7-2.4-1.7-4.2c0-1.7,0.5-3.1,1.5-4.2
		c1-1.1,2.4-1.7,4-1.7c1.4,0,2.6,0.5,3.6,1.5C133.6,62.9,134.1,64.1,134.1,65.6z M130.3,64.9c0-0.5-0.2-0.9-0.5-1.2
		c-0.3-0.3-0.7-0.5-1.2-0.5c-0.5,0-0.8,0.2-1.1,0.6c-0.3,0.4-0.4,0.8-0.4,1.3c0,0.2,0.1,0.3,0.3,0.3c0.5,0,1.4-0.1,2.5-0.3
		C130.1,65,130.3,65,130.3,64.9z"/>
	<path class="st5" d="M141.8,62.6c0,0.1-0.1,0.2-0.2,0.3c-0.2-0.1-0.4-0.1-0.6-0.1c-0.4,0-0.8,0.1-1.1,0.3c-0.4,0.2-0.5,0.5-0.5,0.9
		c0,0.3,0.2,0.6,0.6,1c0.6,0.6,0.9,1,1.1,1.2c0.4,0.6,0.6,1.2,0.6,1.8c0,0.4-0.1,0.8-0.2,1.2c-0.2,0.5-0.4,0.8-0.6,1
		c-0.5,0.5-1.2,0.9-1.9,1.2c-0.8,0.3-1.5,0.5-2.2,0.5c-0.1,0-0.5-0.4-1-1.2c-0.5-0.8-0.8-1.3-0.8-1.5c0-0.1,0-0.1,0.1-0.1
		c0.5-0.1,1-0.2,1.6-0.3c0.6-0.2,1-0.5,1-1c0-0.3-0.2-0.7-0.6-1.1c-0.7-0.7-1-1.1-1.1-1.2c-0.4-0.5-0.6-1.1-0.6-1.7
		c0-1.1,0.6-2,1.7-2.8c1-0.7,2.1-1,3.2-1c0.1,0,0.4,0.4,0.9,1.2C141.6,62,141.8,62.5,141.8,62.6z"/>
</g>
</svg>
