<?xml version="1.0" encoding="utf-8"?>
<!-- Generator: Adobe Illustrator 19.2.1, SVG Export Plug-In . SVG Version: 6.00 Build 0)  -->
<svg version="1.1" xmlns="http://www.w3.org/2000/svg" xmlns:xlink="http://www.w3.org/1999/xlink" x="0px" y="0px"
	 viewBox="0 0 131.3 57.8" style="enable-background:new 0 0 131.3 57.8;" xml:space="preserve">
<style type="text/css">
	.st0{fill:#C6B89B;}
	.st1{fill:#B2A287;}
	.st2{fill:#D88832;}
	.st3{fill:#EDB26C;}
	.st4{clip-path:url(#SVGID_2_);}
	.st5{fill:#E09637;}
	.st6{fill:none;}
	.st7{fill:#663300;}
	.st8{fill:#F2F2F2;}
	.st9{clip-path:url(#SVGID_4_);}
	.st10{clip-path:url(#SVGID_6_);}
	.st11{clip-path:url(#SVGID_8_);}
	.st12{fill:url(#SVGID_9_);}
	.st13{fill:url(#SVGID_10_);}
	.st14{display:none;fill:#95E7FC;}
	.st15{display:none;fill:#7BE1FC;}
	.st16{fill:#23AF9E;}
	.st17{fill:#00A894;}
	.st18{fill:#4BD1C1;}
	.st19{fill:#42B8AA;}
	.st20{fill:#1B8F59;}
	.st21{display:none;}
	.st22{display:inline;fill:#7BE1FC;}
	.st23{display:inline;fill:#C2C0BC;}
	.st24{display:inline;fill:#B5B3AF;}
	.st25{display:inline;fill:#D3D1CD;}
	.st26{fill:#52AF52;}
	.st27{fill:#6FCE6F;}
	.st28{fill:#472D21;}
	.st29{fill:#479947;}
	.st30{fill:#E2A561;}
	.st31{clip-path:url(#SVGID_12_);}
	.st32{fill:#D3842D;}
	.st33{clip-path:url(#SVGID_14_);}
	.st34{fill:#5E3918;}
	.st35{fill:#633001;}
	.st36{clip-path:url(#SVGID_16_);}
	.st37{clip-path:url(#SVGID_18_);}
</style>
<g id="Capa_1">
</g>
<g id="Capa_2">
	<g>
		<g>
			<g>
				<polygon class="st2" points="113.3,14.4 4.3,5 3.6,13.2 10.8,16.5 2.9,21.1 2,31.3 10.2,36.4 1.5,38 0.7,46.9 109.7,56.4 
					130.3,37 				"/>
				<g>
					<polygon class="st3" points="113.6,10.9 4.6,1.5 3.9,9.7 11.1,13 3.2,17.6 2.3,27.8 10.5,32.9 1.8,34.5 1,43.4 110,52.9 
						130.6,33.5 					"/>
					<g>
						<defs>
							<polygon id="SVGID_17_" points="113.6,10.9 4.6,1.5 3.9,9.7 11.1,13 3.2,17.6 2.3,27.8 10.5,32.9 1.8,34.5 1,43.4 110,52.9 
								130.6,33.5 							"/>
						</defs>
						<clipPath id="SVGID_2_">
							<use xlink:href="#SVGID_17_"  style="overflow:visible;"/>
						</clipPath>
						<g class="st4">
							<path class="st5" d="M-7.4-4C-7.3-3.7-7-3.6-6.6-3.5c0,0,0,0,0,0c0,0,0,0,0.1,0c0.1,0,0.1,0,0.2,0C20.1-0.7,46.5,1.9,73,4.1
								c16.6,1.4,33,2.1,49.6,3.1c14.2,0.9,28.3,1.9,42.5,2.9c0.7,0.1,1.1-0.1,1.2-0.4c0-0.1,0.1-0.2,0.1-0.3
								c0.1-0.2-0.5-0.5-1.1-0.6c-13.8-1-27.5-2-41.2-2.9C107.3,5,90.8,4.3,74.1,2.9c-26.8-2.2-53.7-5-80.5-7.8
								C-7.2-5-7.7-4.7-7.6-4.4C-7.5-4.3-7.5-4.1-7.4-4z"/>
							<path class="st5" d="M-7.7-1.2C-7.6-1.1-7.5-1-7.3-0.9c0.2,0.1,0.4,0.1,0.7,0.2c25.1,2.3,50.3,4.5,75.5,6.5
								C83.7,7,98.6,7.9,113.4,9.2c17.2,1.6,35.1,5.1,50.8,9.3c0.7,0.2,1.5,0,1.5-0.3c0-0.1,0-0.3,0-0.4c0-0.2-0.3-0.4-0.8-0.5
								c-15-4-31.7-7.1-48.1-9c-7.5-0.8-15.2-1.2-22.7-1.8c-7.9-0.6-15.8-1.3-23.8-1.9C44.7,2.5,19,0.2-6.7-2.1
								C-7.5-2.2-8.1-2-7.9-1.6C-7.8-1.5-7.8-1.3-7.7-1.2z"/>
							<path class="st5" d="M-7,3.4C11.5,4.6,30,6.1,48.5,7C61.7,7.7,74.8,9,88,10.5c25.5,2.9,50.7,6.7,75.9,10.6
								c0.9,0.1,1.6,0,1.5-0.4c0-0.2-0.1-0.3-0.1-0.5c0-0.1-0.4-0.4-0.8-0.4c-24.8-3.8-49.7-7.5-74.8-10.4
								C76.3,7.9,62.9,6.4,49.5,5.8C30.8,5,11.9,3.4-6.9,2.1c-0.7,0-1.2,0.1-1.2,0.4c0,0.1,0,0.2-0.1,0.3c0,0.1,0,0.2,0.2,0.3
								C-7.8,3.2-7.5,3.3-7,3.4z"/>
							<path class="st5" d="M158.9,26.9c-5.4-0.8-10.7-1.8-15.9-2.8c-12-2.4-23.7-5-35.5-7.6c-8.5-1.9-17.3-4-26.3-5.2
								c-5.5-0.7-11.2-1.2-16.8-1.6C40.4,7.9,16.3,6.8-7.7,5.8c-0.7,0-1,0.2-0.9,0.4c0,0,0,0.1,0,0.1c0,0.1,0,0.2,0.1,0.3
								C-8.4,7-7.6,7.1-7.1,7.1c22.6,0.9,45.3,2,68,3.6c5.6,0.4,11.3,0.8,16.9,1.4c8,0.9,15.8,2.7,23.3,4.3
								c11.7,2.5,23.3,5.1,35,7.6c8.9,1.9,18.2,3.8,27.5,4.8c0.8,0.1,1.6-0.3,1.1-0.6C163.3,27.2,161.5,27.3,158.9,26.9z"/>
							<path class="st5" d="M-8.3,15.7c7.6,0,15.1-0.1,22.6-0.4c2.4-0.1,14.7,0.1,14.8-1.5c0.2-2.5-32.7-3.3-37.3-3.5
								c-0.5,0-0.9,0.2-0.9,0.4c0,0.1,0,0.2,0.1,0.3c0,0.2,0.4,0.6,1.1,0.6c6.6,0.3,13.3,0.6,19.9,1c2.7,0.2,5.5,0.4,8.2,0.6
								c1.2,0.1,2.3,0.2,3.5,0.3c0.1,0,0.2,0,0.3,0c-3.6,0.4-8.5,0.3-12.2,0.4c-6.8,0.2-13.6,0.2-20.5,0.2c-0.4,0-0.7,0.1-0.8,0.2
								c0,0,0,0,0,0c0,0,0,0,0,0c0,0-0.1,0.1-0.1,0.1c0,0.1,0,0.3-0.1,0.4C-9.8,15.4-9,15.7-8.3,15.7z"/>
							<path class="st5" d="M68.8,51.5c26.8,2.4,53.7,5.3,80.4,8.2c0.8,0.1,1.3-0.2,1.2-0.5c-0.1-0.1-0.1-0.3-0.2-0.4
								c-0.1-0.2-0.4-0.4-0.8-0.4c0,0,0,0,0,0c0,0,0,0-0.1,0c-0.1,0-0.1,0-0.2,0c-26.4-2.9-52.8-5.7-79.2-8.1
								c-16.6-1.5-33-2.3-49.6-3.4c-14.2-1-28.3-2-42.5-3.2c-0.7-0.1-1.1,0.1-1.2,0.4c0,0.1-0.1,0.2-0.1,0.3
								c-0.1,0.2,0.5,0.6,1.1,0.6c13.8,1.1,27.5,2.1,41.2,3.1C35.5,49.3,52.1,50.1,68.8,51.5z"/>
							<path class="st5" d="M-21.9,36.7C-7,40.7,9.7,44,26,45.9c7.5,0.9,15.2,1.3,22.7,1.9c7.9,0.7,15.8,1.3,23.8,2.1
								c25.7,2.3,51.4,4.7,77.1,7.2c0.8,0.1,1.4-0.2,1.2-0.5c-0.1-0.1-0.1-0.3-0.2-0.4c-0.1-0.1-0.2-0.2-0.4-0.3
								c-0.2-0.1-0.4-0.1-0.7-0.2c-25.1-2.4-50.3-4.7-75.4-7c-14.8-1.3-29.7-2.3-44.5-3.7c-17.2-1.7-35.1-5.3-50.7-9.6
								c-0.7-0.2-1.5,0-1.5,0.3c0,0.1,0,0.3,0,0.4C-22.7,36.3-22.4,36.5-21.9,36.7z"/>
							<path class="st5" d="M150,51.5c-18.5-1.3-37.1-2.9-55.5-4c-13.2-0.7-26.3-2.2-39.5-3.8c-25.5-3.1-50.6-7-75.7-11
								c-0.9-0.1-1.6,0-1.5,0.4c0,0.2,0.1,0.3,0.1,0.5c0,0.2,0.4,0.4,0.8,0.4c24.8,4,49.6,7.7,74.7,10.8c13.3,1.6,26.8,3.2,40.1,3.9
								c18.7,0.9,37.7,2.6,56.4,4c0.7,0,1.2-0.1,1.2-0.4c0-0.1,0-0.2,0.1-0.3c0-0.1,0-0.2-0.2-0.3C150.8,51.7,150.5,51.6,150,51.5z"
								/>
							<path class="st5" d="M-15.7,27.1C-10.3,27.9-5,28.9,0.2,30c11.9,2.4,23.6,5.1,35.4,7.8c8.5,1.9,17.3,4.1,26.2,5.3
								c5.5,0.8,11.2,1.2,16.8,1.7c24.1,2,48.2,3.2,72.1,4.3c0.7,0,1-0.2,0.9-0.4c0,0,0-0.1,0-0.1c0-0.1,0-0.2-0.1-0.3
								c-0.1-0.3-0.8-0.5-1.4-0.5c-22.6-1.1-45.3-2.3-68-4c-5.6-0.4-11.3-0.9-16.9-1.5c-8-0.9-15.7-2.8-23.3-4.4
								C30.3,35.2,18.7,32.6,7,30.1c-8.9-1.9-18.1-3.9-27.5-5c-0.8-0.1-1.6,0.3-1.1,0.6C-20.1,26.7-18.3,26.7-15.7,27.1z"/>
							<path class="st5" d="M152.3,37.3c-5.5-0.9-12.1-0.4-17.5-0.5c-13.8-0.1-27.6-0.2-41.4-0.2c-8.8,0-17.6,0-26.2,0.3
								c-3,0.1-6.3,0.1-9.1,0.5c-0.7,0.1-1.9,0.3-1.9,0.7c0.1,1.5,7.6,2,10.1,2.3c15.3,1.8,30.9,2.8,46.3,4
								c12.7,0.9,25.4,1.8,38.1,2.7c0.6,0,1.2-0.1,1.2-0.4c0-0.1,0-0.2,0-0.3c0-0.2-0.5-0.6-1.1-0.6c-25.6-1.7-51.3-3.4-76.9-5.8
								c-2.8-0.3-5.6-0.6-8.4-0.9c-1.1-0.1-2.1-0.3-3.2-0.4c-0.5-0.1-0.8-0.1-1.1-0.2c1.3-0.1,3.1-0.1,3.9-0.2
								c13.3-0.6,27.2-0.5,40.8-0.5c15.4,0,30.8,0.2,46.2,0.4c0.6,0,0.9-0.2,0.9-0.4C153.1,37.6,152.9,37.4,152.3,37.3z"/>
							<path class="st5" d="M152,40.7c0.4,0,0.7-0.1,0.8-0.2c0,0,0,0,0,0c0,0,0,0,0,0c0,0,0.1-0.1,0.1-0.1c0-0.1,0-0.3,0.1-0.4
								c0-0.3-0.7-0.6-1.4-0.6c-7.6,0-15.1,0.1-22.6,0.2c-2.4,0.1-14.7-0.2-14.9,1.4c-0.3,2.5,32.7,3.5,37.3,3.7
								c0.5,0,1-0.2,0.9-0.4c0-0.1,0-0.2-0.1-0.3c0-0.2-0.4-0.6-1.1-0.6c-6.6-0.3-13.3-0.7-19.9-1.1c-2.7-0.2-5.5-0.4-8.2-0.6
								c-1.2-0.1-2.3-0.2-3.5-0.3c-0.1,0-0.2,0-0.2,0c3.7-0.4,8.5-0.3,12.2-0.3C138.2,40.7,145.1,40.6,152,40.7z"/>
							<path class="st5" d="M-13,24.8c6.4,1,12.8,2.1,19.2,3.3c12.1,2.2,24.2,5.5,36.8,6c7.6,0.3,15,0.2,22.5,0.2
								c9-0.1,18.1,0,27.2,0c7.7,0.1,15.5,0.1,23.3,0.2c2.7,0,6,0.3,8.6,0.1c0.3,0,0.5,0,0.6-0.1c0.7-0.2,0.4-0.7-0.5-0.9
								c7.9,0.8,15.8,1.6,23.7,2.5c4.5,0.5,9.3,0.9,13.7,1.6c0.7,0.1,1.6,0,1.5-0.3c0-0.2-0.1-0.3-0.1-0.5c0-0.2-0.3-0.5-0.8-0.5
								c-4.3-0.7-8.9-1.1-13.2-1.5c-8.6-0.9-17.2-1.8-25.8-2.6c-12.8-1.3-25.6-2.5-38.5-3.7c-0.6-0.1-0.9,0-1.1,0.2
								c-5.4-0.2-10.9,0-16-0.1c-6.2-0.1-12.4-0.3-18.6-0.5c-4-0.1-8.1-0.3-12.1-0.9c-18.8-2.8-37.7-5.3-56.6-7.9
								c-0.8-0.1-1.3,0.2-1.2,0.5c0.1,0.1,0.1,0.3,0.2,0.4c0.1,0.2,0.6,0.4,1.1,0.5c18.7,2.5,37.4,5,56,7.7c9,1.3,19.2,1.1,28.1,1.4
								c8.8,0.2,17.5,0.3,26.3,0.4c9.8,1,19.6,2,29.4,3c-6.2-0.5-12.5-0.2-18.5-0.2c-17.3-0.1-34.4,0.1-51.7,0
								c-6.9,0-13.7-0.4-20.6-1.6c-6.1-1.1-12-2.5-18.1-3.6c-10.3-1.9-21.3-4.1-31.9-5.3c-1.1-0.1-1.5,0.4-0.9,0.7
								C-19.4,24.2-15.6,24.4-13,24.8z"/>
							<path class="st5" d="M-19.1,17.6c4.3,0.7,8.9,1.1,13.2,1.6c8.6,0.9,17.2,1.9,25.8,2.8c10.5,1.1,21,2.2,31.6,3.2
								c0,0,0.1,0,0.1,0c0,0,0,0,0,0c0.1,0,0.1,0,0.2,0c0,0,0,0,0,0c0,0,0.1,0,0.1,0c0,0,0.1,0,0.1,0c1.6,0.2,3.3,0.3,4.9,0.4
								c0.4,0,0.9,0.1,1.3,0.1c0.4,0,0.6,0,0.8,0c5.4,0.2,11,0,16.2,0c6.2,0.1,12.4,0.2,18.6,0.4c4,0.1,8.1,0.2,12.1,0.8
								c18.8,2.7,37.8,5.1,56.7,7.6c0.8,0.1,1.3-0.2,1.2-0.5c-0.1-0.1-0.1-0.3-0.2-0.4c-0.1-0.2-0.6-0.4-1.1-0.5
								c-18.7-2.4-37.4-4.8-56.1-7.4c-9-1.3-19.2-1-28.1-1.2c-8.1-0.1-16.2-0.2-24.3-0.3c-0.4-0.1-0.8-0.1-1.2-0.2
								c-7.6-0.8-15.2-1.6-22.7-2.4c3.8,0,7.5-0.1,11.1-0.1c17.2,0,34.3-0.3,51.6-0.3c6.9,0,13.7,0.3,20.6,1.5
								c6.1,1.1,12,2.4,18.1,3.5c10.4,1.9,21.3,4,32,5.1c1.1,0.1,1.5-0.4,0.9-0.7c-1.6-1-5.5-1.2-8.1-1.6c-6.4-1-12.9-2-19.2-3.2
								c-12.1-2.1-24.3-5.4-36.8-5.8c-7.6-0.3-15-0.1-22.4,0c-9,0.1-18.1,0.1-27.1,0.1c-7.7,0-15.5,0-23.2-0.1c-2.7,0-6-0.2-8.6,0
								c-0.3,0-0.5,0-0.6,0.1c-0.2,0-0.3,0.1-0.3,0.2c-7-0.8-14.1-1.5-21.1-2.3C0.8,18.2,5,18,8.5,18c13.8,0,27.6,0,41.3-0.1
								c8.8-0.1,17.5-0.1,26.2-0.4c3-0.1,6.3-0.2,9.1-0.6c0.7-0.1,1.9-0.3,1.8-0.7c-0.2-1.5-7.7-2-10.1-2.2
								c-15.4-1.7-30.9-2.7-46.3-3.7C17.9,9.4,5.2,8.6-7.5,7.8c-0.6,0-1.2,0.1-1.2,0.4c0,0.1,0,0.2,0,0.3c0,0.2,0.5,0.6,1.1,0.6
								c25.6,1.5,51.3,3.1,76.9,5.4c2.8,0.3,5.6,0.5,8.4,0.8c1.1,0.1,2.1,0.3,3.2,0.4c0.5,0.1,0.8,0.1,1.1,0.2
								c-1.3,0.1-3.1,0.2-3.9,0.2c-13.3,0.7-27.1,0.7-40.8,0.7c-15.3,0.1-30.7,0-46.2-0.1c-0.6,0-0.9,0.2-0.9,0.4
								c0,0.1,0,0.2,0.1,0.3c-3-0.3-6-0.7-8.8-1.1c-0.7-0.1-1.6,0-1.5,0.3c0,0.2,0.1,0.3,0.1,0.5C-19.9,17.2-19.7,17.5-19.1,17.6z"
								/>
							<path class="st5" d="M69,54.9c-26.8-2.2-53.7-5-80.5-7.8c-0.8-0.1-1.3,0.2-1.2,0.5c0.1,0.1,0.1,0.3,0.2,0.4
								c0.1,0.2,0.4,0.4,0.8,0.4c0,0,0,0,0,0c0,0,0,0,0.1,0c0.1,0,0.1,0,0.2,0c26.4,2.8,52.8,5.4,79.3,7.6c16.6,1.4,33,2.1,49.6,3.1
								c14.2,0.9,28.3,1.9,42.5,2.9c0.7,0.1,1.1-0.1,1.2-0.4c0-0.1,0.1-0.2,0.1-0.3c0.1-0.2-0.5-0.5-1.1-0.6
								c-13.8-1-27.5-2-41.2-2.9C102.2,56.9,85.7,56.3,69,54.9z"/>
							<path class="st5" d="M160.6,69.8c0-0.2-0.3-0.4-0.8-0.5c-15-4-31.7-7.1-48.1-9c-7.5-0.8-15.2-1.2-22.7-1.8
								c-7.9-0.6-15.8-1.3-23.8-1.9c-25.7-2.1-51.4-4.5-77.1-6.8c-0.8-0.1-1.4,0.2-1.2,0.5c0.1,0.1,0.1,0.3,0.2,0.4
								c0.1,0.1,0.2,0.2,0.4,0.3c0.2,0.1,0.4,0.1,0.7,0.2c25.1,2.3,50.3,4.5,75.5,6.5c14.8,1.2,29.7,2.1,44.5,3.4
								c17.2,1.6,35.1,5.1,50.8,9.3c0.7,0.2,1.5,0,1.5-0.3C160.6,70.1,160.6,69.9,160.6,69.8z"/>
							<path class="st5" d="M159.3,71.8c-24.8-3.8-49.7-7.5-74.8-10.4c-13.3-1.5-26.8-3.1-40.1-3.7C25.7,56.9,6.8,55.3-12,54.1
								c-0.7,0-1.2,0.1-1.2,0.4c0,0.1,0,0.2-0.1,0.3c0,0.1,0,0.2,0.2,0.3c0.2,0.1,0.5,0.3,1,0.3c18.5,1.2,37.1,2.7,55.5,3.6
								c13.2,0.7,26.3,2,39.5,3.5c25.5,2.9,50.7,6.7,75.9,10.6c0.9,0.1,1.6,0,1.5-0.4c0-0.2-0.1-0.3-0.1-0.5
								C160.1,72.1,159.7,71.8,159.3,71.8z"/>
							<path class="st5" d="M153.8,78.9c-5.4-0.8-10.7-1.8-15.9-2.8c-12-2.4-23.7-5-35.5-7.6c-8.5-1.9-17.3-4-26.3-5.2
								c-5.5-0.7-11.2-1.2-16.8-1.6c-24.1-1.8-48.2-2.9-72.1-3.9c-0.7,0-0.9,0.2-0.9,0.4c0,0,0,0.1,0,0.1c0,0.1,0,0.2,0.1,0.3
								c0.1,0.3,0.8,0.5,1.4,0.5c22.6,0.9,45.3,2,68,3.6c5.6,0.4,11.3,0.8,16.9,1.4c8,0.9,15.8,2.7,23.3,4.3
								c11.7,2.5,23.3,5.1,35,7.6c8.9,1.9,18.2,3.8,27.5,4.8c0.8,0.1,1.6-0.3,1.1-0.6C158.3,79.2,156.4,79.3,153.8,78.9z"/>
						</g>
					</g>
				</g>
			</g>
			<g>
				
					<ellipse transform="matrix(4.919743e-003 -1 1 4.919743e-003 41.9428 79.1853)" class="st7" cx="60.8" cy="18.5" rx="2.3" ry="2.3"/>
				
					<ellipse transform="matrix(5.145643e-003 -1 1 5.145643e-003 21.6316 99.1782)" class="st7" cx="60.7" cy="38.7" rx="2.3" ry="2.3"/>
			</g>
		</g>
		<g>
			<g>
				<path class="st35" d="M38.5,25c-0.2,2.6-1.2,4.7-3,6.4c-1.8,1.7-4.1,2.4-6.7,2.2c-2.6-0.2-4.7-1.3-6.2-3.2
					c-1.5-1.9-2.2-4.1-2-6.7c0.2-2.6,1.2-4.7,3-6.4c1.8-1.7,4.1-2.4,6.7-2.2c2.6,0.2,4.6,1.3,6.2,3.2C38.1,20.2,38.7,22.4,38.5,25z
					 M33.8,24.6c0.1-1.3-0.2-2.4-0.9-3.3c-0.7-1-1.7-1.5-2.9-1.6c-1.2-0.1-2.2,0.3-3.1,1.2c-0.9,0.9-1.3,1.9-1.4,3.1
					c-0.1,1.3,0.2,2.4,0.9,3.3c0.7,1,1.7,1.5,3,1.6c1.2,0.1,2.2-0.3,3.1-1.2C33.2,26.9,33.7,25.8,33.8,24.6z"/>
				<path class="st35" d="M59.7,35.1c0,0.3-0.2,0.4-0.4,0.5c-0.3,0-0.9,0-1.9-0.1c-1-0.1-1.7-0.2-1.9-0.2c-0.2-0.1-0.4-0.3-0.3-0.6
					c0-0.4,0.1-1,0.2-1.7c0.1-0.8,0.1-1.3,0.2-1.7c0.1-1.5,0.2-2.5,0.2-3.1c0-1-0.4-1.5-1.3-1.6c-0.4,0-0.8,0.1-1.2,0.4
					c-0.4,0.3-0.7,0.7-0.7,1c-0.1,0.3-0.2,1.4-0.3,3.1c0,0.4-0.1,1-0.1,1.8c0,0.8-0.1,1.4-0.1,1.8c0,0.3-0.2,0.4-0.4,0.4l-3.8-0.3
					c-0.2,0-0.3-0.2-0.3-0.5c0-0.4,0.1-1,0.2-1.8c0.1-0.8,0.1-1.4,0.2-1.8c0-0.3,0.1-0.8,0.1-1.4c0-0.6,0.1-1.1,0.1-1.4
					c0.1-1.2-0.3-1.8-1.2-1.9c-0.4,0-0.8,0.1-1.2,0.3c-0.5,0.3-0.8,0.6-0.8,0.9c-0.1,0.8-0.1,1.9-0.3,3.4s-0.2,2.7-0.3,3.4
					c0,0.2-0.1,0.3-0.1,0.4c-0.1,0-0.2,0.1-0.4,0.1c-0.4,0-1,0-1.8-0.1c-0.5,0-1.1-0.1-1.8-0.2c-0.2,0-0.3-0.1-0.4-0.1
					c0,0,0-0.2,0-0.4c0.1-0.7,0.1-1.7,0.2-3c0.1-1.3,0.2-2.3,0.2-3c0.1-1.4,0.1-2.9,0.1-4.7c0-0.1,0-0.2,0-0.2
					c0-0.1,0.1-0.2,0.2-0.3c0.2-0.1,0.5-0.1,1.1-0.1c0.6,0,1,0,1.1,0c0.1,0,0.4-0.1,1-0.2c0.4-0.1,0.8-0.1,1-0.1
					c0.2,0,0.2,0.3,0.2,0.9c0,0.6,0,0.9,0,0.9c0.1,0,0.2-0.1,0.3-0.2c0.8-0.5,1.4-0.9,1.9-1.1c0.7-0.3,1.4-0.4,2.1-0.3
					c0.8,0.1,1.4,0.3,2,0.7c0.6,0.4,1,1,1.2,1.7c0.5-0.6,1.1-1,2-1.4c0.8-0.3,1.6-0.5,2.3-0.4c1.1,0.1,2,0.4,2.6,1
					c0.7,0.6,1.1,1.5,1,2.6c0,0.4-0.1,1.1-0.2,2c-0.1,0.9-0.2,1.6-0.2,2c0,0.5-0.1,1.3-0.1,2.4C59.8,33.8,59.8,34.5,59.7,35.1z"/>
				<path class="st35" d="M74.1,29.8c-0.1,0.8-0.4,1.3-0.9,1.4c-0.1,0-1,0-2.6,0.1c-1,0-2.5,0-4.5,0c0.1,0.6,0.4,1,1,1.3
					c0.5,0.3,1,0.4,1.6,0.5c0.7,0.1,1.5-0.1,2.3-0.4c0.3-0.2,0.7-0.4,1-0.5c0.2,0.1,0.4,0.5,0.8,1.4c0.4,0.8,0.5,1.3,0.5,1.5
					c0,0.1-0.1,0.1-0.2,0.3c-1.1,1-2.7,1.4-4.9,1.3c-2-0.2-3.6-0.9-4.7-2.1c-1.2-1.3-1.7-2.9-1.5-4.9c0.2-1.9,0.8-3.5,2.1-4.6
					c1.3-1.2,2.8-1.7,4.7-1.5c1.6,0.1,2.9,0.8,4,2.1C73.8,26.7,74.2,28.2,74.1,29.8z M69.8,28.7c0-0.5-0.1-1-0.4-1.4
					c-0.3-0.4-0.8-0.7-1.3-0.7c-0.5,0-1,0.1-1.4,0.6c-0.4,0.4-0.5,0.9-0.6,1.4c0,0.2,0.1,0.3,0.3,0.4c0.6,0,1.6,0,2.9-0.1
					C69.6,28.8,69.8,28.8,69.8,28.7z"/>
				<path class="st35" d="M88,28.7c-0.1,1.6-0.3,2.6-0.4,3c-0.2,0.4-1.2,1.9-3.1,4.3c-0.3,0.4-1.1,1.3-2.3,2.7
					c-1.4,1.5-2.1,2.4-2.3,2.4c-0.2,0.1-1.5,0.1-3.9-0.1c-0.4,0-0.6-0.1-0.7-0.2c-0.1-0.4-0.2-0.8-0.3-1.3c-0.1-0.3-0.2-0.6-0.3-0.9
					c-0.2-0.5-0.2-0.7-0.2-0.9c0-0.2,0.1-0.2,0.2-0.2c2.3,0.2,3.5-0.3,3.6-1.3c0-0.1-0.5-1-1.5-2.6c-1.1-1.7-1.6-2.8-1.7-3.2
					c0-0.2,0-1.1,0.1-2.6c0-0.3,0.1-0.8,0.1-1.4c0.1-0.6,0.1-1.1,0.1-1.4c0-0.2,0.2-0.3,0.4-0.3c0.4,0,1.1,0.1,1.9,0.2
					c0.9,0.1,1.5,0.2,1.9,0.2c0.2,0,0.3,0.2,0.2,0.4c0,0.2-0.1,0.6-0.1,1.1s-0.1,0.8-0.1,1.1c-0.1,1.1-0.1,1.8-0.1,2.2
					c0,0.3,0.2,0.9,0.6,1.7c0.4,0.9,0.8,1.3,1,1.3c0.2,0,0.6-0.4,1.1-1.2c0.5-0.7,0.8-1.3,0.8-1.5c0.1-0.7,0.2-1.5,0.3-2.4
					c0-0.2,0-0.6,0-1c0-0.5,0-0.8,0-1c0-0.2,0.1-0.2,0.3-0.2c0.4,0,1.1,0.1,1.9,0.1c0.9,0,1.5,0.1,1.9,0.1c0.2,0,0.4,0.1,0.4,0.4
					C88.1,26.4,88.1,27.3,88,28.7z"/>
				<path class="st35" d="M100.8,31.9c-0.1,0.8-0.4,1.3-0.9,1.4c-0.1,0-1,0-2.6,0.1c-1,0-2.5,0-4.5,0c0.1,0.6,0.4,1,1,1.3
					c0.5,0.3,1,0.4,1.6,0.5c0.7,0.1,1.5-0.1,2.3-0.4c0.3-0.2,0.7-0.4,1-0.5c0.2,0.1,0.4,0.5,0.8,1.4c0.4,0.8,0.5,1.3,0.5,1.5
					c0,0.1-0.1,0.1-0.2,0.3c-1.1,1-2.7,1.4-4.9,1.3c-2-0.2-3.6-0.9-4.7-2.1c-1.2-1.3-1.7-2.9-1.5-4.9c0.2-1.9,0.8-3.5,2.1-4.6
					c1.3-1.2,2.8-1.7,4.7-1.5c1.6,0.1,2.9,0.8,4,2.1C100.5,28.8,101,30.3,100.8,31.9z M96.5,30.8c0-0.5-0.1-1-0.4-1.4
					c-0.3-0.4-0.8-0.7-1.3-0.7c-0.5,0-1,0.1-1.4,0.6c-0.4,0.4-0.5,0.9-0.6,1.4c0,0.2,0.1,0.3,0.3,0.4c0.6,0,1.6,0,2.9-0.1
					C96.4,30.9,96.5,30.9,96.5,30.8z"/>
				<path class="st35" d="M106.8,33.4c0,0.6-0.1,1.5-0.2,2.7c-0.1,1.2-0.1,2.1-0.2,2.7c0,0.2-0.1,0.3-0.3,0.3c-0.3,0-0.9,0-1.9-0.1
					c-1-0.1-1.6-0.2-1.9-0.2c-0.2,0-0.3-0.1-0.3-0.2c0,0,0-0.2,0-0.4c0-0.6,0.1-1.4,0.2-2.6s0.2-2,0.2-2.6c0.2-2.4,0.2-4.3,0.2-5.7
					c0-0.1,0-0.2,0-0.3c0-0.2,0.1-0.2,0.4-0.2c0.2,0,0.6,0.1,1.1,0.2c0.5,0.1,0.8,0.1,1.1,0.2c0.2,0,0.6,0,1.1,0s0.9,0,1.1,0
					c0.2,0,0.3,0.1,0.3,0.3c0,0,0,0.1,0,0.2C107.2,29.4,107,31.3,106.8,33.4z M107.8,24.1c-0.1,1.5-1,2.1-2.6,2
					c-0.7-0.1-1.3-0.3-1.7-0.7c-0.5-0.4-0.7-1-0.6-1.7c0.1-0.7,0.4-1.2,0.9-1.5c0.5-0.3,1.1-0.5,1.8-0.4c0.7,0.1,1.2,0.3,1.6,0.7
					C107.7,22.9,107.9,23.5,107.8,24.1z"/>
			</g>
		</g>
	</g>
</g>
</svg>
