<?xml version="1.0" encoding="utf-8"?>
<!-- Generator: Adobe Illustrator 19.2.1, SVG Export Plug-In . SVG Version: 6.00 Build 0)  -->
<svg version="1.1" id="Capa_1" xmlns="http://www.w3.org/2000/svg" xmlns:xlink="http://www.w3.org/1999/xlink" x="0px" y="0px"
	 viewBox="0 0 899 426" style="enable-background:new 0 0 899 426;" xml:space="preserve">
<style type="text/css">
	.st0{fill:url(#SVGID_1_);}
	.st1{fill:#1B8F59;}
	.st2{fill:#52AF52;}
	.st3{fill:#6FCE6F;}
	.st4{fill:#479947;}
</style>
<g id="Capa_1_1_">
</g>
<linearGradient id="SVGID_1_" gradientUnits="userSpaceOnUse" x1="512" y1="1" x2="512" y2="428" gradientTransform="matrix(1 0 0 -1 0 428)">
	<stop  offset="0" style="stop-color:#FFFFFF"/>
	<stop  offset="1" style="stop-color:#C4D2EB"/>
</linearGradient>
<rect class="st0" width="1024" height="427"/>
<path class="st1" d="M1046,301.3c-3.7-1.5-7.7-2.3-11.9-2.3c-11.1,0-21,5.8-27.7,14.9c-5.6-17.6-20.2-30.1-37.4-30.1
	c-21.9,0-39.7,20.5-39.8,45.9c-0.5-0.1-1-0.1-1.5-0.1c-3.3,0-6.2,1.4-8.5,3.8c-4.2-9.3-12.6-15.7-22.3-15.7c-6,0-11.5,2.5-15.9,6.5
	c-5.6-14.8-18.3-25.2-33.2-25.2c-8.9,0-17,3.7-23.3,9.8c-6.6-9.6-16.8-15.7-28.3-15.7c-16.4,0-30.2,12.6-34.7,29.8
	c-4.6-6.8-11.8-11.2-19.8-11.2c-4.6,0-8.9,1.4-12.6,3.9c-3.7-2.5-8-3.9-12.6-3.9c-8,0-15.1,4.3-19.7,11c-2-1.5-4.4-2.4-7-2.4
	c-3.8,0-7.2,2-9.5,5.1c-4.5-8.2-12.3-13.6-21.3-13.6c-6,0-11.5,2.5-15.9,6.5c-5.6-14.8-18.3-25.2-33.2-25.2
	c-20,0-36.2,18.8-36.2,41.9c0,1.8,0.1,3.5,0.3,5.2h-30.4c-2.6-12.9-12.6-22.6-24.5-22.6c-4.3,0-8.3,1.2-11.9,3.4
	c-3.2-26.3-22.7-46.6-46.4-46.6c-25.9,0-46.8,24.3-46.8,54.2c0,1.7,0.1,3.4,0.2,5c-4.1-9.5-12.6-16-22.5-16c-8,0-15.1,4.3-19.7,11
	c-2-1.5-4.4-2.4-7-2.4c-3.8,0-7.2,2-9.5,5.1c-4.5-8.2-12.3-13.6-21.3-13.6c-6,0-11.5,2.5-15.9,6.5c-5.6-14.8-18.3-25.2-33.2-25.2
	c-14.5,0-27,9.9-32.8,24.1c-4.1-3.4-9.2-5.4-14.6-5.4c-5.5,0-10.6,2.1-14.8,5.6c-5.8-14.3-18.3-24.2-32.8-24.2
	c-19.8,0-35.9,18.4-36.2,41.3h-19c-2.6-12.9-12.6-22.6-24.5-22.6c-8,0-15.1,4.3-19.7,11c-2-1.5-4.4-2.4-7-2.4c-3.8,0-7.2,2-9.5,5.1
	c-4.5-8.2-12.3-13.6-21.3-13.6c-6,0-11.5,2.5-15.9,6.5C31.8,309.3,19.1,299,4.2,299c-1.4,0-2.8,0.1-4.2,0.3v58.5h1046V301.3z"/>
<rect y="372.5" class="st2" width="1046" height="54.5"/>
<rect y="352.7" class="st3" width="1046" height="19.8"/>
<rect y="399.7" class="st4" width="1046" height="27.3"/>
</svg>
