<?xml version="1.0" encoding="UTF-8"?>
<svg xmlns="http://www.w3.org/2000/svg" width="1024" height="348.3" version="1.1" viewBox="0 0 1024 348.3">
  <defs>
    <style>
      .cls-1 {
        fill: #597978;
      }

      .cls-2 {
        fill: #7e9198;
      }

      .cls-3 {
        fill: #000f3f;
      }

      .cls-4 {
        fill: #285050;
      }

      .cls-5 {
        fill: #fffbe1;
      }
    </style>
  </defs>
  <!-- Generator: Adobe Illustrator 28.7.1, SVG Export Plug-In . SVG Version: 1.2.0 Build 142)  -->
  <g>
    <g id="Capa_2">
      <path class="cls-1" d="M1314.8,189.9c-4.6-1.9-9.6-3-14.9-3-14,0-26.5,7.3-34.8,18.8-7.1-22.1-25.5-37.9-47.1-37.9s-50,25.8-50.1,57.8c-.6-.1-1.3-.1-1.8-.1-4.1,0-7.8,1.8-10.7,4.8-5.3-11.8-15.9-19.8-28.2-19.8s-14.5,3.1-19.9,8.2c-7.1-18.6-23.1-31.8-41.8-31.8s-21.3,4.6-29.3,12.3c-8.4-12.1-21.2-19.8-35.6-19.8-20.6,0-38.1,15.8-43.7,37.5-5.8-8.6-14.8-14.1-24.9-14.1s-11.2,1.8-15.8,4.9c-4.6-3.1-10-4.9-15.8-4.9-10,0-18.9,5.4-24.8,13.9-2.6-1.9-5.5-3.1-8.7-3.1-4.8,0-9.1,2.4-12,6.4-5.7-10.3-15.6-17.1-26.7-17.1s-14.5,3.1-19.9,8.2c-7.1-18.6-23.1-31.8-41.8-31.8s-45.6,23.7-45.6,52.7.1,4.4.4,6.6h-38.3c-3.2-16.3-15.8-28.4-30.9-28.4s-10.4,1.5-14.9,4.4c-4-33.2-28.5-58.7-58.4-58.7s-58.9,30.5-58.9,68.1.1,4.2.3,6.3c-5.3-12-15.9-20.2-28.3-20.2s-18.9,5.4-24.8,13.9c-2.6-1.9-5.5-3.1-8.7-3.1-4.8,0-9.1,2.4-12,6.4-5.7-10.3-15.6-17.1-26.7-17.1s-14.5,3.1-19.9,8.2c-7.1-18.6-23.1-31.8-41.8-31.8s-33.9,12.5-41.3,30.3c-5.1-4.2-11.6-6.8-18.4-6.8s-13.4,2.6-18.6,7.1c-7.2-18-23-30.5-41.3-30.5s-45.1,23.1-45.5,51.9h-23.9c-3.2-16.3-15.8-28.4-30.9-28.4s-18.9,5.4-24.8,13.9c-2.6-1.9-5.5-3.1-8.7-3.1-4.8,0-9.1,2.4-12,6.4-5.7-10.3-15.6-17.1-26.7-17.1s-14.5,3.1-19.9,8.2c-7.1-18.6-23.1-31.8-41.8-31.8s-3.6.1-5.3.4v73.7h1316.4v-71.2h-.4Z"/>
      <g>
        <path class="cls-1" d="M212.3,63.9v-.9c0-26.5-18.5-47.8-41.4-47.8s-38.1,17.9-40.9,41.1c-19,6.9-32.9,27.6-32.9,52.1s17.6,50.4,40.6,54c10.5,14.7,26.4,23.9,44,23.9,31.6,0,57.2-29.7,57.2-66.2.1-23.8-10.5-44.5-26.6-56.2Z"/>
        <path class="cls-2" d="M147.8,74.6c2.8-23.3,20.1-41.1,40.9-41.1s12.3,1.7,17.6,4.6c-7.2-13.8-20.3-22.9-35.4-22.9s-38.1,17.9-40.9,41.1c-19,6.9-32.9,27.6-32.9,52.1s10.3,39.3,25.5,48.5c-4.9-8.6-7.8-19-7.8-30.1.1-24.6,13.9-45.1,33-52.2Z"/>
        <path class="cls-3" d="M201.1,126.8c-1.3-2.2-3.9-2.8-5.8-1.3l-23.1,17.7v-55.9c0-2.7-1.8-4.8-4.1-4.8s-4.1,2.2-4.1,4.8v21.3l-17-12.1c-1.9-1.4-4.5-.6-5.7,1.5-1.2,2.3-.6,5.3,1.4,6.6l21.3,15.2v32.3h0v98.9c0,2.7,1.8,4.8,4.1,4.8s4.1-2.2,4.1-4.8v-96.3l27.8-21.3c1.8-1.3,2.3-4.2,1-6.6Z"/>
      </g>
      <g>
        <path class="cls-1" d="M714.9,72.8v-.9c0-25.2-17.6-45.6-39.5-45.6s-36.4,17.1-39.1,39.2c-18.1,6.7-31.4,26.4-31.4,49.6s16.8,48.1,38.7,51.5c10,13.9,25.1,22.8,42,22.8,30.2,0,54.6-28.3,54.6-63.2.1-22.5-10.2-42.2-25.5-53.3Z"/>
        <path class="cls-2" d="M653.4,82.9c2.7-22.1,19.2-39.2,39.1-39.2s11.7,1.5,16.8,4.4c-6.9-13.1-19.4-21.9-33.7-21.9s-36.4,17.1-39.1,39.2c-18.1,6.7-31.4,26.4-31.4,49.6s9.9,37.5,24.3,46.3c-4.8-8.2-7.5-18.1-7.5-28.7,0-23.4,13.1-43.1,31.4-49.7Z"/>
        <g>
          <path class="cls-3" d="M672.8,255.8c-2.2,0-4-2.1-4-4.6V95.2c0-2.6,1.8-4.6,4-4.6s4,2.1,4,4.6v156.2c0,2.4-1.8,4.5-4,4.5Z"/>
          <path class="cls-3" d="M672.8,161.6c-1.3,0-2.6-.8-3.3-2.1-1.2-2.1-.8-4.9,1.2-6.3l28.2-21.7c1.8-1.4,4.2-.8,5.5,1.3,1.2,2.1.8,4.9-1.2,6.3l-28.2,21.7c-.6.5-1.4.8-2.2.8Z"/>
          <path class="cls-3" d="M672.8,128.2c-.6,0-1.4-.3-2.1-.6l-22.2-15.8c-1.8-1.3-2.4-4.1-1.3-6.3s3.6-2.8,5.4-1.5l22.2,15.8c1.8,1.3,2.4,4.1,1.3,6.3-.6,1.4-1.9,2.2-3.3,2.2Z"/>
        </g>
      </g>
      <g>
        <path class="cls-3" d="M49.3,261.2c-2.6,0-4.6-2.4-4.6-5.4V75.4c0-3,2.1-5.4,4.6-5.4s4.6,2.4,4.6,5.4v180.6c0,2.8-2.1,5.3-4.6,5.3Z"/>
        <ellipse class="cls-2" cx="49.3" cy="105.6" rx="30.1" ry="90.4"/>
        <path class="cls-1" d="M79.4,105.6c0-49.9-13.5-90.4-30.1-90.4v180.7c16.6,0,30.1-40.5,30.1-90.4Z"/>
      </g>
      <rect class="cls-1" x="-1.6" y="279.5" width="1316.4" height="68.6"/>
      <rect class="cls-5" x="-1.6" y="254.6" width="1316.4" height="24.9"/>
      <rect class="cls-4" x="-1.6" y="313.8" width="1316.4" height="34.3"/>
    </g>
  </g>
</svg>