<?xml version="1.0" encoding="utf-8"?>
<!-- Generator: Adobe Illustrator 19.2.1, SVG Export Plug-In . SVG Version: 6.00 Build 0)  -->
<svg version="1.1" id="Capa_1" xmlns="http://www.w3.org/2000/svg" xmlns:xlink="http://www.w3.org/1999/xlink" x="0px" y="0px"
	 viewBox="0 0 1024 348.3" style="enable-background:new 0 0 1024 348.3;" xml:space="preserve">
<style type="text/css">
	.Sombra_x0020_paralela{fill:none;}
	.Esquinas_x0020_redondeadas_x0020_2_x0020_pt_x002E_{fill:#FFFFFF;stroke:#000000;stroke-miterlimit:10;}
	.Reflejo_x0020_vivo_x0020_X{fill:none;}
	.Bisel_x0020_suave{fill:url(#SVGID_1_);}
	.Atardecer{fill:#FFFFFF;}
	.Follaje_GS{fill:#FFDD00;}
	.Pompadour_GS{fill-rule:evenodd;clip-rule:evenodd;fill:#44ADE2;}
	.st0{fill:#22AF9E;}
	.st1{fill:#00A994;}
	.st2{fill:#5DC4BA;}
	.st3{fill:#42B8AA;}
	.st4{fill:#1C905A;}
	.st5{fill:#53B051;}
	.st6{fill:#77C370;}
	.st7{fill:#482E21;}
	.st8{fill:#F8F9DD;}
	.st9{fill:#479946;}
</style>
<linearGradient id="SVGID_1_" gradientUnits="userSpaceOnUse" x1="0" y1="0" x2="0.7071" y2="0.7071">
	<stop  offset="0" style="stop-color:#DEDFE3"/>
	<stop  offset="0.1738" style="stop-color:#D8D9DD"/>
	<stop  offset="0.352" style="stop-color:#C9CACD"/>
	<stop  offset="0.5323" style="stop-color:#B4B5B8"/>
	<stop  offset="0.7139" style="stop-color:#989A9C"/>
	<stop  offset="0.8949" style="stop-color:#797C7E"/>
	<stop  offset="1" style="stop-color:#656B6C"/>
</linearGradient>
<g>
	<g>
		<polygon class="st0" points="254.1,0 79.6,280.5 428.5,280.5 		"/>
		<polygon class="st1" points="254.1,0 254.1,280.5 428.5,280.5 		"/>
		<polygon class="st2" points="254.1,0 203,82.2 254.1,82.2 		"/>
		<polygon class="st3" points="254.1,0 254.1,82.2 305.2,82.2 254.1,0 		"/>
	</g>
	<g>
		<polygon class="st0" points="429.1,59.7 291.8,280.5 566.4,280.5 		"/>
		<polygon class="st1" points="429.1,59.7 429.1,280.5 566.4,280.5 		"/>
		<polygon class="st2" points="429.1,59.7 388.9,124.4 429.1,124.4 		"/>
		<polygon class="st3" points="429.1,59.7 429.1,124.4 469.3,124.4 429.1,59.7 		"/>
	</g>
	<path class="st4" d="M1024,225.2c-3.6-1.5-7.5-2.3-11.6-2.3c-10.9,0-20.6,5.7-27.1,14.6c-5.5-17.2-19.8-29.5-36.6-29.5
		c-21.5,0-38.9,20.1-39,45c-0.5-0.1-1-0.1-1.4-0.1c-3.2,0-6.1,1.4-8.3,3.7c-4.1-9.2-12.4-15.4-21.9-15.4c-5.9,0-11.3,2.4-15.5,6.4
		c-5.5-14.5-18-24.7-32.5-24.7c-8.7,0-16.6,3.6-22.8,9.6c-6.5-9.4-16.5-15.4-27.7-15.4c-16,0-29.6,12.3-34,29.2
		c-4.5-6.7-11.5-11-19.4-11c-4.5,0-8.7,1.4-12.3,3.8c-3.6-2.4-7.8-3.8-12.3-3.8c-7.8,0-14.7,4.2-19.3,10.8c-2-1.5-4.3-2.4-6.8-2.4
		c-3.7,0-7.1,1.9-9.3,5c-4.4-8-12.1-13.3-20.8-13.3c-5.9,0-11.3,2.4-15.5,6.4c-5.5-14.5-18-24.7-32.5-24.7
		c-19.6,0-35.5,18.4-35.5,41c0,1.7,0.1,3.4,0.3,5.1h-29.8c-2.5-12.7-12.3-22.1-24-22.1c-4.2,0-8.1,1.2-11.6,3.4
		c-3.1-25.8-22.2-45.7-45.4-45.7c-25.3,0-45.8,23.7-45.8,53c0,1.7,0.1,3.3,0.2,4.9c-4.1-9.3-12.4-15.7-22-15.7
		c-7.8,0-14.7,4.2-19.3,10.8c-2-1.5-4.3-2.4-6.8-2.4c-3.7,0-7.1,1.9-9.3,5c-4.4-8-12.1-13.3-20.8-13.3c-5.9,0-11.3,2.4-15.5,6.4
		c-5.5-14.5-18-24.7-32.5-24.7c-14.2,0-26.4,9.7-32.1,23.6c-4-3.3-9-5.3-14.3-5.3c-5.4,0-10.4,2-14.5,5.5
		c-5.6-14-17.9-23.7-32.1-23.7c-19.4,0-35.1,18-35.4,40.4h-18.6c-2.5-12.7-12.3-22.1-24-22.1c-7.8,0-14.7,4.2-19.3,10.8
		c-2-1.5-4.3-2.4-6.8-2.4c-3.7,0-7.1,1.9-9.3,5c-4.4-8-12.1-13.3-20.8-13.3c-5.9,0-11.3,2.4-15.5,6.4c-5.5-14.5-18-24.7-32.5-24.7
		c-1.4,0-2.8,0.1-4.1,0.3v57.3h1024V225.2z"/>
	<g>
		<path class="st5" d="M166.4,127.2c0-0.2,0-0.5,0-0.7c0-20.6-14.4-37.2-32.2-37.2c-16.2,0-29.6,13.9-31.8,32
			c-14.8,5.4-25.6,21.5-25.6,40.5c0,21.5,13.7,39.2,31.6,42c8.2,11.4,20.5,18.6,34.2,18.6c24.6,0,44.5-23.1,44.5-51.5
			C187.2,152.4,178.9,136.3,166.4,127.2z"/>
		<path class="st6" d="M116.2,135.5c2.2-18.1,15.6-32,31.8-32c4.9,0,9.6,1.3,13.7,3.6c-5.6-10.7-15.8-17.8-27.5-17.8
			c-16.2,0-29.6,13.9-31.8,32c-14.8,5.4-25.6,21.5-25.6,40.5c0,16.4,8,30.6,19.8,37.7c-3.8-6.7-6.1-14.8-6.1-23.4
			C90.6,157,101.3,141,116.2,135.5z"/>
		<path class="st7" d="M157.7,176.1c-1-1.7-3-2.2-4.5-1l-18,13.8v-43.5c0-2.1-1.4-3.7-3.2-3.7c-1.8,0-3.2,1.7-3.2,3.7V162l-13.2-9.4
			c-1.5-1.1-3.5-0.5-4.4,1.2c-0.9,1.8-0.5,4.1,1.1,5.1l16.6,11.8v25.1c0,0,0,0,0,0v76.9c0,2.1,1.4,3.7,3.2,3.7
			c1.8,0,3.2-1.7,3.2-3.7v-74.9l21.6-16.6C158.3,180.2,158.7,177.9,157.7,176.1z"/>
	</g>
	<g>
		<path class="st7" d="M898.1,287.4c-2,0-3.6-1.9-3.6-4.2V142.7c0-2.3,1.6-4.2,3.6-4.2c2,0,3.6,1.9,3.6,4.2v140.5
			C901.8,285.5,900.1,287.4,898.1,287.4z"/>
		<g>
			<g>
				<polygon class="st6" points="898.1,102.3 866.4,155.6 898.1,155.6 				"/>
				<polygon class="st5" points="898.1,102.3 929.9,155.6 898.1,155.6 				"/>
			</g>
			<g>
				<polygon class="st6" points="898.1,128.9 861,191.4 898.1,191.4 				"/>
				<polygon class="st5" points="898.1,128.9 935.3,191.4 898.1,191.4 				"/>
			</g>
			<g>
				<polygon class="st6" points="898.1,160.2 854.9,232.9 898.1,232.9 				"/>
				<polygon class="st5" points="898.1,160.2 941.4,232.9 898.1,232.9 				"/>
			</g>
		</g>
	</g>
	<g>
		<path class="st5" d="M557.4,134.1c0-0.2,0-0.4,0-0.7c0-19.6-13.7-35.5-30.7-35.5c-15.5,0-28.3,13.3-30.4,30.5
			c-14.1,5.2-24.4,20.5-24.4,38.6c0,20.5,13.1,37.4,30.1,40.1c7.8,10.8,19.5,17.7,32.7,17.7c23.5,0,42.5-22,42.5-49.2
			C577.3,158.1,569.3,142.8,557.4,134.1z"/>
		<path class="st6" d="M509.5,142c2.1-17.2,14.9-30.5,30.4-30.5c4.7,0,9.1,1.2,13.1,3.4c-5.4-10.2-15.1-17-26.2-17
			c-15.5,0-28.3,13.3-30.4,30.5c-14.1,5.2-24.4,20.5-24.4,38.6c0,15.7,7.7,29.2,18.9,36c-3.7-6.4-5.8-14.1-5.8-22.3
			C485.1,162.5,495.3,147.2,509.5,142z"/>
		<g>
			<path class="st7" d="M524.6,276.5c-1.7,0-3.1-1.6-3.1-3.6V151.5c0-2,1.4-3.6,3.1-3.6c1.7,0,3.1,1.6,3.1,3.6V273
				C527.7,274.9,526.3,276.5,524.6,276.5z"/>
			<path class="st7" d="M524.6,203.2c-1,0-2-0.6-2.6-1.6c-0.9-1.6-0.6-3.8,0.9-4.9l21.9-16.9c1.4-1.1,3.3-0.6,4.3,1
				c0.9,1.6,0.6,3.8-0.9,4.9l-21.9,16.9C525.8,203,525.2,203.2,524.6,203.2z"/>
			<path class="st7" d="M524.6,177.2c-0.5,0-1.1-0.2-1.6-0.5l-17.3-12.3c-1.4-1-1.9-3.2-1-4.9c0.9-1.7,2.8-2.2,4.2-1.2l17.3,12.3
				c1.4,1,1.9,3.2,1,4.9C526.7,176.6,525.7,177.2,524.6,177.2z"/>
		</g>
	</g>
	<g>
		<path class="st7" d="M39.6,280.7c-2,0-3.6-1.9-3.6-4.2V136.1c0-2.3,1.6-4.2,3.6-4.2c2,0,3.6,1.9,3.6,4.2v140.5
			C43.2,278.8,41.6,280.7,39.6,280.7z"/>
		<ellipse class="st6" cx="39.6" cy="159.6" rx="23.4" ry="70.3"/>
		<path class="st5" d="M63,159.6c0-38.8-10.5-70.3-23.4-70.3v140.6C52.5,229.9,63,198.4,63,159.6z"/>
	</g>
	<g>
		<path class="st7" d="M985.7,280.7c-2,0-3.6-1.9-3.6-4.2V136.1c0-2.3,1.6-4.2,3.6-4.2c2,0,3.6,1.9,3.6,4.2v140.5
			C989.3,278.8,987.7,280.7,985.7,280.7z"/>
		<ellipse class="st6" cx="985.7" cy="159.6" rx="23.4" ry="70.3"/>
		<path class="st5" d="M1009.1,159.6c0-38.8-10.5-70.3-23.4-70.3v140.6C998.6,229.9,1009.1,198.4,1009.1,159.6z"/>
	</g>
	<rect y="294.9" class="st5" width="1024" height="53.4"/>
	<rect y="275.5" class="st8" width="1024" height="19.4"/>
	<rect y="321.6" class="st9" width="1024" height="26.7"/>
</g>
</svg>
