<?xml version="1.0" encoding="utf-8"?>
<!-- Generator: Adobe Illustrator 19.2.1, SVG Export Plug-In . SVG Version: 6.00 Build 0)  -->
<svg version="1.1" xmlns="http://www.w3.org/2000/svg" xmlns:xlink="http://www.w3.org/1999/xlink" x="0px" y="0px"
	 viewBox="0 0 131.3 57.8" style="enable-background:new 0 0 131.3 57.8;" xml:space="preserve">
<style type="text/css">
	.st0{fill:#C6B89B;}
	.st1{fill:#B2A287;}
	.st2{fill:#D88832;}
	.st3{fill:#EDB26C;}
	.st4{clip-path:url(#SVGID_2_);}
	.st5{fill:#E09637;}
	.st6{fill:none;}
	.st7{fill:#663300;}
	.st8{fill:#F2F2F2;}
	.st9{clip-path:url(#SVGID_4_);}
	.st10{clip-path:url(#SVGID_6_);}
	.st11{clip-path:url(#SVGID_8_);}
	.st12{fill:url(#SVGID_9_);}
	.st13{fill:url(#SVGID_10_);}
	.st14{display:none;fill:#95E7FC;}
	.st15{display:none;fill:#7BE1FC;}
	.st16{fill:#23AF9E;}
	.st17{fill:#00A894;}
	.st18{fill:#4BD1C1;}
	.st19{fill:#42B8AA;}
	.st20{fill:#1B8F59;}
	.st21{display:none;}
	.st22{display:inline;fill:#7BE1FC;}
	.st23{display:inline;fill:#C2C0BC;}
	.st24{display:inline;fill:#B5B3AF;}
	.st25{display:inline;fill:#D3D1CD;}
	.st26{fill:#52AF52;}
	.st27{fill:#6FCE6F;}
	.st28{fill:#472D21;}
	.st29{fill:#479947;}
	.st30{fill:#E2A561;}
	.st31{clip-path:url(#SVGID_12_);}
	.st32{fill:#D3842D;}
	.st33{clip-path:url(#SVGID_14_);}
	.st34{fill:#5E3918;}
	.st35{fill:#633001;}
	.st36{clip-path:url(#SVGID_16_);}
	.st37{clip-path:url(#SVGID_18_);}
</style>
<g id="Capa_1">
</g>
<g id="Capa_2">
	<g>
		<g>
			<g>
				<polygon class="st2" points="109.8,4.3 0.9,15.1 1.8,23.4 9.4,25.3 2.5,31.2 3.6,41.4 12.6,44.9 4.2,48.1 5.1,57 114,46.2 
					130.7,23.4 				"/>
				<g>
					<polygon class="st3" points="109.5,0.8 0.6,11.6 1.4,19.9 9.1,21.8 2.2,27.7 3.2,37.9 12.2,41.4 3.9,44.6 4.8,53.5 113.7,42.7 
						130.3,19.9 					"/>
					<g>
						<defs>
							<polygon id="SVGID_13_" points="109.5,0.8 0.6,11.6 1.4,19.9 9.1,21.8 2.2,27.7 3.2,37.9 12.2,41.4 3.9,44.6 4.8,53.5 
								113.7,42.7 130.3,19.9 							"/>
						</defs>
						<clipPath id="SVGID_2_">
							<use xlink:href="#SVGID_13_"  style="overflow:visible;"/>
						</clipPath>
						<g class="st4">
							<path class="st5" d="M-12.2,8.5c0.1,0.2,0.5,0.3,0.9,0.3c0,0,0,0,0,0c0,0,0,0,0.1,0c0.1,0,0.1,0,0.2,0
								c26.4-2.1,52.9-4.4,79.3-7.2c16.6-1.7,32.8-4.1,49.3-6.1c14.1-1.7,28.2-3.4,42.3-5c0.7-0.1,1.1-0.3,1.1-0.6
								c0-0.1,0-0.2,0-0.3c0-0.3-0.6-0.4-1.2-0.4c-13.7,1.5-27.4,3.1-41.1,4.8c-16.6,2-33,4.4-49.6,6.1C42.3,3,15.4,5.3-11.4,7.4
								c-0.8,0.1-1.3,0.4-1.1,0.7C-12.4,8.3-12.3,8.4-12.2,8.5z"/>
							<path class="st5" d="M-12,11.3c0.1,0.1,0.2,0.2,0.4,0.2c0.2,0,0.4,0.1,0.7,0C14.3,9.1,39.4,6.6,64.5,4
								c14.8-1.5,29.6-3.4,44.4-4.8c17.2-1.6,35.5-1.4,51.7-0.2c0.7,0.1,1.5-0.3,1.4-0.6c0-0.1,0-0.3,0-0.4c0-0.2-0.4-0.3-0.9-0.4
								c-15.5-1.2-32.5-1.2-48.9,0.1C104.6-1.8,97-0.7,89.5,0.1C81.6,1,73.7,1.8,65.8,2.6c-25.7,2.6-51.3,5.1-77,7.6
								c-0.8,0.1-1.3,0.4-1.1,0.7C-12.2,11-12.1,11.2-12,11.3z"/>
							<path class="st5" d="M-10.5,15.7C7.9,13.4,26.4,11.5,44.8,9C57.9,7.2,71,6.1,84.2,5.2c25.6-1.8,51.1-2.8,76.5-3.6
								c0.9,0,1.6-0.3,1.4-0.7c-0.1-0.1-0.1-0.3-0.2-0.4c-0.1-0.1-0.5-0.3-0.9-0.3C136,1,110.9,2,85.7,3.8
								C72.3,4.7,58.8,5.7,45.6,7.6C27,10.2,8.1,12.1-10.6,14.4c-0.7,0.1-1.1,0.3-1.1,0.6c0,0.1,0,0.2,0,0.3c0,0.1,0.1,0.2,0.2,0.3
								C-11.3,15.7-11,15.7-10.5,15.7z"/>
							<path class="st5" d="M156.9,8.2c-5.4,0.2-10.8,0.2-16.1,0.1c-12.2-0.1-24.2-0.6-36.3-0.9c-8.7-0.3-17.8-0.7-26.8-0.2
								c-5.6,0.3-11.2,0.9-16.8,1.5c-24,2.6-47.9,6-71.6,9.5c-0.7,0.1-0.9,0.3-0.8,0.5c0,0,0,0.1,0,0.1c0,0.1,0.1,0.2,0.1,0.3
								c0.1,0.3,0.9,0.3,1.5,0.2c22.4-3.3,44.9-6.4,67.5-9c5.6-0.7,11.3-1.3,16.9-1.7c8-0.6,16-0.3,23.7-0.1
								c11.9,0.3,23.8,0.7,35.8,1c9.1,0.2,18.6,0.4,28-0.3c0.8-0.1,1.5-0.6,1-0.8C161.4,7.7,159.6,8.1,156.9,8.2z"/>
							<path class="st5" d="M-9.4,28c7.4-1.4,14.8-2.9,22.1-4.5C15,23,27.1,20.9,27,19.3c-0.2-2.5-32.8,2.8-37.3,3.4
								c-0.5,0.1-0.9,0.4-0.8,0.5c0,0.1,0.1,0.2,0.1,0.3c0.1,0.2,0.5,0.5,1.2,0.4c6.6-0.9,13.1-1.8,19.7-2.7
								c2.7-0.3,5.4-0.7,8.1-0.9c1.2-0.1,2.3-0.2,3.5-0.3c0.1,0,0.2,0,0.3,0c-3.5,1.1-8.3,1.9-11.9,2.7c-6.6,1.4-13.4,2.7-20.1,4
								c-0.4,0.1-0.6,0.2-0.7,0.3c0,0,0,0,0,0c0,0,0,0,0,0c0,0,0,0.1,0,0.1c0,0.1,0,0.3,0,0.4C-11,28-10.2,28.1-9.4,28z"/>
							<path class="st5" d="M72.9,49c26.8-2.6,53.7-4.7,80.6-6.7c0.8-0.1,1.3-0.4,1.1-0.7c-0.1-0.1-0.2-0.3-0.2-0.4
								c-0.1-0.2-0.5-0.3-0.9-0.3c0,0,0,0,0,0c0,0,0,0-0.1,0c-0.1,0-0.1,0-0.2,0c-26.4,2-53,4.1-79.4,6.7
								c-16.6,1.6-32.9,3.9-49.4,5.8c-14.1,1.7-28.2,3.2-42.4,4.7c-0.7,0.1-1.1,0.3-1.1,0.6c0,0.1,0,0.2,0,0.3
								c0,0.3,0.6,0.4,1.2,0.4c13.7-1.4,27.4-3,41.1-4.6C39.8,52.9,56.2,50.6,72.9,49z"/>
							<path class="st5" d="M-19,51.1c15.4,1.3,32.4,1.3,48.8,0.2c7.5-0.5,15.1-1.5,22.7-2.3c7.9-0.8,15.8-1.6,23.7-2.4
								c25.7-2.5,51.4-4.8,77.1-7.2c0.8-0.1,1.3-0.4,1.1-0.7c-0.1-0.1-0.2-0.3-0.3-0.4c-0.1-0.1-0.2-0.2-0.4-0.2
								c-0.2,0-0.4-0.1-0.7,0c-25.1,2.3-50.3,4.6-75.4,7.1c-14.8,1.4-29.6,3.3-44.4,4.6C15.9,51.3-2.3,51-18.4,49.7
								c-0.7-0.1-1.5,0.3-1.5,0.6c0,0.1,0,0.3,0,0.4C-19.9,51-19.5,51.1-19,51.1z"/>
							<path class="st5" d="M152.7,34c-18.4,2.1-37,4-55.3,6.4c-13.1,1.7-26.2,2.7-39.5,3.6c-25.6,1.7-51,2.5-76.5,3.2
								c-0.9,0-1.6,0.3-1.4,0.7c0.1,0.1,0.1,0.3,0.2,0.4c0.1,0.1,0.5,0.3,0.8,0.3c25.1-0.7,50.2-1.5,75.4-3.2
								c13.4-0.9,26.9-1.8,40.1-3.6c18.6-2.5,37.5-4.3,56.2-6.5c0.7-0.1,1.1-0.3,1.1-0.6c0-0.1,0-0.2,0-0.3c0-0.1-0.1-0.2-0.2-0.3
								C153.5,34,153.2,34,152.7,34z"/>
							<path class="st5" d="M-14.6,40.5c5.4-0.2,10.8-0.1,16.1,0c12.2,0.2,24.2,0.7,36.2,1.1c8.7,0.3,17.7,0.8,26.8,0.4
								c5.6-0.3,11.2-0.9,16.8-1.4c24-2.5,48-5.8,71.7-9.1c0.7-0.1,0.9-0.3,0.8-0.5c0,0,0-0.1,0-0.1c0-0.1-0.1-0.2-0.1-0.3
								c-0.1-0.3-0.9-0.3-1.5-0.2c-22.4,3.1-45,6.1-67.6,8.6c-5.6,0.6-11.3,1.2-16.9,1.6c-8,0.6-16,0.2-23.7-0.1
								C32,40.1,20.2,39.6,8.2,39.3c-9.1-0.2-18.5-0.5-27.9,0.2c-0.8,0.1-1.5,0.6-1,0.8C-19.1,41-17.3,40.6-14.6,40.5z"/>
							<path class="st5" d="M152.3,19.6c-5.6,0.1-12,1.8-17.3,2.8c-13.6,2.4-27.2,4.9-40.7,7.5C85.7,31.5,77,33.1,68.6,35
								c-3,0.6-6.2,1.3-8.8,2.2c-0.7,0.2-1.8,0.7-1.7,1.1c0.4,1.4,7.9,0.6,10.3,0.4c15.4-1.1,30.9-2.9,46.2-4.6
								c12.7-1.4,25.3-2.9,38-4.4c0.6-0.1,1.2-0.3,1.1-0.6c0-0.1,0-0.2,0-0.3c0-0.2-0.6-0.5-1.2-0.4c-25.4,3.1-51,6.1-76.6,8.4
								c-2.8,0.3-5.6,0.5-8.4,0.7c-1.1,0.1-2.1,0.1-3.2,0.2c-0.5,0-0.8,0-1.1,0c1.3-0.3,3-0.7,3.8-0.9c13-3,26.6-5.5,40-8
								c15.1-2.8,30.3-5.5,45.5-8.1c0.6-0.1,0.9-0.3,0.8-0.5C153.3,19.8,153,19.6,152.3,19.6z"/>
							<path class="st5" d="M152.7,23c0.4-0.1,0.6-0.2,0.7-0.3c0,0,0,0,0,0c0,0,0,0,0,0c0,0,0.1-0.1,0-0.1c0-0.1,0-0.3,0-0.4
								c0-0.3-0.8-0.5-1.5-0.3c-7.5,1.4-14.9,2.8-22.2,4.4c-2.4,0.5-14.5,2.5-14.4,4.1c0.2,2.5,32.8-2.6,37.3-3.2
								c0.5-0.1,0.9-0.4,0.8-0.5c0-0.1-0.1-0.2-0.1-0.3c-0.1-0.2-0.5-0.5-1.2-0.4c-6.6,0.9-13.2,1.8-19.8,2.5
								c-2.7,0.3-5.4,0.6-8.2,0.9c-1.2,0.1-2.3,0.2-3.5,0.3c-0.1,0-0.2,0-0.2,0c3.5-1.1,8.3-1.9,11.9-2.6
								C139.2,25.5,145.9,24.2,152.7,23z"/>
							<path class="st5" d="M-12.4,37.8c6.5-0.2,13-0.3,19.5-0.3c12.3-0.1,24.8,0.9,37.3-0.8c7.5-1.1,14.8-2.6,22.1-4
								c8.9-1.7,17.8-3.3,26.7-5c7.6-1.4,15.3-2.7,22.9-4.1c2.7-0.5,5.9-0.8,8.5-1.5c0.2,0,0.4-0.1,0.6-0.2c0.7-0.3,0.3-0.8-0.6-0.8
								c7.9-0.7,15.8-1.3,23.7-1.9c4.5-0.4,9.3-0.9,13.8-1c0.7,0,1.6-0.3,1.5-0.6c-0.1-0.2-0.1-0.3-0.2-0.5
								c-0.1-0.2-0.3-0.4-0.9-0.4c-4.3,0.1-8.9,0.6-13.3,0.9c-8.6,0.7-17.2,1.4-25.9,2.2c-12.8,1.1-25.7,2.3-38.5,3.4
								c-0.6,0-0.9,0.2-1,0.4c-5.3,0.8-10.7,2-15.7,2.8c-6.1,1-12.2,2-18.4,3c-3.9,0.6-8,1.2-12,1.4c-19,0.7-38.1,1.7-57.1,2.7
								c-0.8,0-1.3,0.4-1.1,0.7c0.1,0.1,0.2,0.3,0.3,0.4c0.1,0.2,0.7,0.3,1.2,0.3c18.8-0.9,37.7-2,56.4-2.7
								c9.1-0.4,19.1-2.4,27.9-3.9c8.7-1.4,17.3-2.9,25.9-4.4c9.8-0.8,19.7-1.7,29.5-2.5c-6.2,0.7-12.3,2.1-18.3,3.2
								c-17,3.1-33.8,6.4-50.8,9.5c-6.8,1.2-13.5,2.2-20.5,2.2c-6.2,0-12.2-0.2-18.4-0.2C2,36.1-9.1,36-19.9,36.8
								c-1.1,0.1-1.4,0.6-0.8,0.9C-18.9,38.4-15,37.9-12.4,37.8z"/>
							<path class="st5" d="M-19.8,31.9c4.3-0.1,8.9-0.5,13.3-0.9c8.6-0.7,17.2-1.4,25.9-2.1c10.5-0.9,21.1-1.8,31.6-2.6
								c0,0,0.1,0,0.1,0c0,0,0,0,0,0c0.1,0,0.1,0,0.2,0c0,0,0,0,0,0c0,0,0.1,0,0.1,0c0,0,0.1,0,0.1,0c1.6-0.1,3.3-0.3,4.9-0.5
								c0.4,0,0.9-0.1,1.3-0.1c0.4,0,0.6-0.1,0.8-0.2c5.4-0.8,10.8-2.1,15.9-2.9c6.1-1.1,12.2-2.1,18.3-3.1c3.9-0.6,8-1.3,12-1.5
								c19-0.8,38.1-2,57.1-3c0.8,0,1.3-0.4,1.1-0.7c-0.1-0.1-0.2-0.3-0.3-0.4c-0.1-0.2-0.7-0.3-1.2-0.3
								c-18.8,1.1-37.7,2.2-56.5,3.1c-9.1,0.4-19,2.5-27.8,4c-8,1.4-16,2.8-24,4.2c-0.4,0-0.8,0-1.3,0.1c-7.6,0.6-15.2,1.2-22.8,1.8
								c3.7-0.7,7.3-1.5,10.9-2.2C57.2,21.5,74,18.1,90.9,15c6.7-1.3,13.5-2.2,20.5-2.3c6.2-0.1,12.3,0.2,18.4,0.1
								c10.5-0.1,21.7,0,32.4-0.9c1.1-0.1,1.4-0.6,0.8-0.9c-1.8-0.7-5.6-0.1-8.2-0.1c-6.5,0.2-13,0.4-19.5,0.4
								c-12.3,0.2-24.8-0.8-37.3,1.1c-7.5,1.1-14.8,2.6-22,4.1c-8.8,1.8-17.7,3.4-26.6,5.1c-7.6,1.4-15.2,2.8-22.8,4.2
								c-2.6,0.5-5.9,0.9-8.4,1.5c-0.3,0-0.4,0.1-0.6,0.2c-0.2,0.1-0.3,0.2-0.3,0.2c-7,0.5-14.1,1.1-21.1,1.6
								C0,28.8,4,27.8,7.5,27.2c13.6-2.5,27.1-5.1,40.6-7.7c8.6-1.7,17.2-3.4,25.6-5.2c3-0.7,6.1-1.3,8.8-2.2
								c0.7-0.2,1.8-0.7,1.7-1.1c-0.4-1.4-7.9-0.5-10.3-0.3c-15.4,1.2-30.9,3.1-46.2,4.9c-12.6,1.5-25.3,3-37.9,4.6
								c-0.6,0.1-1.2,0.3-1.1,0.6c0,0.1,0,0.2,0,0.3c0,0.2,0.6,0.5,1.2,0.4c25.4-3.2,51-6.4,76.6-8.9c2.8-0.3,5.6-0.5,8.4-0.7
								c1.1-0.1,2.1-0.1,3.2-0.2c0.5,0,0.8,0,1.1,0c-1.3,0.3-3,0.7-3.8,0.9c-12.9,3.1-26.5,5.7-39.9,8.2
								c-15.1,2.9-30.2,5.7-45.4,8.4c-0.6,0.1-0.9,0.3-0.8,0.5c0,0.1,0,0.2,0.2,0.3c-3,0.2-6,0.5-8.9,0.5c-0.7,0-1.6,0.3-1.5,0.6
								c0.1,0.2,0.1,0.3,0.2,0.5C-20.6,31.7-20.3,31.9-19.8,31.9z"/>
							<path class="st5" d="M73.7,52.3C46.9,55,20,57.3-6.8,59.4c-0.8,0.1-1.3,0.4-1.1,0.7c0.1,0.1,0.2,0.3,0.3,0.4
								c0.1,0.2,0.5,0.3,0.9,0.3c0,0,0,0,0,0c0,0,0,0,0.1,0c0.1,0,0.1,0,0.2,0c26.4-2.1,52.9-4.4,79.3-7.1
								c16.6-1.7,32.8-4.1,49.3-6.1c14.1-1.7,28.2-3.4,42.3-5c0.7-0.1,1.1-0.3,1.1-0.6c0-0.1,0-0.2,0-0.3c0-0.3-0.6-0.4-1.2-0.4
								c-13.7,1.5-27.4,3.1-41.1,4.8C106.8,48.1,90.4,50.5,73.7,52.3z"/>
							<path class="st5" d="M166.6,50c0-0.2-0.4-0.3-0.9-0.4c-15.5-1.2-32.5-1.2-48.9,0.1c-7.5,0.6-15.1,1.6-22.6,2.4
								c-7.9,0.9-15.8,1.7-23.7,2.5c-25.7,2.6-51.3,5.1-77,7.6c-0.8,0.1-1.3,0.4-1.1,0.7c0.1,0.1,0.2,0.3,0.3,0.4
								c0.1,0.1,0.2,0.2,0.4,0.2c0.2,0,0.4,0.1,0.7,0c25.1-2.4,50.3-4.9,75.4-7.5c14.8-1.5,29.6-3.4,44.4-4.8
								c17.2-1.6,35.5-1.4,51.7-0.2c0.7,0.1,1.5-0.3,1.5-0.6C166.6,50.3,166.6,50.2,166.6,50z"/>
							<path class="st5" d="M165.6,52.2c-25.1,0.8-50.2,1.8-75.4,3.6c-13.4,0.9-26.9,1.9-40.1,3.8C31.6,62.3,12.7,64.2-6,66.4
								c-0.7,0.1-1.1,0.3-1.1,0.6c0,0.1,0,0.2,0,0.3c0,0.1,0.1,0.2,0.2,0.3c0.2,0.1,0.5,0.2,1,0.1C12.5,65.5,31,63.5,49.3,61
								c13.1-1.8,26.2-2.9,39.5-3.8c25.6-1.8,51.1-2.8,76.5-3.6c0.9,0,1.6-0.3,1.4-0.7c-0.1-0.1-0.1-0.3-0.2-0.4
								C166.4,52.3,166,52.2,165.6,52.2z"/>
						</g>
					</g>
				</g>
			</g>
			<g>
				
					<ellipse transform="matrix(5.045243e-003 -1 1 5.045243e-003 44.7292 79.095)" class="st34" cx="62.1" cy="17.1" rx="2.3" ry="2.3"/>
				
					<ellipse transform="matrix(5.145643e-003 -1 1 5.145643e-003 24.4251 99.0907)" class="st34" cx="62" cy="37.3" rx="2.3" ry="2.3"/>
			</g>
		</g>
		<g>
			<path class="st35" d="M56.5,23.6c0,0-0.5,1.9-1.6,5.5c-1.1,3.7-1.7,5.8-1.8,6.3C53,35.6,53,35.6,53,35.7c0,0-0.1,0.1-0.2,0.2
				c-0.2,0.1-0.8,0.2-1.8,0.4c-0.9,0.1-1.5,0.2-1.7,0.2c-0.2,0-0.3,0-0.3-0.1c0,0-0.1-0.1-0.2-0.2c-0.1-0.1-0.4-0.6-1-1.7l-2-3.3
				l-0.9,3.8c-0.1,0.4-0.2,1.1-0.4,1.9c-0.1,0.2-0.1,0.3-0.1,0.3c0,0-0.1,0.1-0.3,0.1c-0.3,0.1-0.8,0.2-1.7,0.3
				c-1,0.2-1.6,0.2-1.9,0.2c-0.2,0-0.3-0.1-0.4-0.3c-4.4-6.3-6.7-9.7-6.7-10.2c-0.1-0.7-0.2-1.7-0.4-3.1c-0.2-1.4-0.3-2.4-0.4-3.1
				c0-0.3,0-0.4,0.2-0.5c0.5-0.1,1.2-0.2,2.2-0.3c1-0.1,1.7-0.2,2.2-0.3c0.2,0,0.3,0,0.3,0.2c0.1,0.7,0.2,1.7,0.4,3.1
				c0.2,1.4,0.3,2.4,0.4,3.1c0,0.3,0.5,1,1.3,2.3c0.8,1.1,1.3,1.9,1.6,2.3c0.2,0.2,0.3,0.3,0.3,0.3c0.1,0,0.2-0.4,0.3-1.3
				c0.4-2.4,0.6-3.8,0.6-4.3c-0.1-0.8-0.2-1.8-0.5-3c-0.3-1.7-0.5-2.7-0.5-3c0-0.2,0-0.3,0-0.3c0,0,0.1-0.1,0.3-0.1
				c0.4-0.1,1.2-0.3,2.2-0.4c1.6-0.3,2.5-0.3,2.5,0c0.1,0.6,0.2,1.5,0.4,2.7c0.1,1.2,0.3,2.1,0.4,2.7l0.1,0.7c0.1,0.4,0.7,1.8,2,3.9
				c0.4,0.8,0.7,1.1,0.7,1.1c0,0,0.1-0.1,0.2-0.4c0.2-0.5,0.4-1.3,0.8-2.7c0.4-1.4,0.5-2.3,0.5-2.5c-0.1-0.7-0.3-1.7-0.6-3.1
				c-0.3-1.4-0.5-2.4-0.6-3.1c0-0.2,0.1-0.2,0.3-0.3c0.5-0.1,1.3-0.2,2.3-0.4c1-0.2,1.8-0.3,2.3-0.4c0.2,0,0.3,0.1,0.3,0.5
				c0.1,0.7,0.3,1.7,0.5,3C56.2,21.9,56.4,22.9,56.5,23.6z"/>
			<path class="st35" d="M70.7,25.9c0.1,0.9-0.1,1.4-0.6,1.6c-0.1,0-1,0.3-2.6,0.7c-1,0.3-2.5,0.6-4.4,1.1c0.2,0.5,0.6,0.9,1.3,1.1
				c0.5,0.2,1.1,0.2,1.7,0.1c0.8-0.1,1.5-0.4,2.2-1c0.3-0.3,0.6-0.5,0.9-0.8c0.2,0.1,0.6,0.4,1.1,1.2c0.5,0.7,0.8,1.2,0.9,1.4
				c0,0.1,0,0.2-0.1,0.3c-0.9,1.3-2.4,2.1-4.6,2.4c-2,0.3-3.8,0-5.2-1c-1.5-1-2.4-2.5-2.7-4.5c-0.3-2,0-3.7,1-5.1
				c1-1.5,2.4-2.4,4.4-2.7c1.6-0.3,3.1,0.1,4.4,1.1C69.6,22.9,70.4,24.2,70.7,25.9z M66.1,25.8c-0.1-0.5-0.3-1-0.8-1.3
				c-0.4-0.3-0.9-0.5-1.4-0.4c-0.5,0.1-0.9,0.4-1.2,0.9c-0.3,0.5-0.3,1-0.3,1.5c0,0.2,0.2,0.3,0.4,0.3c0.6-0.1,1.6-0.4,2.9-0.8
				C65.9,26,66.1,25.9,66.1,25.8z"/>
			<path class="st35" d="M86,24.2c0.3,1.8,0,3.4-0.8,4.7c-0.9,1.4-2.2,2.3-4,2.6c-1.3,0.2-2.4,0-3.3-0.6c-0.1,0-0.1-0.1-0.2-0.1
				c-0.1,0-0.1,0.2-0.2,0.5c0,0.3-0.1,0.5-0.2,0.6c-0.1,0.1-1.3,0.3-3.6,0.6c-0.5,0.1-0.8,0-0.9-0.2c0,0,0-0.1,0-0.2
				c0-1.4-0.4-4-1-7.8c-0.6-3.6-1.2-6.8-1.9-9.4l0-0.1c0-0.1,0.1-0.2,0.4-0.3c0.2,0,0.9-0.2,2.2-0.5c0.9-0.2,1.6-0.4,2.2-0.5
				c0.2,0,0.3,0.1,0.3,0.4c0.1,0.3,0.1,0.8,0.1,1.3c0.1,0.7,0.1,1.1,0.1,1.3c0.1,0.8,0.2,2,0.5,3.5c0,0.3,0.1,0.4,0.3,0.4
				c0.1,0,0.1-0.1,0.2-0.1c0.6-0.9,1.6-1.5,2.8-1.7c1.9-0.3,3.4,0.1,4.7,1.2C85,20.8,85.7,22.3,86,24.2z M81.4,24.8
				c-0.1-0.7-0.4-1.3-0.9-1.7c-0.5-0.4-1.1-0.6-1.8-0.5c-0.7,0.1-1.2,0.4-1.6,1c-0.3,0.6-0.4,1.2-0.3,1.9c0.1,0.7,0.4,1.3,0.9,1.7
				c0.5,0.4,1.1,0.6,1.9,0.5c0.7-0.1,1.3-0.5,1.6-1C81.4,26.1,81.5,25.5,81.4,24.8z"/>
		</g>
	</g>
</g>
</svg>
